<svg xmlns="http://www.w3.org/2000/svg" xmlns:xlink="http://www.w3.org/1999/xlink" width="158.829" height="324.349" viewBox="0 0 158.829 324.349">
  <defs>
    <linearGradient id="linear-gradient" x1="0.339" y1="2.951" x2="0.806" y2="-4.116" gradientUnits="objectBoundingBox">
      <stop offset="0.01"/>
      <stop offset="0.13" stop-opacity="0.69"/>
      <stop offset="0.25" stop-opacity="0.322"/>
      <stop offset="1" stop-opacity="0"/>
    </linearGradient>
  </defs>
  <g id="boy_flying_drone" data-name="boy flying drone" transform="translate(-359.514 -177.277)">
    <path id="Path_4456" data-name="Path 4456" d="M283.665,193.879s1.425,3.489-.319,5.51-19.592,13.146-31.611,4.254S268.03,193.56,268.03,193.56Z" transform="translate(178.191 290.322)" fill="#3346d1"/>
    <path id="Path_4448" data-name="Path 4448" d="M235.551,201.6c-6.07,1.773-13.2,4.693-14.225,10.95-.772,4.756,2.753,9.386,7.092,11.472a34.207,34.207,0,0,0,14.163,2.315c31.892.647,65.244.98,93.861-13.245,6.257-3.108,12.1-6.841,18.376-9.8a43.944,43.944,0,0,0,10.283-5.653,11.117,11.117,0,0,0,4.172-10.429c-1.022-4.568-6.007-7.342-10.7-7.488s-9.177,1.689-13.579,3.3a159.252,159.252,0,0,1-57.651,9.595c-8.176-.167-15.1-1.752-23.048.438C254.7,195.785,245.145,198.768,235.551,201.6Z" transform="translate(148.949 275.047)" fill="#020202" opacity="0.03"/>
    <path id="Path_4452" data-name="Path 4452" d="M262.122,196.928a18.376,18.376,0,0,1-1.481,7.884,13.141,13.141,0,0,1-5.715,5.3,22.423,22.423,0,0,1-16.686,1.648,3.212,3.212,0,0,1-1.919-1.147,2.921,2.921,0,0,1-.355-1.669,12.515,12.515,0,0,1,4.38-7.863,27.116,27.116,0,0,0,6.028-6.9c2.565-5.173.667-18.939,10.429-16.686C264.9,179.282,262.33,191.171,262.122,196.928Z" transform="translate(164.949 272.36)" fill="#ffbaa8"/>
    <path id="Path_4453" data-name="Path 4453" d="M266.975,191.334s1.377,3.4-.334,5.4-19.21,12.869-30.995,4.172,16-9.908,16-9.908Z" transform="translate(161.452 287.299)" fill="#3346d1"/>
    <path id="Path_4454" data-name="Path 4454" d="M265.759,187.979a2.524,2.524,0,0,0-3.17.813,10.241,10.241,0,0,1-9.365,3.358c-3.838-.918-5.381-5.34-7.3-5.36s-12.1,8.656-12.661,12.369,4.63,6.466,10.429,6.821,18.772-3.608,21.275-6.633a12.368,12.368,0,0,0,.793-11.368Z" transform="translate(161.98 282.727)" fill="#e8e9fa"/>
    <path id="Path_4455" data-name="Path 4455" d="M278.143,199.49a18.771,18.771,0,0,1-1.481,7.884,13.14,13.14,0,0,1-5.715,5.3,22.422,22.422,0,0,1-16.686,1.648,3.233,3.233,0,0,1-1.919-1.168,2.815,2.815,0,0,1-.334-1.648,12.515,12.515,0,0,1,4.38-7.863,27.47,27.47,0,0,0,6.028-6.9c2.566-5.173.667-18.96,10.429-16.686C280.9,181.844,278.352,193.733,278.143,199.49Z" transform="translate(182.363 275.137)" fill="#ffbaa8"/>
    <path id="Path_4457" data-name="Path 4457" d="M281.789,190.55a2.524,2.524,0,0,0-3.17.813,10.262,10.262,0,0,1-9.365,3.358c-3.838-.918-5.381-5.34-7.3-5.381s-12.1,8.656-12.661,12.39,4.61,6.466,10.429,6.821,18.772-3.629,21.254-6.654A12.264,12.264,0,0,0,281.789,190.55Z" transform="translate(179.385 285.496)" fill="#e8e9fa"/>
    <path id="Path_4458" data-name="Path 4458" d="M287.349,120.924s1.815,100.118-5.611,133.491l-18.772,2.315L249.93,119.61Z" transform="translate(180.123 209.784)" fill="#473f47"/>
    <path id="Path_4459" data-name="Path 4459" d="M241.782,115s-8.844,54.022,1.9,140.791l18.772,2.315,13.036-137.12Z" transform="translate(167.56 204.778)" fill="#473f47"/>
    <path id="Path_4460" data-name="Path 4460" d="M229.422,116.653c.209,3.608,1.377,6.779,4.505,7.822l.813.209c5.778,1.168,13.37-3.233,18.647-7.071a72.994,72.994,0,0,0,6.257-5.131V73.79l-28.116,28.784A44.029,44.029,0,0,0,229.422,116.653Z" transform="translate(157.852 160.033)" fill="#e0f8fe"/>
    <path id="Path_4461" data-name="Path 4461" d="M241.8,122.254c0,1.794-.229,3.65-.229,5.444,0,10.012,2.315,20.316-.668,30.1a10.95,10.95,0,0,0-.793,6.716,8.218,8.218,0,0,0,4.172,4.026c8.8,4.818,18.981,6.257,28.93,7.7,7.467,1.043,18.084,3.254,25.03-.772,2.941-1.71,3.942-4.9,4.881-8.093,3-10.137,3.88-21.025,4.672-31.537.1-1.377.188-2.753.271-4.172.584-9.553.772-19.148.584-28.721-.125-6.946-.667-14.455-5.215-19.69-6.049-6.987-17.708-11.618-26.573-13.245a30,30,0,0,0-8.739-.48,37.086,37.086,0,0,0-11.826,4c-4.4,2.19-8.343,4.026-10.429,8.343a59.492,59.492,0,0,0-4.9,15.852,57.171,57.171,0,0,0-.292,15.56c.271,2.524.939,5.048,1.168,7.571Q241.8,121.566,241.8,122.254Z" transform="translate(169.232 155.266)" fill="#e0f8fe"/>
    <path id="Path_4462" data-name="Path 4462" d="M282.9,171.548c2.9.855,9.595-1.794,11.806-2.19,1.335-.229,2.545-.9,3.859-1.21,6.612-1.648,7.4-20.253,8.051-25.259,1.71-13.224,4.359-26.928,4.505-40.193a44.51,44.51,0,0,0-1.752-15.143,17.437,17.437,0,0,0-9.928-11.034,5.048,5.048,0,0,0-2.92-.313c-4.046,1.022-4.881,7.676-5.569,10.909-1.043,4.943-2.816,10.054-7.113,13.12-10.429,7.446-28.1,1.919-39.4,0a5.214,5.214,0,0,0-3.045,0,3.817,3.817,0,0,0-1.627,4.318,21.3,21.3,0,0,0,2.086,4.526c2.691,5.423,1.961,11.91,3.5,17.792A33.018,33.018,0,0,0,258.1,144.183a140.833,140.833,0,0,0,18.939,10.93,12.847,12.847,0,0,1,3.984,2.795,8.885,8.885,0,0,1,1.919,6.007c0,1.377-1.752,5.611-1.231,6.591a1.878,1.878,0,0,0,1.189,1.043Z" transform="translate(168.912 162.559)" fill="#020202" opacity="0.1"/>
    <path id="Path_4463" data-name="Path 4463" d="M251.4,79.959a6.257,6.257,0,0,0,4.067,2.086,22.441,22.441,0,0,0,3.921,0h.751a.9.9,0,0,1,.521.1.855.855,0,0,1,.229.584,43.05,43.05,0,0,1,.167,7.863h0l-.125,1.418a2.566,2.566,0,0,0,.125,1.481,2.461,2.461,0,0,0,1.585,1.043,12.159,12.159,0,0,0,3.546.6,15.914,15.914,0,0,0,7.238-2.545,73.878,73.878,0,0,1,.709-13.412c.834-5.736,2.336-11.472,1.71-17.229a11.2,11.2,0,0,0-2.357-6.257,11.222,11.222,0,0,0-8.531-3.066,21.5,21.5,0,0,0-11.722,3.212c-1.293.876-1.439,2.086-1.752,3.462-.438,2.253-.793,4.547-1.043,6.841s-.459,5.214-.5,7.863a8.907,8.907,0,0,0,1.46,5.945Z" transform="translate(180.074 137.032)" fill="#ffbaa8"/>
    <path id="Path_4464" data-name="Path 4464" d="M257.638,63.617c2.941.5,6.257,0,8.927,1.126a8.677,8.677,0,0,1,4.172,10.6c1.126.4,1.314-1.627,2.086-2.44s2.816.271,2.962,1.689a8.8,8.8,0,0,1-1.022,4.046,11.806,11.806,0,0,0-.522,7.843c.167.6.626,1.335,1.231,1.168s1.043-1.189,1.418-1.648a16.126,16.126,0,0,1,1.961-2.086c1.356-1.189,2.857-2.232,4.172-3.4,2.482-2.086,4.776-4.9,4.63-8.135a7.07,7.07,0,0,0-1.272-3.65,8.342,8.342,0,0,0-2.4-2.357c-.4-.25-.855-.521-.939-.98a1.878,1.878,0,0,1,.1-.751,8.823,8.823,0,0,0-3.671-8.823,21.463,21.463,0,0,0-9.428-3.5c-2.086-.375-4.339-.688-6.508-.939a14.391,14.391,0,0,1-5.235-1.251,14.123,14.123,0,0,1,1.731-3.337,16.687,16.687,0,0,0-4.38,2.086,6.7,6.7,0,0,1,.584-2.19,13.37,13.37,0,0,0-6.445,3.671,7.738,7.738,0,0,0-.23,8.739,10.909,10.909,0,0,0,7.259,4.422Z" transform="translate(178.381 130.597)" fill="#535353"/>
    <path id="Path_4465" data-name="Path 4465" d="M254.44,68.1h.751a.9.9,0,0,1,.521.1.855.855,0,0,1,.229.584,43.051,43.051,0,0,1,.167,7.863h0a10.575,10.575,0,0,0,7.259-11.18A43.55,43.55,0,0,1,254.5,68.1Z" transform="translate(185.021 150.999)" fill="#e0a091"/>
    <path id="Path_4466" data-name="Path 4466" d="M218.18,94.364a54.855,54.855,0,0,0,13.5,13.453,26.844,26.844,0,0,0,12.682,4.568,4.172,4.172,0,0,0,1.773-.188,4.86,4.86,0,0,0,2.44-1.69,14.121,14.121,0,0,0,3.254-8.03c.313-7.7-8.03-12.181-8.03-12.181s-19.022-6.07-21.275-5.068c-1.252.521-2.42,3.191-3.233,5.527C218.618,92.674,218.18,94.364,218.18,94.364Z" transform="translate(145.649 172.331)" fill="#e0f8fe"/>
    <rect id="Rectangle_2208" data-name="Rectangle 2208" width="28.555" height="67.225" rx="6.85" transform="translate(461.157 307.528) rotate(-160.47)" fill="#e0f8fe"/>
    <path id="Path_4467" data-name="Path 4467" d="M218.18,91.439a54.856,54.856,0,0,0,13.5,13.453,26.844,26.844,0,0,0,12.682,4.568,4.171,4.171,0,0,0,1.773-.188l.813.209c5.778,1.168,13.37-3.233,18.647-7.071v-.125l-1.9-11.576a45.532,45.532,0,0,1-11.931,8.823,16.978,16.978,0,0,1-10.2,1.9,10.2,10.2,0,0,1-2.753-.834A90.025,90.025,0,0,1,219.223,87.81C218.618,89.75,218.18,91.439,218.18,91.439Z" transform="translate(145.649 175.255)" fill="#020202" opacity="0.1"/>
    <path id="Path_4468" data-name="Path 4468" d="M279.333,99.375,247.879,82.23,235.74,95.975s39.63,39.964,51.311,38.379,6.758-13.975,6.758-13.975S298.21,107.072,279.333,99.375Z" transform="translate(164.716 169.197)" fill="#e0f8fe"/>
    <path id="Path_4469" data-name="Path 4469" d="M228.329,73.961c-3.358.438-7.029,1.377-8.885,4.172a8.676,8.676,0,0,0-1.272,3.692c-.626,5.444,2.566,10.533,5.653,15.059a13.077,13.077,0,0,0,4.818,4.839,12.16,12.16,0,0,0,3.442.793,55.127,55.127,0,0,0,26.344-3.483,2.753,2.753,0,0,0,2.086-2.837,18.02,18.02,0,0,0-.1-7.759,21.4,21.4,0,0,0-1.9-4.172c-2.42-4.4-4.484-11.242-10.429-11.242a152.708,152.708,0,0,0-19.752.939Z" transform="translate(145.554 159.174)" fill="#3346d1"/>
    <path id="Path_4470" data-name="Path 4470" d="M226.191,76.168a9.616,9.616,0,0,0-7.008,3.3,6.841,6.841,0,0,0-.98,2.9c-.5,4.3,2.086,8.343,4.443,11.847a10.116,10.116,0,0,0,3.8,3.817,9.179,9.179,0,0,0,2.712.626,43.426,43.426,0,0,0,20.733-2.732,3,3,0,0,0,1.085-.647,2.837,2.837,0,0,0,.584-1.585,14.7,14.7,0,0,0,0-6.111,16.018,16.018,0,0,0-1.5-3.275c-1.9-3.483-3.525-8.865-8.218-8.865a124.984,124.984,0,0,0-15.644.73Z" transform="translate(145.606 161.805)" fill="url(#linear-gradient)"/>
    <path id="Path_4471" data-name="Path 4471" d="M250.081,85.52a3.043,3.043,0,0,0-.334-.918,10.1,10.1,0,0,0-4.443-5.34,10.637,10.637,0,0,0-5.944-.188L231.5,80.326a2.9,2.9,0,0,0-.855.25,2.211,2.211,0,0,0-.751.834A5.882,5.882,0,0,0,230.558,88a6.925,6.925,0,0,1,1.314,1.606,8.153,8.153,0,0,1,.313,2.586,8.135,8.135,0,0,0,5.235,5.84,33.958,33.958,0,0,1,7.384,3.546,12.515,12.515,0,0,0,2.086,1.5,7.279,7.279,0,0,0,3.963.375,2.857,2.857,0,0,0,1.606-.48,2.69,2.69,0,0,0,.688-1.293c1.022-3.108,1.731-4.818.6-7.947-.959-2.607-3.254-5.611-3.442-8.343a58.924,58.924,0,0,0-.417-9.762c-.25-1.147-.813-2.461-1.981-2.628a2.232,2.232,0,0,0-2.086,1.022,7.363,7.363,0,0,0-.9,2.211,5.09,5.09,0,0,1-2.19,3.275" transform="translate(157.592 159.17)" fill="#ffbaa8"/>
    <path id="Path_4472" data-name="Path 4472" d="M230.939,88.881a10.054,10.054,0,0,1,.375,3.129,3.3,3.3,0,0,1-1.585,2.586c-1.293.647-3,0-4.172.834a5.944,5.944,0,0,0-1.606,2.086,2.357,2.357,0,0,1-2.086,1.314,2.482,2.482,0,0,1-1.168-.647,14.058,14.058,0,0,1-4.172-8.218,35.124,35.124,0,0,1,0-10.763c.48-3.316,1.648-2.878,3.9-1.314s5.507,1.648,7.551,3.734A15.038,15.038,0,0,1,230.939,88.881Z" transform="translate(143.403 163.193)" fill="#ffbaa8"/>
    <path id="Path_4473" data-name="Path 4473" d="M231.8,101.728,221.14,48.06l12.369,53.668S234.614,102.812,231.8,101.728Z" transform="translate(148.863 132.095)" fill="#23d1fd"/>
  </g>
</svg>
