<svg xmlns="http://www.w3.org/2000/svg" xmlns:xlink="http://www.w3.org/1999/xlink" width="116.34" height="320.242" viewBox="0 0 116.34 320.242">
  <defs>
    <linearGradient id="linear-gradient" x1="0.999" y1="0.501" x2="-0.001" y2="0.501" gradientUnits="objectBoundingBox">
      <stop offset="0" stop-color="#e5c5d5"/>
      <stop offset="0.42" stop-color="#ead4d1"/>
      <stop offset="1" stop-color="#f0e9cb"/>
    </linearGradient>
    <linearGradient id="linear-gradient-2" x1="0.415" y1="0.528" x2="1.18" y2="0.347" gradientUnits="objectBoundingBox">
      <stop offset="0" stop-opacity="0"/>
      <stop offset="0.99"/>
    </linearGradient>
    <linearGradient id="linear-gradient-3" x1="1.199" y1="0.097" x2="0.049" y2="0.858" xlink:href="#linear-gradient-2"/>
    <linearGradient id="linear-gradient-4" x1="-0.025" y1="0.148" x2="2.056" y2="1.019" xlink:href="#linear-gradient-2"/>
    <linearGradient id="linear-gradient-5" x1="1.001" y1="0.501" x2="-0.001" y2="0.501" xlink:href="#linear-gradient"/>
    <linearGradient id="linear-gradient-6" x1="0.235" y1="0.521" x2="4.978" y2="0.104" xlink:href="#linear-gradient"/>
    <linearGradient id="linear-gradient-7" x1="0.444" y1="-0.049" x2="0.546" y2="0.772" xlink:href="#linear-gradient"/>
    <linearGradient id="linear-gradient-8" x1="0.635" y1="0.082" x2="0.448" y2="0.722" xlink:href="#linear-gradient-2"/>
    <linearGradient id="linear-gradient-9" x1="0.999" y1="0.499" x2="-0.001" y2="0.499" xlink:href="#linear-gradient"/>
    <linearGradient id="linear-gradient-10" x1="-0.138" y1="0" x2="4.114" y2="3.54" xlink:href="#linear-gradient"/>
    <linearGradient id="linear-gradient-11" x1="-0.189" y1="0.328" x2="2.332" y2="0.797" xlink:href="#linear-gradient-2"/>
    <linearGradient id="linear-gradient-12" x1="-0.114" y1="0.553" x2="2.015" y2="0.313" gradientUnits="objectBoundingBox">
      <stop offset="0.02" stop-color="#fff" stop-opacity="0"/>
      <stop offset="0.58" stop-color="#fff" stop-opacity="0.388"/>
      <stop offset="0.68" stop-color="#fff" stop-opacity="0.678"/>
      <stop offset="1" stop-color="#fff"/>
    </linearGradient>
    <linearGradient id="linear-gradient-13" x1="-1.201" y1="0.194" x2="5.168" y2="1.341" xlink:href="#linear-gradient-2"/>
  </defs>
  <g id="chatting" transform="translate(-0.137 0.083)">
    <path id="Path_4547" data-name="Path 4547" d="M379.9,159.7a79.038,79.038,0,0,1-7.964,8.438.609.609,0,0,1-.317.183.548.548,0,0,1-.378-.11l-1.023-.548a35.311,35.311,0,0,1-11.836-1.717,2.789,2.789,0,0,0-2.228,0,1.935,1.935,0,0,0-.731.913,3.726,3.726,0,0,0,2.508,4.871,4.871,4.871,0,0,0,.913,5.394c1.059,1.035,2.545,1.534,3.653,2.435,2.74,2.289,2.764,6.4,4.225,9.668a3.848,3.848,0,0,0,1.327,1.741c1.461.938,3.385,0,4.871-1a55.014,55.014,0,0,0,6.247-5.053,9.107,9.107,0,0,0,2.3-2.886,10.177,10.177,0,0,0,.633-2.983l1.753-16.061a1.79,1.79,0,0,0-.073-.95,1.608,1.608,0,0,0-.877-.658C381.646,160.907,381.256,159.592,379.9,159.7Z" transform="translate(-317.28 -39.517)" fill="url(#linear-gradient)"/>
    <path id="Path_4548" data-name="Path 4548" d="M382.511,166.775a24.753,24.753,0,0,0,1.583,2.606,11.5,11.5,0,0,1,1.327,1.924,7.781,7.781,0,0,1,.487,3.4,3.312,3.312,0,0,1-.865,2.654,2.935,2.935,0,0,1-1.425.487,20.823,20.823,0,0,1-6.271,0,6.32,6.32,0,0,1-2.557-.865,6.905,6.905,0,0,1-1.912-2.228,144.5,144.5,0,0,1-9.741-17.9,1.535,1.535,0,0,1-.158-.524,1.339,1.339,0,0,1,.718-1.12,6.843,6.843,0,0,1,3.105-.925,39.454,39.454,0,0,1,6.088-.268,5.382,5.382,0,0,1,1.973.341C375.9,154.818,381.159,164.34,382.511,166.775Z" transform="translate(-328.787 -40.758)" fill="#3346d1"/>
    <path id="Path_4549" data-name="Path 4549" d="M382.511,166.775a24.753,24.753,0,0,0,1.583,2.606,11.5,11.5,0,0,1,1.327,1.924,7.781,7.781,0,0,1,.487,3.4,3.312,3.312,0,0,1-.865,2.654,2.935,2.935,0,0,1-1.425.487,20.823,20.823,0,0,1-6.271,0,6.32,6.32,0,0,1-2.557-.865,6.905,6.905,0,0,1-1.912-2.228,144.5,144.5,0,0,1-9.741-17.9,1.535,1.535,0,0,1-.158-.524,1.339,1.339,0,0,1,.718-1.12,6.843,6.843,0,0,1,3.105-.925,39.454,39.454,0,0,1,6.088-.268,5.382,5.382,0,0,1,1.973.341C375.9,154.818,381.159,164.34,382.511,166.775Z" transform="translate(-328.787 -40.758)" fill="url(#linear-gradient-2)"/>
    <path id="Path_4550" data-name="Path 4550" d="M383.841,167.711a21.764,21.764,0,0,0,1.571,2.606,11.606,11.606,0,0,1,1.327,1.936,7.758,7.758,0,0,1,.475,3.434,3.275,3.275,0,0,1-.865,2.655,3.02,3.02,0,0,1-1.425.487,21.139,21.139,0,0,1-6.259,0,6.307,6.307,0,0,1-2.569-.865,7.305,7.305,0,0,1-1.9-2.253,144.442,144.442,0,0,1-9.741-17.9,1.657,1.657,0,0,1-.17-.524,1.34,1.34,0,0,1,.718-1.12,7.05,7.05,0,0,1,3.105-.938,39.6,39.6,0,0,1,6.088-.256,5.187,5.187,0,0,1,1.973.341C377.217,155.766,382.49,165.276,383.841,167.711Z" transform="translate(-331.688 -40.55)" fill="#3346d1"/>
    <path id="Path_4551" data-name="Path 4551" d="M323.078,264.7a738.92,738.92,0,0,0,55.124,58.57,3.653,3.653,0,0,0,2.752,1.364,3.422,3.422,0,0,0,1.607-.9A43.362,43.362,0,0,0,392.887,310.9a1.486,1.486,0,0,0-.377-2.155q-21.76-22.9-42.728-46.649a3.982,3.982,0,0,1-1.084-1.778,4.091,4.091,0,0,1,.974-2.874,189.749,189.749,0,0,0,18.362-35.556,3.8,3.8,0,0,0,.365-2.265,3.653,3.653,0,0,0-1.1-1.607c-4.432-4.371-18.021-14.466-23.136-6.855-3.154,4.712-4.992,10.959-7.16,16.171q-3.58,8.524-6.843,17.267Q326.414,254.573,323.078,264.7Z" transform="translate(-287.461 -28.914)" fill="#3e3e54"/>
    <path id="Path_4552" data-name="Path 4552" d="M323.078,264.7a738.92,738.92,0,0,0,55.124,58.57,3.653,3.653,0,0,0,2.752,1.364,3.422,3.422,0,0,0,1.607-.9A43.362,43.362,0,0,0,392.887,310.9a1.486,1.486,0,0,0-.377-2.155q-21.76-22.9-42.728-46.649a3.982,3.982,0,0,1-1.084-1.778,4.091,4.091,0,0,1,.974-2.874,189.749,189.749,0,0,0,18.362-35.556,3.8,3.8,0,0,0,.365-2.265,3.653,3.653,0,0,0-1.1-1.607c-4.432-4.371-18.021-14.466-23.136-6.855-3.154,4.712-4.992,10.959-7.16,16.171q-3.58,8.524-6.843,17.267Q326.414,254.573,323.078,264.7Z" transform="translate(-287.461 -28.914)" fill="url(#linear-gradient-3)"/>
    <path id="Path_4553" data-name="Path 4553" d="M360.313,235.111c-1.766,13.26-8.037,25.571-9.814,38.844-.6,4.384-.682,8.828-1.413,13.187-1,6.088-3.2,11.824-4.323,17.839-1.741,9.291-.9,18.971-3.251,28.128a4.262,4.262,0,0,1-1.218,2.435,4.554,4.554,0,0,1-2.959.694l-10.448.061a361.987,361.987,0,0,1,2.362-61.736c.511-4.128,1.1-8.268,1.364-12.42,1.011-15.83-2.679-31.915-.183-47.623a211.869,211.869,0,0,0,28.079.633c2.082-.1,3.811-.84,4.335,1.084.353,1.218-1.1,4.871-1.291,6.3C360.97,226.685,360.873,230.934,360.313,235.111Z" transform="translate(-261.316 -27.583)" fill="#3e3e54"/>
    <path id="Path_4554" data-name="Path 4554" d="M314.62,226.711a5.54,5.54,0,0,0,1.973,1.814c4.213,2.7,8.524,5.467,13.5,6.222,2.192.329,4.445.256,6.636.621,2.594.438,5.041,1.51,7.61,2.131a22.9,22.9,0,0,0,11.824-.317,21.052,21.052,0,0,0,4.286-1.729,13.612,13.612,0,0,0,2.021-1.3,6.759,6.759,0,0,0,2.192-2.8,9.911,9.911,0,0,0,.353-4.359h0c-.877-12.457-2.691-25.571,2.435-36.944l1.875.3a2.071,2.071,0,0,0,.268,0h.195l.865.134a112.953,112.953,0,0,0,4.591-25.06c.329-5.066.268-10.423-2.253-14.831a20.237,20.237,0,0,0-9.157-7.793,22.988,22.988,0,0,0-6.478-1.826,68.346,68.346,0,0,0-12.919,0l-8.633.548a8.171,8.171,0,0,0-2.91.548,6.491,6.491,0,0,0-2.021,1.619c-4.481,4.944-5.808,12.177-10.082,17.193h0c-.28.341-.572.67-.889.986-.073.073-.158.146-.219.219h0a1.218,1.218,0,0,0-.451,1.047.232.232,0,0,0,0,.11h0a1.827,1.827,0,0,0,.511.718c1.388,1.364,2.776,2.715,4.14,4.079-.085,1-.122,2.034-.146,3.093-.122,3.97,0,8.256-.743,11.945q-4.213,19.909-8.426,39.842A5.431,5.431,0,0,0,314.62,226.711Z" transform="translate(-258.911 -43.658)" fill="#3346d1"/>
    <path id="Path_4555" data-name="Path 4555" d="M322.9,189.075a23.477,23.477,0,0,0,8.524,7.306c3.921,1.936,8.28,2.728,12.53,3.75,2.581.621,5.382,1.5,6.855,3.726a11.275,11.275,0,0,1,1.218,6.027c.085,4.871.195,9.741.28,14.685,0,1.5.146,3.2,1.315,4.164a3,3,0,0,0,1.339.609,5.077,5.077,0,0,0,2.3-.17,8.268,8.268,0,0,0,4.006-2.862,12.079,12.079,0,0,0,2.216-4.871,15.473,15.473,0,0,0,.329-2.374c-.877-12.457-2.691-25.571,2.435-36.944-6.417-9.327-9.376-4.055-16.572.645a27.8,27.8,0,0,1-5.041,2.508,22.162,22.162,0,0,1-9.814,1.96c-3.848-.317-7.306-2.253-10.849-3.848C318.7,180.953,321.331,186.907,322.9,189.075Z" transform="translate(-257.793 -35.758)" fill="url(#linear-gradient-4)"/>
    <path id="Path_4556" data-name="Path 4556" d="M341.222,138.544c.365,1.814,1.218,5.967,1.218,5.967a6.539,6.539,0,0,1-2.2,2.435,12.054,12.054,0,0,1-5.382,2.131c-1.51.207-3.312,0-4.079-1.339a4.737,4.737,0,0,1-.487-1.851l-.828-7.172a7.439,7.439,0,0,1,0-1.875,5.406,5.406,0,0,1,.731-1.8c1.473-2.435,7.55-13.139,8.865-10.228S340.723,136.109,341.222,138.544Z" transform="translate(-244.405 -47.219)" fill="url(#linear-gradient-5)"/>
    <path id="Path_4557" data-name="Path 4557" d="M339.793,136.953a18.083,18.083,0,0,1-6.356,7.075,21.76,21.76,0,0,0-.718-5.808c-.426-1.6-1.035-3.324-.39-4.871a5.419,5.419,0,0,1,1.218-1.741c1.753-1.753,5.565-4.591,8.292-3.75,1,.3.767.463.524,1.534-.183.84-.39,1.68-.633,2.508A27.679,27.679,0,0,1,339.793,136.953Z" transform="translate(-247.761 -46.48)" fill="url(#linear-gradient-6)"/>
    <path id="Path_4568" data-name="Path 4568" d="M330.526,132.716a17.681,17.681,0,0,0,4.444,8.767c2.435,2.314,6.088,3.531,9.145,2.326a13.394,13.394,0,0,0,5.236-4.505,26.021,26.021,0,0,0,3.519-5.3,16.864,16.864,0,0,0,3.556-2.886,6.454,6.454,0,0,0,2.143-4.712c-.146-1.766-2.021-3.409-3.653-2.728-1.607-2.3-1.887-5.285-3.166-7.793a11.933,11.933,0,0,0-9.352-6.21,14.612,14.612,0,0,0-10.8,3.653,6.648,6.648,0,0,0-2.289,3.081c-.621,2.2-.244,5.2,0,7.464A60.08,60.08,0,0,0,330.526,132.716Z" transform="translate(-260.011 -50.413)" fill="url(#linear-gradient-7)"/>
    <path id="Path_4569" data-name="Path 4569" d="M335.054,109.257c4.006.414,7.623-2.2,10.959-4.518s7.367-4.542,11.19-3.251a7.209,7.209,0,0,1,2.776,1.741,7.173,7.173,0,0,0,1.8,1.583,9.513,9.513,0,0,0,1.583.463c3.178.95,4.371,4.871,4.639,8.134a40.555,40.555,0,0,1,0,6.32c-.183,2.289-.755,4.871-2.74,6.027-1.084.621-2.545.779-3.215,1.839-.28.438-.5,1.084-1.023,1.108a.95.95,0,0,1-.682-.3c-2.046-1.79-1.011-5.114-1.51-7.793a2.144,2.144,0,0,0-.329-.852,3.044,3.044,0,0,0-1.218-.8,7.209,7.209,0,0,1-3.4-3.872,18.009,18.009,0,0,1-7.854,5.065,9.425,9.425,0,0,0-2.837,1.218,17.326,17.326,0,0,0-1.924,2.082c-2.655,2.728-7.537,2.338-10.289-.292a11.178,11.178,0,0,1-2.581-10.594,3.519,3.519,0,0,0,3.434,0c-.317.183-3.105-4.14-2.435-4.871S334.031,109.147,335.054,109.257Z" transform="translate(-268.386 -52.27)" fill="#3e3e54"/>
    <path id="Path_4570" data-name="Path 4570" d="M335.054,109.257c4.006.414,7.623-2.2,10.959-4.518s7.367-4.542,11.19-3.251a7.209,7.209,0,0,1,2.776,1.741,7.173,7.173,0,0,0,1.8,1.583,9.513,9.513,0,0,0,1.583.463c3.178.95,4.371,4.871,4.639,8.134a40.555,40.555,0,0,1,0,6.32c-.183,2.289-.755,4.871-2.74,6.027-1.084.621-2.545.779-3.215,1.839-.28.438-.5,1.084-1.023,1.108a.95.95,0,0,1-.682-.3c-2.046-1.79-1.011-5.114-1.51-7.793a2.144,2.144,0,0,0-.329-.852,3.044,3.044,0,0,0-1.218-.8,7.209,7.209,0,0,1-3.4-3.872,18.009,18.009,0,0,1-7.854,5.065,9.425,9.425,0,0,0-2.837,1.218,17.326,17.326,0,0,0-1.924,2.082c-2.655,2.728-7.537,2.338-10.289-.292a11.178,11.178,0,0,1-2.581-10.594,3.519,3.519,0,0,0,3.434,0c-.317.183-3.105-4.14-2.435-4.871S334.031,109.147,335.054,109.257Z" transform="translate(-268.386 -52.27)" fill="url(#linear-gradient-8)"/>
    <path id="Path_4571" data-name="Path 4571" d="M373.388,171.059a137.74,137.74,0,0,1-11.7,10.582,2.707,2.707,0,0,1-3.227.524c-1.4-.451-2.789-.913-4.177-1.388a80.285,80.285,0,0,1-11.483-4.542c-3.653-1.912-6.709-8.1-10.192-8.024-.073.706.511,1.668.438,2.374a1.023,1.023,0,0,1-.219.633.938.938,0,0,1-.475.207c-2.435.5-4.785-1-7.087-1.973a2.045,2.045,0,0,0-1.157-.231c-.974.183-1.218,1.583-.706,2.435a13.616,13.616,0,0,0,2.07,2.119c1.8,1.948,1.729,4.968,2.983,7.306a7.063,7.063,0,0,0,5.285,3.653,15.835,15.835,0,0,1,1.875.219,8.3,8.3,0,0,1,2.789,1.6,80.9,80.9,0,0,0,14.977,8.134,30.76,30.76,0,0,0,6.539,2.435,47.231,47.231,0,0,1,5.236.986c1.559.511,3.044,1.437,4.688,1.339,2.35-.158,3.982-2.338,5.285-4.311,2.435-3.75,5.626-8.1,6.417-12.627.377-2.143-1.607-3.653-2.922-5.163Z" transform="translate(-275.937 -37.664)" fill="url(#linear-gradient-9)"/>
    <path id="Path_4572" data-name="Path 4572" d="M375.909,323.25a2.435,2.435,0,0,1-.365,1.376,1.972,1.972,0,0,1-.816.548,10.958,10.958,0,0,1-3.726.621q-12.481.585-24.962.195a19.483,19.483,0,0,1,11.373-6.417c2.058-.353,4.177-.378,6.21-.889a.818.818,0,0,0,.755-.877l.511-3.263a.767.767,0,0,1,.158-.487.791.791,0,0,1,.572-.158l5.711-.1c1.12,0,2.7-.292,3.653.414s.877,2.314.925,3.434Q376.007,320.474,375.909,323.25Z" transform="translate(-298.186 -5.986)" fill="#3e3e54"/>
    <path id="Path_4573" data-name="Path 4573" d="M338.549,299.729a2.533,2.533,0,0,1,.852,1.218,2.435,2.435,0,0,1-.219,1.388c-2.155,5.674-6.417,10.241-10.594,14.612-3.361,3.556-6.795,7.172-11.093,9.51-2.046-6.015.11-12.883,4.164-17.778a3.165,3.165,0,0,0,.95-1.887,7.488,7.488,0,0,0-.682-1.887,4.359,4.359,0,0,1,1.218-3.653,27.665,27.665,0,0,1,7.087-7c2-1.218,2.435-.28,3.994,1.218Z" transform="translate(-225.939 -10.35)" fill="#3e3e54"/>
    <path id="Path_4602" data-name="Path 4602" d="M331.988,123.039a.95.95,0,0,1,1.218,0,1.413,1.413,0,0,1,.414,1.218,2.812,2.812,0,0,1-.5,1.218c-.341.511-1.108,1.656-1.79,1.729s-.95-.341-.767-.925.852-.816,1.035-1.388S331.489,123.466,331.988,123.039Z" transform="translate(-236.949 -47.544)" fill="url(#linear-gradient-10)"/>
    <path id="Path_4603" data-name="Path 4603" d="M352.58,161.418h0a1.826,1.826,0,0,0,.511.718c1.388,1.364,2.776,2.715,4.14,4.079-.085,1,4.091-10.2,4.871-16.646-1.218.28-2.922,3.97-3.8,5-1.3,1.534-2.728,2.959-4.128,4.4h0l-.475.475a7.365,7.365,0,0,0-.633.731h0a2.216,2.216,0,0,0-.4,1.011A1.181,1.181,0,0,0,352.58,161.418Z" transform="translate(-292.293 -41.721)" fill="url(#linear-gradient-11)"/>
    <path id="Path_4604" data-name="Path 4604" d="M319.03,181.438a2.076,2.076,0,0,0,.268,0A.219.219,0,0,0,319.03,181.438Z" transform="translate(-208.636 -34.794)" fill="none"/>
    <path id="Path_4605" data-name="Path 4605" d="M314.254,141a3.409,3.409,0,0,0,1.1,2.107c2.8,2.886,6.636,3.763,8.889,7.489a25.1,25.1,0,0,1,2.435,6.466,68.2,68.2,0,0,1,2.435,11.556,22.455,22.455,0,0,1-1.668,11.568c-1.12,2.435-2.813,4.6-3.008,7.209a2.886,2.886,0,0,0,.244,1.546,3.361,3.361,0,0,0,1.437,1.218l.548.244.865.134a112.949,112.949,0,0,0,4.615-25.181c.329-5.066.268-10.423-2.253-14.831a20.237,20.237,0,0,0-9.157-7.793A22.988,22.988,0,0,0,314.254,141Z" transform="translate(-215.805 -43.586)" fill="url(#linear-gradient-12)"/>
    <path id="Path_4606" data-name="Path 4606" d="M337.977,157.21l-4.652,9.181a26.864,26.864,0,0,0-2.009,4.725c-.865,3.081-.609,6.429-1.79,9.388.572-1.425,4.566-3.178,5.711-4.42,2.63-2.849.244-2.021-.146-4.944-.231-1.7,1.717-4.542,2.167-6.3a24.087,24.087,0,0,0,.718-7.635Z" transform="translate(-240.15 -40.058)" fill="url(#linear-gradient-13)"/>
    <path id="Path_4607" data-name="Path 4607" d="M314.425,68.9V91.657L305.39,71.808Z" transform="translate(-235.203 -42.073)" fill="#00bcff"/>
    <rect id="Rectangle_2209" data-name="Rectangle 2209" width="79.55" height="36.36" rx="5.46" transform="translate(0.137 -0.083)" fill="#23d1fd"/>
    <g id="Group_4581" data-name="Group 4581" transform="translate(8 1)">
      <circle id="Ellipse_371" data-name="Ellipse 371" cx="2.5" cy="2.5" r="2.5" transform="translate(19.137 14.917)" fill="#fff"/>
      <circle id="Ellipse_372" data-name="Ellipse 372" cx="2.5" cy="2.5" r="2.5" transform="translate(29.137 14.917)" fill="#fff"/>
      <circle id="Ellipse_373" data-name="Ellipse 373" cx="2.5" cy="2.5" r="2.5" transform="translate(39.137 14.917)" fill="#fff"/>
    </g>
  </g>
</svg>
