<svg xmlns="http://www.w3.org/2000/svg" width="813.976" height="567.239" viewBox="0 0 813.976 567.239"><defs><style>.a,.d{fill:#3346d1;}.a,.b,.e{opacity:0.1;}.b{fill:none;stroke:#3346d1;stroke-miterlimit:10;stroke-width:3px;}.c{fill:#3f3d56;}</style></defs><g transform="translate(0.052)"><path class="a" d="M841.074,363.79A190.434,190.434,0,0,1,620.5,551.709H318.776a258.642,258.642,0,0,1-35.166,2.4c-114.626,0-211.7-75.2-244.54-178.961a256.3,256.3,0,0,1-11.921-77.5c0-141.643,114.825-256.46,256.46-256.46,114.072,0,210.731,74.459,244.042,177.469a189.568,189.568,0,0,1,123.137-45.19C755.867,173.47,841.074,258.677,841.074,363.79Z" transform="translate(-27.15 -41.19)"/><path class="a" d="M772.825,613.244a190.612,190.612,0,0,1-147.468,37.972H323.635a258.641,258.641,0,0,1-35.166,2.4c-114.626,0-211.7-75.2-244.54-178.961C68.489,422.164,131.6,384.81,205.6,384.81c72.107,0,133.878,35.478,159.709,85.868a214.416,214.416,0,0,1,38.5-3.46c74.736,0,138.368,38.114,162.394,91.438a210.015,210.015,0,0,1,61.387-9.029C688.541,549.627,742.113,574.974,772.825,613.244Z" transform="translate(-32.009 -140.697)"/><path class="a" d="M921.805,284.666a5.355,5.355,0,0,1-.966-2.984c0-6.472,13.2-11.722,29.482-11.722s29.482,5.25,29.482,11.722a5.558,5.558,0,0,1-1.222,3.332c18.13,2.018,30.349,5.811,30.349,10.166,0,6.472-27.038,11.722-60.385,11.722s-60.385-5.25-60.385-11.722C888.16,290.591,901.871,286.584,921.805,284.666Z" transform="translate(-276.484 -107.438)"/><path class="a" d="M775.26,110.749a4.425,4.425,0,0,1-.789-2.437c0-5.285,10.77-9.562,24.048-9.562s24.055,4.263,24.055,9.562a4.525,4.525,0,0,1-.987,2.714c14.784,1.655,24.751,4.746,24.751,8.3,0,5.278-22.023,9.562-49.26,9.562s-49.267-4.263-49.267-9.562C747.81,115.558,759,112.312,775.26,110.749Z" transform="translate(-235.841 -57.858)"/><path class="a" d="M320.292,171.189a5.321,5.321,0,0,1-1.591-2.7c-1.421-6.323,10.329-14.315,26.221-17.853s29.923-1.293,31.329,5.03a5.569,5.569,0,0,1-.462,3.517c18.13-1.968,30.882-.924,31.827,3.325,1.421,6.316-23.842,17.32-56.393,24.566s-60.08,8.014-61.487,1.691C288.735,184.268,301.274,177.405,320.292,171.189Z" transform="translate(-103.175 -72.399)"/><path class="b" d="M216.359,168.848c-1.655-.959-3.893-.043-5.03,1.5a12.022,12.022,0,0,0-1.741,5.42c-.632,4.2-1.094,9.022,1.741,12.191A39.644,39.644,0,0,0,178.65,161.58" transform="translate(-71.022 -76.053)"/><path class="b" d="M424.885,263.146a2.652,2.652,0,0,0-3.232.966,7.7,7.7,0,0,0-1.122,3.481c-.4,2.707-.71,5.8,1.122,7.815A25.475,25.475,0,0,0,400.66,258.45" transform="translate(-135.312 -104.105)"/><path class="b" d="M755.385,203.869a2.661,2.661,0,0,0-3.232.966,7.692,7.692,0,0,0-1.123,3.488c-.4,2.7-.71,5.8,1.123,7.815A25.49,25.49,0,0,0,731.16,199.18" transform="translate(-231.019 -86.941)"/><path class="c" d="M226.132,804.622a32.467,32.467,0,0,1-.7,6.809c-.088.421-.184.877-.281,1.237-2.492,9.994-9.52,17.3-17.909,17.768h-.877c-8.871,0-16.373-7.651-18.848-18.19-.07-.281-.132-.562-.193-.878a32.467,32.467,0,0,1-.7-6.809c0-14.276,8.836-25.841,19.743-25.841S226.132,790.372,226.132,804.622Z" transform="translate(-139.315 -264.611)"/><path class="d" d="M261.643,745.256a39.959,39.959,0,0,0-4.3-18.084l-23.217,7.221,20.383-11.986a40.126,40.126,0,0,0-30.149-17.181,40.061,40.061,0,0,0-3.133-4.141l-33.343,10.38,27.35-16.084a40.126,40.126,0,0,0-63.176,21.4L180.62,749.66l-30.983-22.41a40.135,40.135,0,0,0,35.914,70.81,40.292,40.292,0,0,0,25.692.711,40.17,40.17,0,0,0,48.8-39.187c0-.878,0-1.755-.088-2.633A40.039,40.039,0,0,0,261.643,745.256Z" transform="translate(-132.709 -253.382)"/><path class="e" d="M260.942,760.573a106.962,106.962,0,0,0-37.151-.474c-13.943,2.308-28.192,7.379-41.828,3.677-8-2.176-14.917-7.213-22.735-10.012a43.153,43.153,0,0,0-23.472-1.4A40.152,40.152,0,0,0,185.5,805.937a40.291,40.291,0,0,0,25.692.711,40.17,40.17,0,0,0,48.8-39.187c0-.878,0-1.755-.088-2.632A39.66,39.66,0,0,0,260.942,760.573Z" transform="translate(-132.701 -261.258)"/><path class="d" d="M1022.116,748.436l35.349-20.8a85.254,85.254,0,0,0-18.073-21.67l-66.685,20.8,52.252-30.72A84.949,84.949,0,0,0,899.2,770.592c0,46.913,38.036,48.542,84.949,48.542s84.949-1.63,84.949-48.542a84.648,84.648,0,0,0-7.29-34.465Z" transform="translate(-255.337 -251.895)"/><path class="e" d="M1031.064,802.4c-3.606-3.909-8.088-6.935-12.526-9.838-6.423-4.256-13.063-8.608-20.622-10.055-6.648-1.274-13.505-.2-20.258-.589A47.346,47.346,0,0,1,946.617,767.7c-4.828-4.993-8.625-11.122-14.433-14.935-6.258-4.109-14.2-4.993-21.619-3.97a57.269,57.269,0,0,0-6.4,1.309,84.711,84.711,0,0,0-5.019,28.822c0,46.913,38.036,48.542,84.949,48.542,22.763,0,43.437-.381,58.693-6.137l-2.548-4.767C1037.591,811.583,1034.886,806.555,1031.064,802.4Z" transform="translate(-255.331 -260.259)"/></g></svg>