<svg xmlns="http://www.w3.org/2000/svg" width="849.817" height="144.033" viewBox="0 0 849.817 144.033">
  <g id="clouds" transform="translate(-1115 -193.967)">
    <path id="Path_4423" data-name="Path 4423" d="M831.938,229.084a39.053,39.053,0,0,1,39-37.011c1.187,0,2.359.062,3.519.166a51.886,51.886,0,0,1,89.692-.042c.979-.073,1.964-.123,2.961-.123a39.052,39.052,0,0,1,39,37.011" transform="translate(753.076 28.39)" fill="#e8e9fa"/>
    <path id="Path_4427" data-name="Path 4427" d="M84.962,192.852a52.84,52.84,0,0,1,52.767-50.079c1.606,0,3.192.084,4.761.224a70.2,70.2,0,0,1,121.358-.057c1.324-.1,2.657-.167,4.006-.167a52.84,52.84,0,0,1,52.767,50.078" transform="translate(1030.038 90.167)" fill="#e8e9fa"/>
    <path id="Path_3691" data-name="Path 3691" d="M1328.446,348.551c-12.616-6.876-18.357-1.135-22.941-6.876s12.616-20.649-21.869-35.578c0,0-2.292-32.13-49.265-33.265s-34.422,32.13-47.123,40.162-16.065-4.605-28.681,3.427-6.9,24.1-17.136,26.41-24.1-10.346-36.713-2.313-12.637,14.994-18.378,14.994-17.136-4.584-24.1,0-14.994,10.324-14.994,10.324h290.386S1341.083,355.448,1328.446,348.551Z" transform="translate(626.752 -78.837)" fill="#e8e9fa"/>
    <path id="Path_4647" data-name="Path 4647" d="M1201.5,314.355c-6.921-3.772-10.07-.623-12.584-3.772s6.921-11.327-12-19.516c0,0-1.257-17.625-27.024-18.247s-18.882,17.625-25.849,22.031-8.812-2.526-15.733,1.88-3.783,13.218-9.4,14.487-13.219-5.675-20.139-1.269-6.932,8.225-10.081,8.225-9.4-2.514-13.218,0-8.225,5.663-8.225,5.663h159.29S1208.43,318.138,1201.5,314.355Z" transform="translate(270.042 14.163)" fill="#e8e9fa"/>
  </g>
</svg>
