<svg xmlns="http://www.w3.org/2000/svg" xmlns:xlink="http://www.w3.org/1999/xlink" width="195.234" height="114.402" viewBox="0 0 195.234 114.402">
  <defs>
    <linearGradient id="linear-gradient" y1="0.5" x2="1" y2="0.5" gradientUnits="objectBoundingBox">
      <stop offset="0" stop-color="#e9e9e9"/>
      <stop offset="0.1" stop-color="#e2e2e2"/>
      <stop offset="0.25" stop-color="#d0d0d0"/>
      <stop offset="0.41" stop-color="#b1b1b1"/>
      <stop offset="0.5" stop-color="#9e9e9e"/>
      <stop offset="0.68" stop-color="#bebebe"/>
      <stop offset="0.89" stop-color="#ddd"/>
      <stop offset="1" stop-color="#e9e9e9"/>
    </linearGradient>
    <clipPath id="clip-path">
      <path id="Path_3786" data-name="Path 3786" d="M157.213,97.918a3.491,3.491,0,0,0-1.185-2.516c-1.818-1.831-5.269-2.964-9.023-2.964a8.707,8.707,0,0,1-6.309-2.7c-5.005-5.269-13.989-14.937-17.769-19.4l-.079-.092c-1.541-1.831-3.016-3.556-4.294-5.137a15.358,15.358,0,0,1-3.464-9.826c0-5.664,3.728-10.643,9.879-13.33,3.754-1.646,13.593-4.2,17.65-5.269a13.172,13.172,0,0,1,3.135-.356h1.554a15.213,15.213,0,0,0,7.482-1.778c1.8-1.041,2.792-2.345,2.806-3.7a3.57,3.57,0,0,0-1.185-2.516c-1.818-1.831-5.269-2.951-9.023-2.951a15.411,15.411,0,0,0-7.495,1.765C138.1,28.186,137.1,29.5,137.1,30.86a.646.646,0,0,0,0,.158v.632c0,.25-.474,2.5-4.413,3.714h0c-5.163.948-14.384,2.634-18.335,3.188l-1,.145a214.456,214.456,0,0,1-23.024,2.424h0A214.274,214.274,0,0,1,67.314,38.7L66.3,38.553c-3.952-.54-13.172-2.239-18.322-3.188h0c-3.952-1.212-4.373-3.464-4.413-3.714v-.79c0-1.317-1-2.634-2.806-3.714a15.359,15.359,0,0,0-7.482-1.765c-3.754,0-7.218,1.12-9.023,2.951a3.464,3.464,0,0,0-1.185,2.516c0,1.317,1,2.634,2.792,3.7a15.253,15.253,0,0,0,7.482,1.778H34.9a13.316,13.316,0,0,1,3.148.356c4.057,1.027,13.9,3.583,17.65,5.269,6.138,2.634,9.826,7.666,9.866,13.33a15.345,15.345,0,0,1-3.451,9.826c-1.317,1.581-2.753,3.306-4.307,5.137l-.079.092c-3.78,4.465-12.75,14.068-17.769,19.4a8.654,8.654,0,0,1-6.441,2.7c-3.794,0-7.258,1.133-9.075,2.964a3.543,3.543,0,0,0-1.185,2.516c0,1.317,1,2.634,2.792,3.7a15.253,15.253,0,0,0,7.468,1.778c3.767,0,7.231-1.133,9.049-2.964a3.57,3.57,0,0,0,1.185-2.516,6.586,6.586,0,0,1,2.121-5.15L58.542,81.519a47.682,47.682,0,0,1,63.489,0l12.632,11.275a6.586,6.586,0,0,1,2.121,5.137,3.57,3.57,0,0,0,1.185,2.529c1.818,1.831,5.269,2.964,9.023,2.964a15.227,15.227,0,0,0,7.495-1.778C156.212,100.579,157.213,99.275,157.213,97.918Z" transform="translate(-23.07 -25.377)" fill="#3346d1"/>
    </clipPath>
    <linearGradient id="linear-gradient-2" x1="-22.187" y1="0.498" x2="-21.184" y2="0.498" gradientUnits="objectBoundingBox">
      <stop offset="0" stop-color="#cacaca"/>
      <stop offset="0.5" stop-color="#cacaca"/>
      <stop offset="0.7" stop-color="#cdcdcd"/>
      <stop offset="0.85" stop-color="#d7d7d7"/>
      <stop offset="1" stop-color="#e9e9e9"/>
    </linearGradient>
    <linearGradient id="linear-gradient-3" x1="-20.265" y1="0.505" x2="-19.262" y2="0.505" xlink:href="#linear-gradient-2"/>
    <linearGradient id="linear-gradient-4" x1="-32.276" y1="0.498" x2="-31.275" y2="0.498" gradientUnits="objectBoundingBox">
      <stop offset="0" stop-color="#76a3fb"/>
      <stop offset="0.07" stop-color="#6c98ed"/>
      <stop offset="0.25" stop-color="#547dce"/>
      <stop offset="0.4" stop-color="#466dbb"/>
      <stop offset="0.5" stop-color="#4167b4"/>
      <stop offset="0.61" stop-color="#476ebc"/>
      <stop offset="0.77" stop-color="#5780d2"/>
      <stop offset="0.97" stop-color="#729ef5"/>
      <stop offset="1" stop-color="#76a3fb"/>
    </linearGradient>
    <linearGradient id="linear-gradient-5" x1="-32.475" y1="0.499" x2="-31.47" y2="0.499" gradientUnits="objectBoundingBox">
      <stop offset="0" stop-color="#cacaca"/>
      <stop offset="0.29" stop-color="#dbdbdb"/>
      <stop offset="0.63" stop-color="#e5e5e5"/>
      <stop offset="1" stop-color="#e9e9e9"/>
    </linearGradient>
    <linearGradient id="linear-gradient-6" x1="-38.226" y1="0.5" x2="-37.204" y2="0.5" xlink:href="#linear-gradient-2"/>
    <linearGradient id="linear-gradient-7" x1="-20.281" y1="0.496" x2="-19.28" y2="0.496" xlink:href="#linear-gradient-2"/>
    <linearGradient id="linear-gradient-8" x1="-54.481" y1="0.486" x2="-53.481" y2="0.486" xlink:href="#linear-gradient-4"/>
    <linearGradient id="linear-gradient-9" x1="-54.778" y1="0.5" x2="-53.774" y2="0.5" xlink:href="#linear-gradient-5"/>
    <linearGradient id="linear-gradient-10" x1="-0.023" y1="0.498" x2="0.98" y2="0.498" xlink:href="#linear-gradient-2"/>
    <linearGradient id="linear-gradient-11" x1="-101.569" y1="0.5" x2="-100.569" y2="0.5" xlink:href="#linear-gradient-2"/>
    <linearGradient id="linear-gradient-12" x1="-0.002" y1="0.498" x2="1" y2="0.498" xlink:href="#linear-gradient-4"/>
    <linearGradient id="linear-gradient-13" x1="-0.007" y1="0.499" x2="1.003" y2="0.499" xlink:href="#linear-gradient-5"/>
    <linearGradient id="linear-gradient-14" x1="-0.013" y1="0.494" x2="0.99" y2="0.494" xlink:href="#linear-gradient-2"/>
    <linearGradient id="linear-gradient-15" x1="-75.933" y1="0.501" x2="-74.821" y2="0.501" xlink:href="#linear-gradient-2"/>
    <linearGradient id="linear-gradient-16" x1="-0.001" y1="0.504" x2="1" y2="0.504" xlink:href="#linear-gradient-4"/>
    <linearGradient id="linear-gradient-17" x1="-0.003" y1="0.499" x2="1" y2="0.499" xlink:href="#linear-gradient-5"/>
    <linearGradient id="linear-gradient-18" x1="-0.003" y1="0.5" x2="1" y2="0.5" gradientUnits="objectBoundingBox">
      <stop offset="0" stop-color="#233a6a"/>
      <stop offset="0.29" stop-color="#233a6a"/>
      <stop offset="0.37" stop-color="#243b6d"/>
      <stop offset="0.43" stop-color="#264076"/>
      <stop offset="0.48" stop-color="#2a4886"/>
      <stop offset="0.52" stop-color="#30529d"/>
      <stop offset="0.57" stop-color="#3860ba"/>
      <stop offset="0.61" stop-color="#4171dd"/>
      <stop offset="0.64" stop-color="#487ffa"/>
      <stop offset="1" stop-color="#4167b4"/>
    </linearGradient>
  </defs>
  <g id="Droneldpi" transform="translate(-117.224 -89.678)">
    <g id="Layer_2" data-name="Layer 2" transform="translate(117.224 89.678)">
      <g id="Character_1" data-name="Character 1">
        <path id="Path_3730" data-name="Path 3730" d="M89.64,78.87l1.541.9a7.64,7.64,0,0,0,3.451-5.98l-1.541-.9A7.6,7.6,0,0,1,89.64,78.87Z" transform="translate(28.433 23.12)" fill="#cacaca"/>
        <path id="Path_3731" data-name="Path 3731" d="M92.22,57.09,92.273,77.9l1.541.9-.053-20.812Z" transform="translate(29.251 18.108)" fill="#cacaca"/>
        <path id="Path_3732" data-name="Path 3732" d="M93.853,58.354a3.283,3.283,0,0,0-.079-.751,1.671,1.671,0,0,0-.079-.237,1.964,1.964,0,0,0-.119-.4c0-.079-.092-.132-.132-.2a1.594,1.594,0,0,0-.2-.29.83.83,0,0,0-.171-.145,1.739,1.739,0,0,0-1.146-.408,2.911,2.911,0,0,1,.382,1.528Z" transform="translate(29.159 17.74)" fill="#cacaca"/>
        <path id="Path_3733" data-name="Path 3733" d="M91.977,55.55a1.7,1.7,0,0,1,.277,0,3.559,3.559,0,0,1,.514-.105,2.332,2.332,0,0,1,.3,0h.421l.277.105a1.95,1.95,0,0,1,.356.132h0L92.583,54.8a2.951,2.951,0,0,0-3,.277l1.541.9a4.887,4.887,0,0,1,.856-.422Z" transform="translate(28.414 17.291)" fill="#cacaca"/>
        <path id="Path_3734" data-name="Path 3734" d="M81,82.2a1.91,1.91,0,0,0,.645.685l.29.105a1.517,1.517,0,0,0,.224.079,2.782,2.782,0,0,0,.342,0,1.584,1.584,0,0,0,.25,0,2.854,2.854,0,0,0,.435-.092H83.4a3.346,3.346,0,0,0,.7-.329l-1.528-.9A3.109,3.109,0,0,1,81,82.2Z" transform="translate(25.692 25.93)" fill="#cacaca"/>
        <path id="Path_3735" data-name="Path 3735" d="M98.409,58.142a2.951,2.951,0,0,0-1.317-2.713,1.95,1.95,0,0,0-.356-.132l-.277-.105h-.421a2.329,2.329,0,0,0-.3,0,3.555,3.555,0,0,0-.514.105,1.7,1.7,0,0,0-.277,0,4.887,4.887,0,0,0-.856.382l-9.774,5.73a9.312,9.312,0,0,0-4.215,7.31v20.8a4.1,4.1,0,0,0,.092.935,1.7,1.7,0,0,0,.079.277,2.635,2.635,0,0,0,.171.487,1.6,1.6,0,0,0,.158.25,2.015,2.015,0,0,0,.224.356l.224.184a2.806,2.806,0,0,0,3.306,0l9.8-5.69a9.339,9.339,0,0,0,4.255-7.363Zm-4.2,27.239-9.813,5.677a3.347,3.347,0,0,1-.7.329h-.211a2.861,2.861,0,0,1-.435.092,1.581,1.581,0,0,1-.25,0,2.776,2.776,0,0,1-.342,0,1.519,1.519,0,0,1-.224-.079l-.29-.105a1.91,1.91,0,0,1-.645-.685,3.135,3.135,0,0,1-.369-1.541V68.258a7.64,7.64,0,0,1,3.451-5.98L94.194,56.6a2.911,2.911,0,0,1,1.554-.448,1.739,1.739,0,0,1,1.146.408.83.83,0,0,1,.171.145,28.538,28.538,0,0,1,.329.487,1.964,1.964,0,0,1,.119.4,1.68,1.68,0,0,1,.079.237,3.281,3.281,0,0,1,.079.751V79.388a7.64,7.64,0,0,1-3.464,5.993Z" transform="translate(25.407 17.505)" fill="#e9e9e9"/>
        <path id="Path_3736" data-name="Path 3736" d="M82.2,83.107l1.528.9,9.813-5.677L92,77.43Z" transform="translate(26.073 24.56)" fill="#cacaca"/>
        <path id="Path_3737" data-name="Path 3737" d="M81.005,83.412a1.607,1.607,0,0,1-.158-.25,2.635,2.635,0,0,1-.171-.487A1.7,1.7,0,0,1,80.6,82.4a4.1,4.1,0,0,1-.092-.935L79,80.58a2.99,2.99,0,0,0,1.238,2.713l1.541.9a2.528,2.528,0,0,1-.29-.237l-.263-.184A2.014,2.014,0,0,1,81.005,83.412Z" transform="translate(25.055 25.559)" fill="#cacaca"/>
        <path id="Path_3738" data-name="Path 3738" d="M80.458,65.676l-1.528-.9.053,20.812,1.541.883Z" transform="translate(25.036 20.548)" fill="#cacaca"/>
        <path id="Path_3739" data-name="Path 3739" d="M93.484,55.806l-1.541-.9L82.13,60.6l1.541.9Z" transform="translate(26.051 17.417)" fill="#cacaca"/>
        <path id="Path_3740" data-name="Path 3740" d="M84.686,60.126l-1.541-.9a9.313,9.313,0,0,0-4.215,7.31l1.541.9a9.313,9.313,0,0,1,4.215-7.31Z" transform="translate(25.036 18.787)" fill="#cacaca"/>
        <path id="Path_3741" data-name="Path 3741" d="M67.77,66.3l1.528.9a7.666,7.666,0,0,0,3.464-5.98l-1.541-.883A7.653,7.653,0,0,1,67.77,66.3Z" transform="translate(21.496 19.136)" fill="#cacaca"/>
        <path id="Path_3742" data-name="Path 3742" d="M70.34,44.52l.066,20.812,1.541.883-.066-20.8Z" transform="translate(22.311 14.121)" fill="#cacaca"/>
        <path id="Path_3743" data-name="Path 3743" d="M71.97,45.787a4.313,4.313,0,0,0-.066-.751l-.079-.237a3.473,3.473,0,0,0-.132-.4c0-.079-.092-.132-.132-.2a1.554,1.554,0,0,0-.184-.29,1.065,1.065,0,0,0-.184-.158,1.712,1.712,0,0,0-1.133-.408,3.1,3.1,0,0,1,.369,1.541Z" transform="translate(22.222 13.75)" fill="#cacaca"/>
        <path id="Path_3744" data-name="Path 3744" d="M70.094,42.977h.277a2.635,2.635,0,0,1,.514-.119,2.434,2.434,0,0,1,.316,0,2.056,2.056,0,0,1,.408,0,1,1,0,0,1,.277.105,1.647,1.647,0,0,1,.356.132h0l-1.515-.909a3,3,0,0,0-3.016.29l1.541.9A5.465,5.465,0,0,1,70.094,42.977Z" transform="translate(21.477 13.293)" fill="#cacaca"/>
        <path id="Path_3745" data-name="Path 3745" d="M59.14,69.611a1.765,1.765,0,0,0,.632.685,12.695,12.695,0,0,1,.527.2h.58a2.554,2.554,0,0,0,.435-.092h.224a4.6,4.6,0,0,0,.7-.316l-1.541-.9A3.069,3.069,0,0,1,59.14,69.611Z" transform="translate(18.759 21.946)" fill="#cacaca"/>
        <path id="Path_3746" data-name="Path 3746" d="M76.5,45.573a2.977,2.977,0,0,0-1.251-2.713,1.647,1.647,0,0,0-.356-.132,1,1,0,0,0-.277-.105,2.056,2.056,0,0,0-.408,0,2.435,2.435,0,0,0-.316,0,2.633,2.633,0,0,0-.514.119H73.1a5.468,5.468,0,0,0-.856.4l-9.813,5.677a9.339,9.339,0,0,0-4.215,7.324l.066,20.8a5.166,5.166,0,0,0,.079.935c0,.092.066.171.092.263a4.482,4.482,0,0,0,.158.5,2.635,2.635,0,0,0,.158.25,2.24,2.24,0,0,0,.237.342.987.987,0,0,0,.224.184,2.74,2.74,0,0,0,3.293,0l9.813-5.677a9.312,9.312,0,0,0,4.215-7.31ZM72.327,72.812l-9.8,5.677a4.6,4.6,0,0,1-.7.316h-.224a2.555,2.555,0,0,1-.435.092h-.606a12.695,12.695,0,0,0-.527-.2,1.765,1.765,0,0,1-.632-.685,2.964,2.964,0,0,1-.382-1.541v-20.8a7.6,7.6,0,0,1,3.425-5.967l9.8-5.677a3.109,3.109,0,0,1,1.567-.461,1.712,1.712,0,0,1,1.133.408,1.067,1.067,0,0,1,.184.158,1.553,1.553,0,0,1,.184.29,1.586,1.586,0,0,1,.132.2,3.479,3.479,0,0,1,.132.4l.079.237a4.307,4.307,0,0,1,.066.751v20.8a7.666,7.666,0,0,1-3.4,6.006Z" transform="translate(18.467 13.516)" fill="#e9e9e9"/>
        <path id="Path_3747" data-name="Path 3747" d="M60.32,70.537l1.541.9,9.8-5.69-1.528-.882Z" transform="translate(19.133 20.573)" fill="#cacaca"/>
        <path id="Path_3748" data-name="Path 3748" d="M59.133,70.845a2.631,2.631,0,0,1-.158-.25,4.474,4.474,0,0,1-.158-.5.313.313,0,0,0-.092-.263,5.164,5.164,0,0,1-.079-.935L57.1,68a2.977,2.977,0,0,0,1.185,2.727l1.528.883a1.554,1.554,0,0,1-.277-.237.988.988,0,0,1-.224-.184A2.235,2.235,0,0,1,59.133,70.845Z" transform="translate(18.107 21.569)" fill="#cacaca"/>
        <path id="Path_3749" data-name="Path 3749" d="M58.591,53.106l-1.541-.9.066,20.8,1.541.9Z" transform="translate(18.096 16.56)" fill="#cacaca"/>
        <path id="Path_3750" data-name="Path 3750" d="M71.6,43.236l-1.541-.9-9.8,5.69,1.528.883Z" transform="translate(19.114 13.43)" fill="#cacaca"/>
        <path id="Path_3751" data-name="Path 3751" d="M62.806,47.543l-1.528-.883a9.3,9.3,0,0,0-4.228,7.31l1.541.9A9.339,9.339,0,0,1,62.806,47.543Z" transform="translate(18.096 14.8)" fill="#cacaca"/>
        <path id="Path_3752" data-name="Path 3752" d="M124.034,52.252c4.413-3.543,18.7-11.407,18.7-11.407a7.9,7.9,0,0,1,4.86-1.673h0a16.188,16.188,0,0,0,8.022-1.936c2.068-1.185,3.346-2.819,3.359-4.637V30.716l-.422.105c-1.317-2.766-5.677-4.808-10.88-4.808a16.386,16.386,0,0,0-8.035,1.923c-2.055,1.2-3.332,2.832-3.346,4.65a3.726,3.726,0,0,0,0,.382v.263a.692.692,0,0,0,.079.369c.079.132,0,.158,0,.237l.158.4a.265.265,0,0,0,.092.2,4.876,4.876,0,0,0,.329.566l-.777.382L113.825,48.393a54.545,54.545,0,0,1-23.288,4.887A54.505,54.505,0,0,1,67.25,48.393L44.739,35.379,43.962,35a4.981,4.981,0,0,0,.408-.566l.079-.2c0-.132.119-.263.158-.4s0-.158,0-.237a.61.61,0,0,1,.092-.369,1.857,1.857,0,0,0,0-.263,3.75,3.75,0,0,0,0-.382c0-1.818-1.317-3.451-3.346-4.65A16.425,16.425,0,0,0,33.371,26c-5.2,0-9.576,2.042-10.893,4.808L22.07,30.7v1.884c0,1.818,1.317,3.451,3.346,4.637a16.228,16.228,0,0,0,8.022,1.949h0a7.9,7.9,0,0,1,4.86,1.686s14.292,7.9,18.691,11.407c5.269,4.228,8.3,7.9,8.325,12.9a24.935,24.935,0,0,1-4.189,12.21,23.709,23.709,0,0,1-4.9,4.465L36.8,93.269a19.006,19.006,0,0,0-3.056-.25c-5.177,0-9.536,2.015-10.867,4.768l-.408-.092v1.884a5.743,5.743,0,0,0,3.346,4.65,16.241,16.241,0,0,0,8.022,1.923c6.27,0,11.328-2.937,11.3-6.586h0a3.319,3.319,0,0,1,2.042-3.214S60.4,87.289,65.445,85.129c7.64-3.28,16.32-3.214,25.119-3.28s17.479,0,25.106,3.28c4.992,2.16,18.269,11.222,18.269,11.222a3.319,3.319,0,0,1,2.028,3.214h0c0,3.635,5.045,6.586,11.3,6.586a16.241,16.241,0,0,0,8.035-1.923,5.717,5.717,0,0,0,3.346-4.65,1.807,1.807,0,0,0,0-.25V97.7l-.4.092c-1.317-2.753-5.69-4.768-10.88-4.768a19.138,19.138,0,0,0-3.056.25L124.929,81.836a23.037,23.037,0,0,1-4.979-4.465,24.947,24.947,0,0,1-4.241-12.2C115.735,60.247,118.778,56.48,124.034,52.252Z" transform="translate(7 8.247)" fill="url(#linear-gradient)"/>
        <path id="Path_3753" data-name="Path 3753" d="M157.213,97.918a3.491,3.491,0,0,0-1.185-2.516c-1.818-1.831-5.269-2.964-9.023-2.964a8.707,8.707,0,0,1-6.309-2.7c-5.005-5.269-13.989-14.937-17.769-19.4l-.079-.092c-1.541-1.831-3.016-3.556-4.294-5.137a15.358,15.358,0,0,1-3.464-9.826c0-5.664,3.728-10.643,9.879-13.33,3.754-1.646,13.593-4.2,17.65-5.269a13.172,13.172,0,0,1,3.135-.356h1.554a15.213,15.213,0,0,0,7.482-1.778c1.8-1.041,2.792-2.345,2.806-3.7a3.57,3.57,0,0,0-1.185-2.516c-1.818-1.831-5.269-2.951-9.023-2.951a15.411,15.411,0,0,0-7.495,1.765C138.1,28.186,137.1,29.5,137.1,30.86a.646.646,0,0,0,0,.158v.632c0,.25-.474,2.5-4.413,3.714h0c-5.163.948-14.384,2.634-18.335,3.188l-1,.145a214.456,214.456,0,0,1-23.024,2.424h0A214.274,214.274,0,0,1,67.314,38.7L66.3,38.553c-3.952-.54-13.172-2.239-18.322-3.188h0c-3.952-1.212-4.373-3.464-4.413-3.714v-.79c0-1.317-1-2.634-2.806-3.714a15.359,15.359,0,0,0-7.482-1.765c-3.754,0-7.218,1.12-9.023,2.951a3.464,3.464,0,0,0-1.185,2.516c0,1.317,1,2.634,2.792,3.7a15.253,15.253,0,0,0,7.482,1.778H34.9a13.316,13.316,0,0,1,3.148.356c4.057,1.027,13.9,3.583,17.65,5.269,6.138,2.634,9.826,7.666,9.866,13.33a15.345,15.345,0,0,1-3.451,9.826c-1.317,1.581-2.753,3.306-4.307,5.137l-.079.092c-3.78,4.465-12.75,14.068-17.769,19.4a8.654,8.654,0,0,1-6.441,2.7c-3.794,0-7.258,1.133-9.075,2.964a3.543,3.543,0,0,0-1.185,2.516c0,1.317,1,2.634,2.792,3.7a15.253,15.253,0,0,0,7.468,1.778c3.767,0,7.231-1.133,9.049-2.964a3.57,3.57,0,0,0,1.185-2.516,6.586,6.586,0,0,1,2.121-5.15L58.542,81.519a47.682,47.682,0,0,1,63.489,0l12.632,11.275a6.586,6.586,0,0,1,2.121,5.137,3.57,3.57,0,0,0,1.185,2.529c1.818,1.831,5.269,2.964,9.023,2.964a15.227,15.227,0,0,0,7.495-1.778C156.212,100.579,157.213,99.275,157.213,97.918Z" transform="translate(7.318 8.049)" fill="#3346d1"/>
        <g id="Group_4509" data-name="Group 4509" transform="translate(30.388 33.427)" clip-path="url(#clip-path)">
          <path id="Path_3754" data-name="Path 3754" d="M164.062,30.276h0C126.8,8.766,66.59,8.753,29.525,30.276s-36.881,56.415.435,77.938h0c37.29,21.523,97.472,21.51,134.551,0S201.286,51.8,164.062,30.276Z" transform="translate(-29.801 -28.942)" fill="#3346d1"/>
          <path id="Path_3755" data-name="Path 3755" d="M161.195,30.815h0c-36.038-20.838-94.456-20.851-130.336,0s-35.669,54.65.422,75.5h0c36.117,20.838,94.482,20.838,130.4,0S197.312,51.666,161.195,30.815Z" transform="translate(-29.094 -28.611)" fill="#3346d1" opacity="0.97"/>
          <path id="Path_3756" data-name="Path 3756" d="M158.388,31.353h0c-34.932-20.166-91.413-20.179-126.147,0s-34.51,52.885.422,73.051h0c34.945,20.179,91.413,20.179,126.121,0S193.333,51.493,158.388,31.353Z" transform="translate(-28.381 -28.281)" fill="#3346d1" opacity="0.94"/>
          <path id="Path_3757" data-name="Path 3757" d="M155.573,31.892h0C121.8,12.4,67.215,12.384,33.653,31.892s-33.378,51.12.382,70.641h0c33.8,19.481,88.37,19.468,121.932,0S189.358,51.4,155.573,31.892Z" transform="translate(-27.66 -27.95)" fill="#3346d1" opacity="0.9"/>
          <path id="Path_3758" data-name="Path 3758" d="M152.761,32.394h0c-32.614-18.783-85.314-18.8-117.717,0s-32.218,49.395.382,68.217h0c32.614,18.823,85.328,18.823,117.717,0S185.375,51.256,152.761,32.394Z" transform="translate(-26.943 -27.622)" fill="#3346d1" opacity="0.87"/>
          <path id="Path_3759" data-name="Path 3759" d="M149.949,32.957h0c-31.441-18.138-82.259-18.151-113.5,0S5.374,80.56,36.8,98.711h0c31.454,18.151,82.272,18.138,113.5,0S181.39,51.121,149.949,32.957Z" transform="translate(-26.225 -27.29)" fill="#3346d1" opacity="0.84"/>
          <path id="Path_3760" data-name="Path 3760" d="M147.137,33.5h0c-30.3-17.479-79.2-17.479-109.327,0s-29.9,45.825.356,63.3h0c30.3,17.479,79.216,17.479,109.327,0S177.419,50.989,147.137,33.5Z" transform="translate(-25.52 -26.96)" fill="#3346d1" opacity="0.81"/>
          <path id="Path_3761" data-name="Path 3761" d="M144.329,34.036h0c-29.11-16.807-76.147-16.807-105.125,0S10.437,78.1,39.547,94.9h0c29.163,16.847,76.213,16.847,105.125,0S173.439,50.843,144.329,34.036Z" transform="translate(-24.808 -26.629)" fill="#3346d1" opacity="0.77"/>
          <path id="Path_3762" data-name="Path 3762" d="M141.506,34.574h0c-27.938-16.136-73.1-16.136-100.87,0S12.974,76.869,40.965,93h0c27.951,16.136,73.117,16.122,100.87,0S169.457,50.71,141.506,34.574Z" transform="translate(-24.078 -26.299)" fill="#3346d1" opacity="0.74"/>
          <path id="Path_3763" data-name="Path 3763" d="M138.681,35.113h0c-26.765-15.464-70.048-15.464-96.669,0s-26.449,40.53.316,55.981h0c26.778,15.464,70.061,15.464,96.655,0S165.526,50.577,138.681,35.113Z" transform="translate(-23.362 -25.968)" fill="#3346d1" opacity="0.71"/>
          <path id="Path_3764" data-name="Path 3764" d="M135.828,35.676h0c-25.567-14.818-66.966-14.818-92.414,0s-25.3,38.765.29,53.544h0c25.619,14.792,67.019,14.792,92.454,0S161.487,50.429,135.828,35.676Z" transform="translate(-22.642 -25.636)" fill="#3346d1" opacity="0.68"/>
          <path id="Path_3765" data-name="Path 3765" d="M133.058,36.178h0c-24.447-14.107-63.963-14.107-88.252,0s-24.157,37,.29,51.12h0c24.46,14.107,63.963,14.107,88.252,0S157.5,50.3,133.058,36.178Z" transform="translate(-21.927 -25.308)" fill="#3346d1" opacity="0.65"/>
          <path id="Path_3766" data-name="Path 3766" d="M130.245,36.716h0c-23.275-13.435-60.894-13.435-84.037,0s-23,35.235.277,48.736h0c23.288,13.435,60.92,13.435,84.037,0S153.52,50.165,130.245,36.716Z" transform="translate(-21.208 -24.977)" fill="#3346d1" opacity="0.61"/>
          <path id="Path_3767" data-name="Path 3767" d="M127.422,37.305h0c-22.1-12.764-57.851-12.764-79.822,0s-21.852,33.47.25,46.233h0c22.116,12.777,57.851,12.764,79.822,0S149.55,50.016,127.422,37.305Z" transform="translate(-20.492 -24.63)" fill="#3346d1" opacity="0.58"/>
          <path id="Path_3768" data-name="Path 3768" d="M124.61,37.8h0c-20.943-12.092-54.808-12.1-75.62,0s-20.693,31.7.25,43.8h0c20.957,12.092,54.808,12.092,75.62,0S145.567,49.887,124.61,37.8Z" transform="translate(-19.775 -24.317)" fill="#3346d1" opacity="0.55"/>
          <path id="Path_3769" data-name="Path 3769" d="M121.8,38.334h0c-19.758-11.42-51.752-11.433-71.418,0s-19.56,29.94.2,41.36h0c19.758,11.42,51.766,11.42,71.4,0S141.589,49.754,121.8,38.334Z" transform="translate(-19.064 -23.986)" fill="#3346d1" opacity="0.52"/>
          <path id="Path_3770" data-name="Path 3770" d="M118.981,38.86h0c-18.612-10.735-48.736-10.748-67.177,0s-18.441,28.188.211,38.923h0c18.625,10.761,48.736,10.748,67.177,0S137.593,49.621,118.981,38.86Z" transform="translate(-18.334 -23.656)" fill="#3346d1" opacity="0.48"/>
          <path id="Path_3771" data-name="Path 3771" d="M116.162,39.4h0c-17.44-10.063-45.641-10.077-62.988,0s-17.2,26.41.211,36.486h0c17.453,10.077,45.654,10.077,62.988,0S133.614,49.475,116.162,39.4Z" transform="translate(-17.623 -23.325)" fill="#3346d1" opacity="0.45"/>
          <path id="Path_3772" data-name="Path 3772" d="M113.354,39.937h0c-16.28-9.392-42.6-9.4-58.786,0s-16.083,24.71.2,34.049h0c16.294,9.4,42.611,9.392,58.786,0S129.648,49.342,113.354,39.937Z" transform="translate(-16.91 -22.995)" fill="#3346d1" opacity="0.42"/>
          <path id="Path_3773" data-name="Path 3773" d="M110.544,40.476h0c-15.121-8.72-39.516-8.733-54.571,0s-14.937,22.88.171,31.613h0c15.121,8.72,39.516,8.72,54.571,0S125.666,49.209,110.544,40.476Z" transform="translate(-16.194 -22.664)" fill="#3346d1" opacity="0.39"/>
          <path id="Path_3774" data-name="Path 3774" d="M107.729,41.016h0c-13.949-8.061-36.486-8.061-50.356,0s-13.791,21.115.158,29.163h0c13.949,8.061,36.5,8.061,50.356,0S121.678,49.064,107.729,41.016Z" transform="translate(-15.473 -22.335)" fill="#3346d1" opacity="0.35"/>
          <path id="Path_3775" data-name="Path 3775" d="M104.891,41.555h0c-12.777-7.389-33.443-7.389-46.1,0S46.157,60.9,58.947,68.28h0c12.79,7.389,33.457,7.376,46.1,0S117.681,48.931,104.891,41.555Z" transform="translate(-14.742 -22.004)" fill="#3346d1" opacity="0.32"/>
          <path id="Path_3776" data-name="Path 3776" d="M102.095,42.081h0c-11.618-6.7-30.4-6.7-41.939,0s-11.486,17.584.132,24.3h0c11.618,6.7,30.4,6.7,41.939,0S113.712,48.838,102.095,42.081Z" transform="translate(-14.04 -21.674)" fill="#3346d1" opacity="0.29"/>
          <path id="Path_3777" data-name="Path 3777" d="M99.285,42.608h0c-10.458-5.967-27.345-5.967-37.737,0s-10.327,15.806.119,21.865h0c10.458,6.033,27.358,6.033,37.737,0S109.743,48.64,99.285,42.608Z" transform="translate(-13.325 -21.332)" fill="#3346d1" opacity="0.26"/>
          <path id="Path_3778" data-name="Path 3778" d="M96.479,43.158h0c-9.22-5.361-24.3-5.361-33.536,0s-9.22,14.054.119,19.415h0c9.286,5.361,24.289,5.361,33.522,0S105.765,48.519,96.479,43.158Z" transform="translate(-12.613 -21.013)" fill="#3346d1" opacity="0.23"/>
          <path id="Path_3779" data-name="Path 3779" d="M93.647,43.7h0c-8.088-4.689-21.259-4.689-29.307,0s-8.035,12.289.092,16.979h0c8.127,4.689,21.246,4.689,29.307,0S101.774,48.386,93.647,43.7Z" transform="translate(-11.889 -20.682)" fill="#3346d1" opacity="0.19"/>
          <path id="Path_3780" data-name="Path 3780" d="M90.839,44.224h0c-6.955-3.952-18.19-3.952-25.106,0s-6.876,10.538.079,14.489h0c6.955,4.017,18.2,3.952,25.106,0S97.793,48.241,90.839,44.224Z" transform="translate(-11.175 -20.34)" fill="#3346d1" opacity="0.16"/>
          <path id="Path_3781" data-name="Path 3781" d="M88.07,44.774h0c-5.8-3.346-15.148-3.346-20.9,0s-5.717,8.759,0,12.092h0c5.8,3.346,15.148,3.346,20.9,0S93.8,48.107,88.07,44.774Z" transform="translate(-10.448 -20.021)" fill="#3346d1" opacity="0.13"/>
          <path id="Path_3782" data-name="Path 3782" d="M85.217,45.3h0a18.441,18.441,0,0,0-16.689,0c-4.6,2.634-4.571,6.994,0,9.668h0a18.362,18.362,0,0,0,16.689,0C89.853,52.295,89.84,47.975,85.217,45.3Z" transform="translate(-9.742 -19.691)" fill="#3346d1" opacity="0.1"/>
          <path id="Path_3783" data-name="Path 3783" d="M82.392,45.839h0a13.778,13.778,0,0,0-12.474,0c-3.438,2-3.411,5.269,0,7.231h0a13.778,13.778,0,0,0,12.474,0C85.87,51.069,85.856,47.842,82.392,45.839Z" transform="translate(-9.025 -19.36)" fill="#3346d1" opacity="0.06"/>
          <path id="Path_3784" data-name="Path 3784" d="M79.581,46.376h0a9.22,9.22,0,0,0-8.272,0c-2.266,1.317-2.266,3.464,0,4.795h0a9.22,9.22,0,0,0,8.272,0C81.886,49.84,81.873,47.693,79.581,46.376Z" transform="translate(-8.308 -19.028)" fill="#3346d1" opacity="0.03"/>
          <path id="Path_3785" data-name="Path 3785" d="M76.769,46.917h0a4.492,4.492,0,0,0-4.057,0,1.238,1.238,0,0,0,0,2.345h0a4.452,4.452,0,0,0,4.057,0,1.238,1.238,0,0,0,0-2.345Z" transform="translate(-7.59 -18.699)" fill="#3346d1" opacity="0"/>
        </g>
        <path id="Path_3787" data-name="Path 3787" d="M147.334,91.622h0a7.561,7.561,0,0,1-5.48-2.358c-4.478-4.768-13.883-14.818-17.716-19.35-1.567-1.844-3.069-3.622-4.373-5.269a14.226,14.226,0,0,1-3.214-9.128c0-4.926,3.148-9.695,9.22-12.342,3.675-1.607,13.37-4.136,17.479-5.163a11.855,11.855,0,0,1,2.871-.342h1.554a16.333,16.333,0,0,0,8.022-1.923c2.068-1.185,3.346-2.832,3.359-4.65,0-3.622-5.045-6.586-11.3-6.586a16.241,16.241,0,0,0-8.035,1.923c-2.055,1.185-3.332,2.832-3.346,4.637a3.726,3.726,0,0,0,0,.382c0,.092,0,.184,0,.263s-.263,1.778-3.662,2.832c-5.124.962-14.344,2.634-18.269,3.188a224.354,224.354,0,0,1-23.907,2.555,223.663,223.663,0,0,1-23.894-2.437c-3.952-.54-13.172-2.226-18.283-3.188-3.4-1.054-3.649-2.832-3.649-2.832a1.671,1.671,0,0,0,0-.263,3.75,3.75,0,0,0,0-.382c0-1.8-1.317-3.451-3.346-4.637a16.28,16.28,0,0,0-8.035-1.923c-6.27,0-11.328,2.937-11.3,6.586a5.743,5.743,0,0,0,3.346,4.65A16.373,16.373,0,0,0,33.4,37.788h1.554a11.657,11.657,0,0,1,2.871.342c4.11,1.027,13.817,3.556,17.492,5.163,6.072,2.634,9.22,7.416,9.22,12.342a14.225,14.225,0,0,1-3.174,9.036c-1.317,1.594-2.806,3.372-4.36,5.269C53.168,74.472,43.83,84.522,39.272,89.29a7.534,7.534,0,0,1-5.427,2.331h0c-6.257,0-11.315,2.937-11.3,6.586a5.743,5.743,0,0,0,3.253,4.663,16.373,16.373,0,0,0,8.048,1.9h0c6.27,0,11.328-2.951,11.3-6.586h0a5.585,5.585,0,0,1,1.765-4.307L59.53,82.586A46.523,46.523,0,0,1,90.537,70.731h0A46.53,46.53,0,0,1,121.55,82.58l12.639,11.281a5.572,5.572,0,0,1,1.752,4.307h0c0,3.622,5.045,6.586,11.3,6.586h0a16.333,16.333,0,0,0,8.048-1.884,5.717,5.717,0,0,0,3.346-4.65C158.662,94.559,153.6,91.622,147.334,91.622Zm-9.1,9.089a3.57,3.57,0,0,1-1.185-2.529,6.586,6.586,0,0,0-2.121-5.137L122.294,81.8a47.682,47.682,0,0,0-63.423,0L46.24,93.071a6.586,6.586,0,0,0-2.121,5.15,3.569,3.569,0,0,1-1.185,2.516c-1.818,1.831-5.269,2.964-9.049,2.964a15.253,15.253,0,0,1-7.482-1.778c-1.791-1.041-2.779-2.345-2.792-3.7A3.543,3.543,0,0,1,24.8,95.705c1.818-1.831,5.269-2.964,9.075-2.964a8.654,8.654,0,0,0,6.257-2.7C45.147,84.772,54.117,75.1,57.9,70.639l.079-.092c1.554-1.831,3.016-3.556,4.307-5.137a15.345,15.345,0,0,0,3.451-9.826c0-5.664-3.728-10.643-9.866-13.33-3.754-1.646-13.593-4.2-17.65-5.269a13.317,13.317,0,0,0-3.148-.356H33.45a15.253,15.253,0,0,1-7.508-1.739c-1.791-1.041-2.792-2.345-2.792-3.7a3.464,3.464,0,0,1,1.185-2.516c1.8-1.831,5.269-2.951,9.023-2.951a15.358,15.358,0,0,1,7.482,1.765c1.8,1.041,2.792,2.358,2.806,3.714v.79c0,.25.461,2.5,4.413,3.714h0c5.15.948,14.384,2.634,18.322,3.188l1.014.145A214.263,214.263,0,0,0,90.484,41.5h0a214.462,214.462,0,0,0,23.024-2.424l1-.145c3.952-.54,13.172-2.239,18.335-3.188h0c3.952-1.212,4.373-3.464,4.413-3.714V31.4a.645.645,0,0,1,0-.158c0-1.317,1-2.634,2.792-3.714a15.411,15.411,0,0,1,7.495-1.765c3.754,0,7.205,1.12,9.023,2.95a3.57,3.57,0,0,1,1.185,2.516c0,1.317-1,2.634-2.806,3.7a15.214,15.214,0,0,1-7.482,1.778h-1.554a13.172,13.172,0,0,0-3.135.356c-4.057,1.027-13.9,3.583-17.65,5.269-6.151,2.634-9.839,7.666-9.879,13.33a15.359,15.359,0,0,0,3.464,9.826c1.317,1.581,2.753,3.306,4.294,5.137l.079.092c3.78,4.465,12.764,14.068,17.769,19.4a8.707,8.707,0,0,0,6.309,2.7c3.754,0,7.205,1.133,9.023,2.964a3.49,3.49,0,0,1,1.185,2.516c0,1.317-1,2.634-2.792,3.7a15.226,15.226,0,0,1-7.495,1.778C143.5,103.674,140.05,102.541,138.232,100.71Z" transform="translate(6.988 7.773)" fill="#23d1fd"/>
        <path id="Path_3788" data-name="Path 3788" d="M79.574,50.644a9.22,9.22,0,0,1-8.338-.092A2.964,2.964,0,0,1,69.59,48.26,2.819,2.819,0,0,0,71.236,50.8a9.22,9.22,0,0,0,8.338.079,2.845,2.845,0,0,0,1.765-2.529,3.016,3.016,0,0,1-1.765,2.292Z" transform="translate(22.073 15.308)" fill="#b4d2fc" opacity="0.91"/>
        <path id="Path_3789" data-name="Path 3789" d="M79.2,46.6h0L71.14,51.289a9.22,9.22,0,0,0,7.9-.105,3.016,3.016,0,0,0,1.765-2.279A2.924,2.924,0,0,0,79.2,46.6Z" transform="translate(22.565 14.781)" fill="#2e3039"/>
        <path id="Path_3790" data-name="Path 3790" d="M71.355,46.771a3.016,3.016,0,0,0-1.765,2.279,2.634,2.634,0,0,0,1.12,1.91l7.9-4.6A9.3,9.3,0,0,0,71.355,46.771Z" transform="translate(22.073 14.531)" fill="#2e3039"/>
        <path id="Path_3791" data-name="Path 3791" d="M78.363,46.23l-7.9,4.6a5.4,5.4,0,0,0,.527.382,3.411,3.411,0,0,0,.382.184L79.43,46.7a6.258,6.258,0,0,0-1.067-.474Z" transform="translate(22.349 14.664)" fill="#515562"/>
        <path id="Path_3792" data-name="Path 3792" d="M87.914,54.144h.079c.25-.132.237-.356,0-.5h0a1,1,0,0,0-.869,0L82.5,56.278a.27.27,0,0,0,0,.5h.079l4.584-2.634a.882.882,0,0,1,.751,0Z" transform="translate(26.115 16.984)" fill="#4167b4"/>
        <path id="Path_3793" data-name="Path 3793" d="M89.265,54.877h0c.25-.145.25-.369,0-.514a1.041,1.041,0,0,0-.883,0L83.772,57a.277.277,0,0,0,0,.514h.079l4.531-2.634a1,1,0,0,1,.883,0Z" transform="translate(26.516 17.212)" fill="#4167b4"/>
        <path id="Path_3794" data-name="Path 3794" d="M90.566,55.637h.079c.237-.145.237-.369,0-.5h0a.948.948,0,0,0-.883,0l-4.61,2.634a.274.274,0,0,0,0,.514h0l4.531-2.634A.948.948,0,0,1,90.566,55.637Z" transform="translate(26.953 17.454)" fill="#4167b4"/>
        <path id="Path_3795" data-name="Path 3795" d="M91.886,56.394h.079c.237-.145.237-.369,0-.5h0a1,1,0,0,0-.869,0l-4.623,2.634c-.237.132-.237.356,0,.5h0l4.544-2.634A.975.975,0,0,1,91.886,56.394Z" transform="translate(27.372 17.697)" fill="#4167b4"/>
        <path id="Path_3796" data-name="Path 3796" d="M93.21,57.147h.079a.277.277,0,0,0,0-.514,1.041,1.041,0,0,0-.883,0l-4.623,2.634a.263.263,0,0,0,0,.5h.079l4.531-2.634A.922.922,0,0,1,93.21,57.147Z" transform="translate(27.787 17.932)" fill="#4167b4"/>
        <path id="Path_3797" data-name="Path 3797" d="M94.555,57.927h0c.25-.145.25-.369,0-.5h0a.948.948,0,0,0-.883,0l-4.61,2.634a.277.277,0,0,0,0,.514h.079l4.531-2.634a.948.948,0,0,1,.883-.013Z" transform="translate(28.194 18.18)" fill="#4167b4"/>
        <path id="Path_3798" data-name="Path 3798" d="M83.32,56.657l4.531-2.634a.883.883,0,0,0-.79,0L82.53,56.657A.975.975,0,0,0,83.32,56.657Z" transform="translate(26.178 17.106)" fill="#2e3039"/>
        <path id="Path_3799" data-name="Path 3799" d="M84.64,57.395l4.544-2.634a1,1,0,0,0-.8,0L83.85,57.395A.922.922,0,0,0,84.64,57.395Z" transform="translate(26.596 17.343)" fill="#2e3039"/>
        <path id="Path_3800" data-name="Path 3800" d="M85.96,58.156,90.5,55.521a.948.948,0,0,0-.8,0L85.17,58.156A.975.975,0,0,0,85.96,58.156Z" transform="translate(27.015 17.583)" fill="#2e3039"/>
        <path id="Path_3801" data-name="Path 3801" d="M87.28,58.915l4.544-2.634a.975.975,0,0,0-.79,0L86.49,58.915A.922.922,0,0,0,87.28,58.915Z" transform="translate(27.434 17.825)" fill="#2e3039"/>
        <path id="Path_3802" data-name="Path 3802" d="M88.61,59.656l4.531-2.634a.922.922,0,0,0-.79,0L87.82,59.656a.922.922,0,0,0,.79,0Z" transform="translate(27.856 18.058)" fill="#2e3039"/>
        <path id="Path_3803" data-name="Path 3803" d="M89.93,60.449l3.319-1.936,1.225-.711a.948.948,0,0,0-.8,0L89.14,60.436A.975.975,0,0,0,89.93,60.449Z" transform="translate(28.274 18.306)" fill="#2e3039"/>
        <path id="Path_3804" data-name="Path 3804" d="M63.665,39.217h.079c.237-.132.237-.356,0-.5h0a.922.922,0,0,0-.869,0l-4.623,2.634c-.237.132-.224.356,0,.5h.066l4.544-2.634A.922.922,0,0,1,63.665,39.217Z" transform="translate(18.422 12.246)" fill="#4167b4"/>
        <path id="Path_3805" data-name="Path 3805" d="M65,39.977h.066c.25-.145.25-.369,0-.5a.922.922,0,0,0-.869,0l-4.61,2.634c-.237.145-.237.369,0,.5h.066l4.544-2.634A1,1,0,0,1,65,39.977Z" transform="translate(18.843 12.487)" fill="#4167b4"/>
        <path id="Path_3806" data-name="Path 3806" d="M66.366,40.737h0c.25-.145.25-.369,0-.5h0a.948.948,0,0,0-.883,0l-4.61,2.634a.274.274,0,0,0,0,.514h.066L65.47,40.75A.948.948,0,0,1,66.366,40.737Z" transform="translate(19.252 12.728)" fill="#4167b4"/>
        <path id="Path_3807" data-name="Path 3807" d="M67.636,41.507h.079a.263.263,0,0,0,0-.5h0a.922.922,0,0,0-.869,0l-4.623,2.634c-.237.132-.237.356,0,.5h.066l4.544-2.634A.922.922,0,0,1,67.636,41.507Z" transform="translate(19.68 12.972)" fill="#4167b4"/>
        <path id="Path_3808" data-name="Path 3808" d="M68.956,42.268h.079a.277.277,0,0,0,0-.514,1,1,0,0,0-.869,0l-4.623,2.634c-.237.145-.237.369,0,.5h.066l4.544-2.634a.975.975,0,0,1,.8.013Z" transform="translate(20.099 13.212)" fill="#4167b4"/>
        <path id="Path_3809" data-name="Path 3809" d="M70.274,43.027h.079c.25-.145.25-.369,0-.5h0a.922.922,0,0,0-.869,0L64.86,45.161a.27.27,0,0,0,0,.5h0L69.4,43.027a.922.922,0,0,1,.869,0Z" transform="translate(20.52 13.454)" fill="#4167b4"/>
        <path id="Path_3810" data-name="Path 3810" d="M59.073,41.726,63.6,39.091a.922.922,0,0,0-.79,0L58.27,41.726A.948.948,0,0,0,59.073,41.726Z" transform="translate(18.483 12.371)" fill="#2e3039"/>
        <path id="Path_3811" data-name="Path 3811" d="M60.393,42.485l4.544-2.634a1,1,0,0,0-.8,0L59.59,42.485a1,1,0,0,0,.8,0Z" transform="translate(18.901 12.613)" fill="#2e3039"/>
        <path id="Path_3812" data-name="Path 3812" d="M61.71,43.256l4.544-2.634a.948.948,0,0,0-.8,0L60.92,43.256A.975.975,0,0,0,61.71,43.256Z" transform="translate(19.323 12.856)" fill="#2e3039"/>
        <path id="Path_3813" data-name="Path 3813" d="M63.03,44.016l4.544-2.634a.922.922,0,0,0-.79,0L62.24,44.016A.922.922,0,0,0,63.03,44.016Z" transform="translate(19.742 13.098)" fill="#2e3039"/>
        <path id="Path_3814" data-name="Path 3814" d="M64.35,44.775l4.544-2.634a.975.975,0,0,0-.79,0L63.56,44.775A.922.922,0,0,0,64.35,44.775Z" transform="translate(20.161 13.34)" fill="#2e3039"/>
        <path id="Path_3815" data-name="Path 3815" d="M65.687,45.549l3.306-1.936L70.2,42.9a.922.922,0,0,0-.79,0L64.87,45.536A1,1,0,0,0,65.687,45.549Z" transform="translate(20.576 13.58)" fill="#2e3039"/>
        <path id="Path_3816" data-name="Path 3816" d="M60.9,54.147h-.079c-.237-.145-.237-.369,0-.5h0a.922.922,0,0,1,.869,0l4.623,2.634c.237.132.237.356,0,.5h0l-4.544-2.634A.922.922,0,0,0,60.9,54.147Z" transform="translate(19.236 16.982)" fill="#4167b4"/>
        <path id="Path_3817" data-name="Path 3817" d="M59.583,54.9H59.5c-.25-.145-.237-.369,0-.514a1,1,0,0,1,.869,0L65,57.018a.263.263,0,0,1,0,.5h0l-4.544-2.634A.922.922,0,0,0,59.583,54.9Z" transform="translate(18.816 17.219)" fill="#4167b4"/>
        <path id="Path_3818" data-name="Path 3818" d="M58.235,55.656h0c-.25-.145-.25-.369,0-.5h0a.988.988,0,0,1,.883,0l4.61,2.634a.277.277,0,0,1,0,.514h-.079l-4.531-2.634A1,1,0,0,0,58.235,55.656Z" transform="translate(18.412 17.462)" fill="#4167b4"/>
        <path id="Path_3819" data-name="Path 3819" d="M56.932,56.417h-.079c-.237-.145-.237-.356,0-.5h0a.948.948,0,0,1,.883,0l4.61,2.634a.274.274,0,0,1,0,.514h0L57.814,56.43a.948.948,0,0,0-.883-.013Z" transform="translate(17.977 17.702)" fill="#4167b4"/>
        <path id="Path_3820" data-name="Path 3820" d="M55.612,57.144h-.079c-.237-.132-.237-.356,0-.5a1,1,0,0,1,.869,0l4.623,2.634a.265.265,0,0,1,0,.5h0l-4.544-2.634A.922.922,0,0,0,55.612,57.144Z" transform="translate(17.558 17.935)" fill="#4167b4"/>
        <path id="Path_3821" data-name="Path 3821" d="M54.292,57.947h-.079c-.237-.145-.237-.369,0-.5h0a.922.922,0,0,1,.869,0l4.623,2.634a.263.263,0,0,1,0,.5h0l-4.544-2.634A.922.922,0,0,0,54.292,57.947Z" transform="translate(17.139 18.187)" fill="#4167b4"/>
        <path id="Path_3822" data-name="Path 3822" d="M65.384,56.656,60.84,54.021a.922.922,0,0,1,.79,0l4.544,2.634a.975.975,0,0,1-.79,0Z" transform="translate(19.298 17.107)" fill="#2e3039"/>
        <path id="Path_3823" data-name="Path 3823" d="M64.091,57.406,59.56,54.771a.922.922,0,0,1,.79,0l4.544,2.634A.948.948,0,0,1,64.091,57.406Z" transform="translate(18.892 17.345)" fill="#2e3039"/>
        <path id="Path_3824" data-name="Path 3824" d="M62.734,58.175,58.19,55.54a1,1,0,0,1,.8,0l4.531,2.634A.975.975,0,0,1,62.734,58.175Z" transform="translate(18.457 17.59)" fill="#2e3039"/>
        <path id="Path_3825" data-name="Path 3825" d="M61.414,58.936,56.87,56.3a.948.948,0,0,1,.8,0L62.2,58.936a.975.975,0,0,1-.79,0Z" transform="translate(18.039 17.83)" fill="#2e3039"/>
        <path id="Path_3826" data-name="Path 3826" d="M60.094,59.656,55.55,57.021a.922.922,0,0,1,.79,0l4.544,2.634A.883.883,0,0,1,60.094,59.656Z" transform="translate(17.62 18.058)" fill="#2e3039"/>
        <path id="Path_3827" data-name="Path 3827" d="M58.774,60.456l-3.332-1.923-1.212-.711a.922.922,0,0,1,.79,0l4.544,2.634A.922.922,0,0,1,58.774,60.456Z" transform="translate(17.201 18.312)" fill="#2e3039"/>
        <path id="Path_3828" data-name="Path 3828" d="M85.633,39.447h-.079a.263.263,0,0,1,0-.5h0a.948.948,0,0,1,.882,0l4.61,2.634c.237.132.237.356,0,.5h0l-4.531-2.634A.909.909,0,0,0,85.633,39.447Z" transform="translate(27.079 12.319)" fill="#4167b4"/>
        <path id="Path_3829" data-name="Path 3829" d="M84.311,40.208h-.079a.277.277,0,0,1,0-.514,1,1,0,0,1,.869,0l4.623,2.634c.237.145.237.356,0,.5h0L85.18,40.194a.975.975,0,0,0-.869.013Z" transform="translate(26.662 12.559)" fill="#4167b4"/>
        <path id="Path_3830" data-name="Path 3830" d="M82.992,40.967h-.079c-.237-.145-.237-.369,0-.5h0a.922.922,0,0,1,.869,0L88.406,43.1a.277.277,0,0,1,0,.514h0L83.861,40.98A.922.922,0,0,0,82.992,40.967Z" transform="translate(26.243 12.801)" fill="#4167b4"/>
        <path id="Path_3831" data-name="Path 3831" d="M81.645,41.727h0c-.25-.145-.25-.369,0-.5h0a.948.948,0,0,1,.883,0l4.61,2.634c.237.132.237.356,0,.5h-.079l-4.531-2.634A1,1,0,0,0,81.645,41.727Z" transform="translate(25.838 13.042)" fill="#4167b4"/>
        <path id="Path_3832" data-name="Path 3832" d="M80.325,42.494h0c-.25-.132-.25-.356,0-.487a.948.948,0,0,1,.883,0l4.61,2.634c.237.145.237.369,0,.5h0l-4.531-2.634A.948.948,0,0,0,80.325,42.494Z" transform="translate(25.419 13.289)" fill="#4167b4"/>
        <path id="Path_3833" data-name="Path 3833" d="M79.062,43.257h-.079c-.237-.145-.237-.369,0-.5h0a.922.922,0,0,1,.869,0l4.623,2.634a.274.274,0,0,1,0,.514h0L79.931,43.27A.922.922,0,0,0,79.062,43.257Z" transform="translate(24.996 13.527)" fill="#4167b4"/>
        <path id="Path_3834" data-name="Path 3834" d="M90.094,41.957,85.55,39.323a.909.909,0,0,1,.8,0l4.531,2.634A.975.975,0,0,1,90.094,41.957Z" transform="translate(27.136 12.443)" fill="#2e3039"/>
        <path id="Path_3835" data-name="Path 3835" d="M88.794,42.715,84.25,40.08a.975.975,0,0,1,.79,0l4.544,2.634a.883.883,0,0,1-.79,0Z" transform="translate(26.723 12.686)" fill="#2e3039"/>
        <path id="Path_3836" data-name="Path 3836" d="M87.474,43.486,82.93,40.851a.922.922,0,0,1,.79,0l4.544,2.634A.975.975,0,0,1,87.474,43.486Z" transform="translate(26.305 12.929)" fill="#2e3039"/>
        <path id="Path_3837" data-name="Path 3837" d="M86.144,44.245,81.6,41.61a1,1,0,0,1,.8,0l4.531,2.634A.922.922,0,0,1,86.144,44.245Z" transform="translate(25.883 13.172)" fill="#2e3039"/>
        <path id="Path_3838" data-name="Path 3838" d="M84.824,45.006,80.28,42.372a.948.948,0,0,1,.8,0l4.531,2.634A.975.975,0,0,1,84.824,45.006Z" transform="translate(25.464 13.411)" fill="#2e3039"/>
        <path id="Path_3839" data-name="Path 3839" d="M83.492,45.779l-3.319-1.936L79,43.131a.922.922,0,0,1,.79,0l4.544,2.634a.975.975,0,0,1-.843.013Z" transform="translate(25.058 13.653)" fill="#2e3039"/>
        <path id="Path_3840" data-name="Path 3840" d="M41.24,81.347a1,1,0,0,1,0,.2,1.382,1.382,0,0,1,0,.25,1.239,1.239,0,0,1,0,.211,1.318,1.318,0,0,1-.105.237l-.079.211c0,.079-.105.158-.145.237l-.119.2-.2.237a2.254,2.254,0,0,1-.145.184c-.079.092-.171.171-.25.25l-.171.158-.3.25-.184.145-.566.356a12.829,12.829,0,0,1-11.631,0l-.566-.356-.119-.105-.369-.29-.132-.132a2.742,2.742,0,0,1-.277-.277l-.119-.145c-.079-.092-.158-.171-.224-.263s-.066-.132-.105-.184l-.29-.237-.119-.224a1.871,1.871,0,0,1-.105-.237,1.238,1.238,0,0,0,0-.211V81.36a3.952,3.952,0,0,1,2.41-3.622,12.75,12.75,0,0,1,11.631,0,4.083,4.083,0,0,1,2.305,3.425A1.8,1.8,0,0,1,41.24,81.347Z" transform="translate(7.904 24.213)" fill="#233a6a"/>
        <path id="Path_3841" data-name="Path 3841" d="M25.5,75.415v.408l.092.211a.777.777,0,0,0,.079.184,1.318,1.318,0,0,0,.132.224l.105.171.184.25.119.132.25.25.119.119.329.263.119.092.514.316a11.525,11.525,0,0,0,10.538,0l.514-.316.171-.132.277-.224.145-.145L39.42,77a1.49,1.49,0,0,1,.132-.171l.171-.211a1.318,1.318,0,0,0,.105-.184,1.843,1.843,0,0,0,.132-.211,1.932,1.932,0,0,0,.079-.184c0-.079.066-.158.092-.224a1.315,1.315,0,0,0,0-.184V74.98h0v6.283a3.767,3.767,0,0,1-2.2,3.082,11.631,11.631,0,0,1-10.538,0A3.767,3.767,0,0,1,25.221,81.3V75.02a1.133,1.133,0,0,0,0,.211,1,1,0,0,0,.277.184Z" transform="translate(7.998 23.783)" fill="url(#linear-gradient-2)"/>
        <path id="Path_3842" data-name="Path 3842" d="M40.277,76.237v.422a1.316,1.316,0,0,1,0,.184.327.327,0,0,1-.092.224,1.932,1.932,0,0,1-.079.184,1.842,1.842,0,0,1-.132.211,1.316,1.316,0,0,1-.105.184l-.171.211a1.491,1.491,0,0,0-.132.171l-.237.224-.145.145-.277.224-.171.132-.514.316a11.525,11.525,0,0,1-10.538,0l-.514-.316-.25-.079-.329-.263-.119-.119-.25-.25L26.1,77.91l-.184-.25-.105-.171a1.317,1.317,0,0,1-.132-.224.776.776,0,0,1-.079-.184l-.092-.211v-.408a1,1,0,0,1,0-.2,3.583,3.583,0,0,1,2.187-3.28,11.631,11.631,0,0,1,10.538,0A3.714,3.714,0,0,1,40.29,76.04S40.277,76.158,40.277,76.237Z" transform="translate(8.09 22.749)" fill="#e9e9e9"/>
        <path id="Path_3843" data-name="Path 3843" d="M35.211,70.707v.474a.277.277,0,0,0,0,.079.356.356,0,0,1-.092.105l-.105.119h-.066L34.8,71.6h0l-.237.158a5.361,5.361,0,0,1-4.821,0l-.237-.158h-.079L29.3,71.5h-.066l-.105-.105v-.079l-.079-.092v-.079a.461.461,0,0,1-.066-.105v-.184a.846.846,0,0,1,0-.092.408.408,0,0,0,0-.105V70.47h0v5.572a1.726,1.726,0,0,0,1.014,1.409,5.269,5.269,0,0,0,4.834,0,1.7,1.7,0,0,0,.988-1.4V70.483a.2.2,0,0,1,0,.092Z" transform="translate(9.192 22.352)" fill="url(#linear-gradient-3)"/>
        <path id="Path_3844" data-name="Path 3844" d="M28.54,71.079v.079a.409.409,0,0,1,0,.105.843.843,0,0,0,0,.092v.184a.461.461,0,0,0,.066.105v.079l.079.092V71.9l.105.105h.066l.132.105h.079l.237.158a5.361,5.361,0,0,0,4.821,0l.237-.158h0l.145-.119h.066l.105-.119a.356.356,0,0,0,.092-.105.276.276,0,0,1,0-.079v-.566a1.62,1.62,0,0,0-.356-1.541,5.387,5.387,0,0,0-4.834,0,1.7,1.7,0,0,0-.988,1.4A.252.252,0,0,0,28.54,71.079Z" transform="translate(9.052 21.888)" fill="#e9e9e9"/>
        <path id="Path_3845" data-name="Path 3845" d="M28.937,70.994v.066a.25.25,0,0,1,0,.092h0v.092h0v.079l.237.237h0l.092.079h.066l.105.079h.079l.2.119a4.992,4.992,0,0,0,4.307,0l.211-.119h0l.132-.092h0l.092-.092h0l.079-.092h0V71.35h0v-.079a.171.171,0,0,1,0-.079.185.185,0,0,1,0-.079v-.079a1.594,1.594,0,0,0-.9-1.317,5.005,5.005,0,0,0-4.294,0,1.449,1.449,0,0,0-.9,1.172A2.153,2.153,0,0,1,28.937,70.994Z" transform="translate(9.024 21.96)" fill="#9e9e9e"/>
        <path id="Path_3846" data-name="Path 3846" d="M30.23,70.726h.092a2.213,2.213,0,0,0,1.91,0h.158a.632.632,0,0,0-.4-.566,2.305,2.305,0,0,0-1.91,0,.632.632,0,0,0-.4.527Z" transform="translate(9.417 22.188)" fill="#cacaca"/>
        <path id="Path_3847" data-name="Path 3847" d="M1.57,51.19v.9l13.3,9.207v-.9Z" transform="translate(0.498 16.237)" fill="#9e9e9e"/>
        <path id="Path_3848" data-name="Path 3848" d="M18.111,62.25c-2.252-1.317-4.4-2.634-6.441-4.07v.9q3.069,2.121,6.441,4.136A115.909,115.909,0,0,0,34.5,70.891v-.883A115.224,115.224,0,0,1,18.111,62.25Z" transform="translate(3.702 18.454)" fill="#9e9e9e"/>
        <path id="Path_3849" data-name="Path 3849" d="M21.315,64.6A115.228,115.228,0,0,0,37.7,72.359l.817.3.962-.553-.461-.474a84.747,84.747,0,0,0-13.409-9.457c-2.252-1.317-4.623-2.555-7.073-3.741l-16-7.666-.962.553,13.3,9.22C16.915,61.953,19.062,63.3,21.315,64.6Z" transform="translate(0.498 16.104)" fill="#cacaca"/>
        <path id="Path_3850" data-name="Path 3850" d="M18.483,58.436,2.532,50.77l-.962.553,13.3,9.22c1.528,1.067,3.148,2.081,4.795,3.082l1.712-3.714C20.419,59.411,19.471,58.976,18.483,58.436Z" transform="translate(0.498 16.104)" fill="#e9e9e9" opacity="0.45"/>
        <path id="Path_3851" data-name="Path 3851" d="M28.957,72a7.179,7.179,0,0,0,3.78.79A6.586,6.586,0,0,0,36,71.772a3.082,3.082,0,0,0,1.462-1.963,2.507,2.507,0,0,0,0-.329,3.951,3.951,0,0,1,0,.9,3.082,3.082,0,0,1-1.4,1.963A6.586,6.586,0,0,1,32.8,73.353a7.047,7.047,0,0,1-3.78-.79,3.1,3.1,0,0,1-1.791-2.634,3.488,3.488,0,0,1,0-.356A3.109,3.109,0,0,0,28.957,72Z" transform="translate(8.636 22.038)" fill="url(#linear-gradient-4)"/>
        <path id="Path_3852" data-name="Path 3852" d="M36.012,73.616a6.586,6.586,0,0,1-3.267,1.014,7.179,7.179,0,0,1-3.78-.79,3.109,3.109,0,0,1-1.765-2.41,9.576,9.576,0,0,1,1.054-4.189c1.554-2.871,3.741-3.635,4.07-3.57a5.73,5.73,0,0,1,2.779,1.87A9.049,9.049,0,0,1,37,68.953a9.8,9.8,0,0,1,.4,1.739v.632a2.507,2.507,0,0,1,0,.329,3.082,3.082,0,0,1-1.383,1.963Z" transform="translate(8.628 20.195)" fill="url(#linear-gradient-5)"/>
        <path id="Path_3853" data-name="Path 3853" d="M30.05,70v.9l6.77,6.336.013-.9Z" transform="translate(9.532 22.203)" fill="#9e9e9e"/>
        <path id="Path_3854" data-name="Path 3854" d="M37.824,76.68a16.635,16.635,0,0,1-2.634-1.87v.9a17.348,17.348,0,0,0,2.634,1.857,22.877,22.877,0,0,0,2.345,1.172v-.9A22.828,22.828,0,0,1,37.824,76.68Z" transform="translate(11.162 23.729)" fill="#9e9e9e"/>
        <path id="Path_3855" data-name="Path 3855" d="M38.97,77.11v.9L65.406,89.254l.013-.883Z" transform="translate(12.361 24.459)" fill="#9e9e9e"/>
        <path id="Path_3856" data-name="Path 3856" d="M59.053,86.145l-.013.883,3.464-2v-.9Z" transform="translate(18.727 26.685)" fill="#9e9e9e"/>
        <path id="Path_3857" data-name="Path 3857" d="M67.592,87.977,48.084,72.7l-.935-.7L43,81l21.075,9Z" transform="translate(13.639 22.838)" fill="#cacaca"/>
        <path id="Path_3858" data-name="Path 3858" d="M50.147,72.816a22.487,22.487,0,0,0-3.2-1.515L36.014,67.35v2.173a1.673,1.673,0,0,1-1,1.317,5.269,5.269,0,0,1-4.821,0H30.06l6.784,6.349a16.583,16.583,0,0,0,2.634,1.857,22.88,22.88,0,0,0,2.345,1.172l5.269,2.266,4.162-9.01C50.9,73.264,50.529,73.04,50.147,72.816Z" transform="translate(9.535 21.363)" fill="#cacaca"/>
        <path id="Path_3859" data-name="Path 3859" d="M50.147,72.816a22.487,22.487,0,0,0-3.2-1.515L36.014,67.35v2.173a1.673,1.673,0,0,1-1,1.317,5.269,5.269,0,0,1-4.821,0H30.06l6.784,6.349a16.583,16.583,0,0,0,2.634,1.857,22.88,22.88,0,0,0,2.345,1.172l5.269,2.266,4.162-9.01C50.9,73.264,50.529,73.04,50.147,72.816Z" transform="translate(9.535 21.363)" fill="#e9e9e9" opacity="0.45"/>
        <path id="Path_3860" data-name="Path 3860" d="M127.75,30.575a1.217,1.217,0,0,1,0,.211,1.753,1.753,0,0,1,0,.25,1.1,1.1,0,0,1,0,.2,1.425,1.425,0,0,1-.105.25l-.079.2-.158.25a1.565,1.565,0,0,1-.119.2l-.184.237a2.25,2.25,0,0,0-.145.184l-.263.237-.158.171-.316.237a.7.7,0,0,1-.184.145,4.639,4.639,0,0,1-.566.356,12.724,12.724,0,0,1-11.618,0,5.929,5.929,0,0,1-.566-.356l-.132-.105-.356-.277-.145-.145-.263-.263-.132-.158-.211-.263a.232.232,0,0,0-.105-.184l-.158-.25-.079-.2a1.424,1.424,0,0,1-.105-.25,1.094,1.094,0,0,0,0-.2,2.14,2.14,0,0,1,0-.25v-.211a3.952,3.952,0,0,1,2.41-3.622,12.83,12.83,0,0,1,11.631,0,4.11,4.11,0,0,1,2.4,3.359A1.619,1.619,0,0,1,127.75,30.575Z" transform="translate(35.398 8.111)" fill="#233a6a"/>
        <path id="Path_3861" data-name="Path 3861" d="M112,24.645v.224a.969.969,0,0,0,0,.184,1.6,1.6,0,0,0,.092.224,1.939,1.939,0,0,0,.079.184.99.99,0,0,0,.132.224l.105.171.184.237.119.145a2.187,2.187,0,0,0,.25.237l.119.132.329.25.119.092c.158.119.329.224.5.329a11.591,11.591,0,0,0,10.538,0,4.914,4.914,0,0,0,.514-.329l.171-.132.277-.224.145-.145a1.8,1.8,0,0,0,.224-.224l.145-.158.171-.224.105-.171.132-.224.079-.184c0-.066.066-.145.092-.224a.752.752,0,0,0,0-.184v-.224a.938.938,0,0,0,0-.184,1.451,1.451,0,0,0,0-.237h0v6.283a3.7,3.7,0,0,1-2.187,3.069,11.631,11.631,0,0,1-10.538,0,3.7,3.7,0,0,1-1.9-3.043V24.236a1.314,1.314,0,0,0,0,.224A.931.931,0,0,0,112,24.645Z" transform="translate(35.524 7.679)" fill="url(#linear-gradient-6)"/>
        <path id="Path_3862" data-name="Path 3862" d="M126.782,25.485a.939.939,0,0,1,0,.184v.224a.751.751,0,0,1,0,.184.233.233,0,0,1-.092.224l-.079.184-.132.224-.105.171-.171.224-.145.158a1.8,1.8,0,0,1-.224.224l-.145.145-.277.224-.171.132a4.913,4.913,0,0,1-.514.329,11.591,11.591,0,0,1-10.537,0c-.171-.105-.342-.211-.5-.329l-.119-.092-.329-.25-.119-.132a2.182,2.182,0,0,1-.25-.237l-.119-.145-.184-.237-.105-.171a.987.987,0,0,1-.132-.224,1.925,1.925,0,0,1-.079-.184,1.61,1.61,0,0,1-.092-.224.977.977,0,0,1,0-.184v-.224a.934.934,0,0,1,0-.184,3.609,3.609,0,0,1,2.173-3.293,11.591,11.591,0,0,1,10.538,0,3.688,3.688,0,0,1,2.173,3.03A1.449,1.449,0,0,1,126.782,25.485Z" transform="translate(35.575 6.641)" fill="#e9e9e9"/>
        <path id="Path_3863" data-name="Path 3863" d="M121.72,19.934V20.3a.461.461,0,0,1,0,.105v.079l-.092.105v.066a.786.786,0,0,1-.105.105v.066l-.145.119h0l-.237.145a5.269,5.269,0,0,1-4.834,0l-.224-.145L116,20.883l-.132-.105h-.066l-.105-.105v-.066l-.079-.105v-.645a.251.251,0,0,1,0-.105h0v5.572a1.712,1.712,0,0,0,1.014,1.409,5.269,5.269,0,0,0,4.821,0,1.673,1.673,0,0,0,1-1.383v-5.48a.37.37,0,1,1-.738.066Z" transform="translate(36.672 6.265)" fill="url(#linear-gradient-7)"/>
        <path id="Path_3864" data-name="Path 3864" d="M115.266,20.316v.645l.079.105v.066l.105.105h.066l.132.105.079.066.224.145a5.269,5.269,0,0,0,4.834,0l.237-.145h0l.145-.119v-.066a.792.792,0,0,0,.105-.105v-.066l.092-.105v-.079a.461.461,0,0,0,0-.105V20.4a.264.264,0,0,0,0-.092,1.62,1.62,0,0,0-1-1.5,5.269,5.269,0,0,0-4.834,0,1.686,1.686,0,0,0-.988,1.383.368.368,0,0,0,.724.132Z" transform="translate(36.33 5.777)" fill="#e9e9e9"/>
        <path id="Path_3865" data-name="Path 3865" d="M115.548,20.212v.237a.184.184,0,0,0,0,.079v.224l.079.079a.132.132,0,0,0,0,.066l.092.092h0l.119.092h0l.211.132a5.032,5.032,0,0,0,4.307,0l.211-.132h0l.145-.105h0a.789.789,0,0,0,.105-.105h0l.079-.092h0a.567.567,0,0,1,0-.092V20.37a.145.145,0,0,0,0-.066,1.317,1.317,0,0,0-.9-1.317,5.032,5.032,0,0,0-4.307,0,1.409,1.409,0,0,0-.883,1.172.37.37,0,0,0,.738.053Z" transform="translate(36.416 5.869)" fill="#9e9e9e"/>
        <path id="Path_3866" data-name="Path 3866" d="M116.793,19.956h.092a2.213,2.213,0,0,0,1.91,0h.092a.632.632,0,0,0-.4-.553,2.173,2.173,0,0,0-1.9,0,.632.632,0,0,0-.4.514Z" transform="translate(36.858 6.085)" fill="#cacaca"/>
        <path id="Path_3867" data-name="Path 3867" d="M88.12.42v.9l13.3,9.207V9.64Z" transform="translate(27.951 0.133)" fill="#9e9e9e"/>
        <path id="Path_3868" data-name="Path 3868" d="M104.661,11.49Q101.289,9.5,98.22,7.42V8.3q3.056,2.134,6.441,4.07a115.914,115.914,0,0,0,16.412,7.758v-.9a115.91,115.91,0,0,1-16.412-7.745Z" transform="translate(31.154 2.354)" fill="#9e9e9e"/>
        <path id="Path_3869" data-name="Path 3869" d="M107.865,13.844a115.911,115.911,0,0,0,16.412,7.745l.817.316.962-.566-.54-.461a86.026,86.026,0,0,0-13.409-9.471c-2.252-1.317-4.623-2.542-7.073-3.728L89.082,0,88.12.553l13.3,9.22Q104.479,11.855,107.865,13.844Z" transform="translate(27.951)" fill="#cacaca"/>
        <path id="Path_3870" data-name="Path 3870" d="M105.085,7.679,89.082,0,88.12.553l13.3,9.22c1.528,1.054,3.148,2.068,4.795,3.069l1.7-3.714C106.969,8.641,106.007,8.153,105.085,7.679Z" transform="translate(27.951)" fill="#e9e9e9" opacity="0.45"/>
        <path id="Path_3871" data-name="Path 3871" d="M115.521,21.223A7.02,7.02,0,0,0,119.3,22a6.586,6.586,0,0,0,3.267-1.014,3.122,3.122,0,0,0,1.4-1.91,2.36,2.36,0,0,0,0-.316,3.24,3.24,0,0,1,0,.883,3.122,3.122,0,0,1-1.4,1.963,6.4,6.4,0,0,1-3.267,1.014,7.02,7.02,0,0,1-3.78-.777,3.082,3.082,0,0,1-1.791-2.634c0-.105,0-.237,0-.356A3.174,3.174,0,0,0,115.521,21.223Z" transform="translate(36.074 5.95)" fill="url(#linear-gradient-8)"/>
        <path id="Path_3872" data-name="Path 3872" d="M122.565,22.843a6.586,6.586,0,0,1-3.267,1.014,7.021,7.021,0,0,1-3.78-.777,3.174,3.174,0,0,1-1.778-2.424,9.747,9.747,0,0,1,1.106-4.175c1.554-2.871,3.741-3.635,4.07-3.57a5.8,5.8,0,0,1,2.779,1.87,9.049,9.049,0,0,1,1.9,3.412,9.973,9.973,0,0,1,.342,1.739,3.531,3.531,0,0,1,0,.632,2.353,2.353,0,0,1,0,.316,3.122,3.122,0,0,1-1.37,1.963Z" transform="translate(36.077 4.094)" fill="url(#linear-gradient-9)"/>
        <path id="Path_3873" data-name="Path 3873" d="M116.6,19.24v.883l6.77,6.349v-.9Z" transform="translate(36.984 6.103)" fill="#9e9e9e"/>
        <path id="Path_3874" data-name="Path 3874" d="M124.374,25.907a17.35,17.35,0,0,1-2.634-1.857v.9a17.349,17.349,0,0,0,2.634,1.857,21.573,21.573,0,0,0,2.345,1.159V27.08A22.876,22.876,0,0,1,124.374,25.907Z" transform="translate(38.615 7.628)" fill="#9e9e9e"/>
        <path id="Path_3875" data-name="Path 3875" d="M125.52,26.35v.883l26.436,11.262v-.9Z" transform="translate(39.814 8.358)" fill="#9e9e9e"/>
        <path id="Path_3876" data-name="Path 3876" d="M145.59,35.372v.9l3.464-2.015V33.37Z" transform="translate(46.18 10.585)" fill="#9e9e9e"/>
        <path id="Path_3877" data-name="Path 3877" d="M154.139,37.2,134.618,21.935c-.29-.237-.606-.461-.922-.685l-4.136,8.983,21.075,8.983Z" transform="translate(41.095 6.74)" fill="#cacaca"/>
        <path id="Path_3878" data-name="Path 3878" d="M136.694,22.056a21.764,21.764,0,0,0-3.2-1.515L122.561,16.59v2.147a1.7,1.7,0,0,1-1,1.4,5.269,5.269,0,0,1-4.821,0l-.119-.079h0l6.77,6.349a17.346,17.346,0,0,0,2.634,1.857,25.933,25.933,0,0,0,2.345,1.172l5.269,2.252,4.136-8.97C137.445,22.5,137.076,22.267,136.694,22.056Z" transform="translate(36.991 5.262)" fill="#cacaca"/>
        <path id="Path_3879" data-name="Path 3879" d="M136.694,22.056a21.764,21.764,0,0,0-3.2-1.515L122.561,16.59v2.147a1.7,1.7,0,0,1-1,1.4,5.269,5.269,0,0,1-4.821,0l-.119-.079h0l6.77,6.349a17.346,17.346,0,0,0,2.634,1.857,25.933,25.933,0,0,0,2.345,1.172l5.269,2.252,4.136-8.97C137.445,22.5,137.076,22.267,136.694,22.056Z" transform="translate(36.991 5.262)" fill="#e9e9e9" opacity="0.45"/>
        <path id="Path_3880" data-name="Path 3880" d="M110.9,81.347v.448a1.234,1.234,0,0,1,0,.211c0,.079.079.171.105.237a1.463,1.463,0,0,0,.092.211,2.293,2.293,0,0,0,.145.237,1.57,1.57,0,0,0,.119.2l.184.237.158.184a1.5,1.5,0,0,0,.25.25l.158.158.316.25.184.145.566.356a12.829,12.829,0,0,0,11.631,0l.553-.356.132-.105a3.792,3.792,0,0,0,.356-.29l.145-.132.277-.277.119-.145.211-.263.119-.184.145-.25a1.461,1.461,0,0,1,.092-.211l.092-.237a1.235,1.235,0,0,0,0-.211,1.593,1.593,0,0,0,0-.237,1.062,1.062,0,0,1,0-.211,3.952,3.952,0,0,0-2.41-3.622,12.75,12.75,0,0,0-11.631,0,4.057,4.057,0,0,0-2.121,3.425A1.5,1.5,0,0,1,110.9,81.347Z" transform="translate(35.173 24.213)" fill="#233a6a"/>
        <path id="Path_3881" data-name="Path 3881" d="M126.289,75.415a1.235,1.235,0,0,1,0,.211v.2a1.57,1.57,0,0,1-.105.211.766.766,0,0,1,0,.184,1.32,1.32,0,0,1-.145.224.71.71,0,0,1-.092.171l-.2.25a1.066,1.066,0,0,1-.119.132l-.237.25-.132.119-.329.263-.119.092a5.537,5.537,0,0,1-.5.316,11.552,11.552,0,0,1-10.538,0l-.514-.316-.158-.132-.29-.224-.145-.145L112.446,77a1.49,1.49,0,0,1-.132-.171l-.184-.211-.105-.184-.132-.211-.079-.184a.233.233,0,0,0-.092-.224.748.748,0,0,0,0-.184v-.237a.807.807,0,0,1,0-.184V74.98h0v6.283a3.715,3.715,0,0,0,2.2,3.082,11.6,11.6,0,0,0,10.538,0,3.714,3.714,0,0,0,2.173-3.043V75.23C126.632,75.3,126.3,75.349,126.289,75.415Z" transform="translate(35.435 23.783)" fill="url(#linear-gradient-10)"/>
        <path id="Path_3882" data-name="Path 3882" d="M111.5,76.24a.807.807,0,0,0,0,.184v.237a.748.748,0,0,1,0,.184.327.327,0,0,0,.092.224l.079.184.132.211.105.184.184.211a1.482,1.482,0,0,0,.132.171l.224.224.145.145.29.224.158.132.514.316a11.552,11.552,0,0,0,10.538,0,5.53,5.53,0,0,0,.5-.316l.119-.092.329-.263.132-.119.237-.25a1.068,1.068,0,0,0,.119-.132l.2-.25a.709.709,0,0,0,.092-.171,1.317,1.317,0,0,0,.145-.224.761.761,0,0,0,0-.184,1.566,1.566,0,0,0,.105-.211v-.2a1.24,1.24,0,0,0,0-.211v-.2a3.6,3.6,0,0,0-2.187-3.28,11.631,11.631,0,0,0-10.538,0,3.688,3.688,0,0,0-1.857,3.069S111.5,76.161,111.5,76.24Z" transform="translate(35.364 22.746)" fill="#e9e9e9"/>
        <path id="Path_3883" data-name="Path 3883" d="M114.669,70.7V70.8a.185.185,0,0,1,0,.079v.184a.29.29,0,0,0,.066.105v.079l.092.105h0l.119.119h0l.145.119h0l.237.158a5.387,5.387,0,0,0,4.834,0l.237-.158h.066l.132-.105h0a.789.789,0,0,0,.105-.105l.066-.079.079-.092v-.369a.853.853,0,0,0,0-.092.25.25,0,0,0,0-.105.171.171,0,0,1,0-.079V70.5h0v5.572a1.712,1.712,0,0,1-1,1.409,5.269,5.269,0,0,1-4.834,0,1.725,1.725,0,0,1-1-1.4v-5.48a.333.333,0,1,0,.659.092Z" transform="translate(36.162 22.362)" fill="url(#linear-gradient-11)"/>
        <path id="Path_3884" data-name="Path 3884" d="M121.169,71.07a.171.171,0,0,0,0,.079.251.251,0,0,1,0,.105.861.861,0,0,1,0,.092v.369l-.079.092-.066.079a.789.789,0,0,1-.105.105h0l-.132.105h-.066l-.237.158a5.387,5.387,0,0,1-4.834,0l-.237-.158h0l-.145-.119h0l-.119-.119h0l-.092-.105v-.079a.29.29,0,0,1-.066-.105v-.184a.184.184,0,0,0,0-.079V71.2a.2.2,0,0,1,0-.092,1.646,1.646,0,0,1,1-1.5,5.387,5.387,0,0,1,4.834,0,1.7,1.7,0,0,1,.988,1.4Z" transform="translate(36.472 21.897)" fill="#e9e9e9"/>
        <path id="Path_3885" data-name="Path 3885" d="M120.784,70.966v.066a.25.25,0,0,1,0,.092h0v.092h0v.237h-.066l-.092.079h0l-.119.079h-.066l-.211.119a4.992,4.992,0,0,1-4.307,0l-.211-.119h0l-.132-.092h0l-.105-.092h0l-.474.105h0a.329.329,0,0,0,0-.092h0v-.079a.171.171,0,0,1,0-.079.185.185,0,0,1,0-.079.17.17,0,0,0,0-.079,1.594,1.594,0,0,1,.9-1.317,5.032,5.032,0,0,1,4.307,0,1.436,1.436,0,0,1,.882,1.172A.263.263,0,0,1,120.784,70.966Z" transform="translate(36.476 21.988)" fill="#9e9e9e"/>
        <path id="Path_3886" data-name="Path 3886" d="M118.611,70.726v.092h-.092a2.213,2.213,0,0,1-1.91,0h-.079v-.092a.619.619,0,0,1,.4-.566,2.305,2.305,0,0,1,1.91,0,.645.645,0,0,1,.382.527Z" transform="translate(36.962 22.188)" fill="#cacaca"/>
        <path id="Path_3887" data-name="Path 3887" d="M149.844,51.19v.9l-13.3,9.207v-.9Z" transform="translate(43.309 16.237)" fill="#9e9e9e"/>
        <path id="Path_3888" data-name="Path 3888" d="M135.605,62.25c2.252-1.317,4.4-2.634,6.441-4.07v.9q-3.082,2.121-6.441,4.07a116.823,116.823,0,0,1-16.425,7.745v-.883A114.592,114.592,0,0,0,135.605,62.25Z" transform="translate(37.803 18.454)" fill="#9e9e9e"/>
        <path id="Path_3889" data-name="Path 3889" d="M136.027,64.6a114.6,114.6,0,0,1-16.412,7.758l-.8.3-.962-.553.527-.474a85.988,85.988,0,0,1,13.409-9.457q3.4-1.963,7.087-3.741L154.81,50.77l.962.553-13.3,9.22C140.44,61.953,138.28,63.3,136.027,64.6Z" transform="translate(37.381 16.104)" fill="#cacaca"/>
        <path id="Path_3890" data-name="Path 3890" d="M134.508,58.436l15.938-7.666.962.553-13.3,9.22c-1.528,1.067-3.135,2.081-4.781,3.082l-1.712-3.714C132.558,59.411,133.52,58.976,134.508,58.436Z" transform="translate(41.745 16.104)" fill="#e9e9e9" opacity="0.45"/>
        <path id="Path_3891" data-name="Path 3891" d="M121.708,72a7.126,7.126,0,0,1-3.767.79,6.586,6.586,0,0,1-3.28-1.014,3.174,3.174,0,0,1-1.4-1.963,2.629,2.629,0,0,1,0-.329,4.942,4.942,0,0,0,0,.9,3.174,3.174,0,0,0,1.4,1.963,6.586,6.586,0,0,0,3.28,1.014,7.008,7.008,0,0,0,3.767-.79,3.069,3.069,0,0,0,1.791-2.634v-.356A3.161,3.161,0,0,1,121.708,72Z" transform="translate(35.92 22.038)" fill="url(#linear-gradient-12)"/>
        <path id="Path_3892" data-name="Path 3892" d="M114.645,73.616a6.586,6.586,0,0,0,3.28,1.014,7.126,7.126,0,0,0,3.767-.79,3.161,3.161,0,0,0,1.752-2.41,9.761,9.761,0,0,0-1.093-4.189c-1.567-2.871-3.754-3.635-4.07-3.57a5.756,5.756,0,0,0-2.74,1.87,9.023,9.023,0,0,0-1.884,3.412,8.683,8.683,0,0,0-.356,1.739,6.046,6.046,0,0,0,0,.632,2.628,2.628,0,0,0,0,.329,3.174,3.174,0,0,0,1.344,1.963Z" transform="translate(35.936 20.195)" fill="url(#linear-gradient-13)"/>
        <path id="Path_3893" data-name="Path 3893" d="M119.79,70v.9l-6.77,6.336v-.9Z" transform="translate(35.849 22.203)" fill="#9e9e9e"/>
        <path id="Path_3894" data-name="Path 3894" d="M111.565,76.68a17.4,17.4,0,0,0,2.634-1.87v.9a16.121,16.121,0,0,1-2.634,1.857,21.611,21.611,0,0,1-2.345,1.172v-.9A21.571,21.571,0,0,0,111.565,76.68Z" transform="translate(34.643 23.729)" fill="#9e9e9e"/>
        <path id="Path_3895" data-name="Path 3895" d="M115.606,77.11v.9L89.17,89.254v-.883Z" transform="translate(28.284 24.459)" fill="#9e9e9e"/>
        <path id="Path_3896" data-name="Path 3896" d="M90,86.145v.883l-3.464-2v-.9Z" transform="translate(27.45 26.685)" fill="#9e9e9e"/>
        <path id="Path_3897" data-name="Path 3897" d="M86.54,87.971l19.521-15.279c.29-.224.606-.448.935-.672l4.123,8.97-21.075,9Z" transform="translate(27.45 22.844)" fill="#cacaca"/>
        <path id="Path_3898" data-name="Path 3898" d="M103.176,72.816a22.313,22.313,0,0,1,3.188-1.515L117.31,67.35v2.173a1.7,1.7,0,0,0,1,1.317,5.269,5.269,0,0,0,4.834,0l.105-.079h0l-6.784,6.428a17.348,17.348,0,0,1-2.634,1.857,21.611,21.611,0,0,1-2.345,1.172l-5.269,2.266-4.149-9.01A11.335,11.335,0,0,1,103.176,72.816Z" transform="translate(32.376 21.363)" fill="#cacaca"/>
        <path id="Path_3899" data-name="Path 3899" d="M103.176,72.816a22.313,22.313,0,0,1,3.188-1.515L117.31,67.35v2.173a1.7,1.7,0,0,0,1,1.317,5.269,5.269,0,0,0,4.834,0l.105-.079h0l-6.784,6.428a17.348,17.348,0,0,1-2.634,1.857,21.611,21.611,0,0,1-2.345,1.172l-5.269,2.266-4.149-9.01A11.335,11.335,0,0,1,103.176,72.816Z" transform="translate(32.376 21.363)" fill="#e9e9e9" opacity="0.45"/>
        <path id="Path_3900" data-name="Path 3900" d="M24.361,30.627a1,1,0,0,1,0,.2,1.923,1.923,0,0,1,.066.263,1.094,1.094,0,0,0,0,.2,2.028,2.028,0,0,0,.105.25l.079.2a2.291,2.291,0,0,1,.145.237,1.22,1.22,0,0,0,.132.2,1.632,1.632,0,0,0,.184.237,2.079,2.079,0,0,0,.158.2l.237.237a1.054,1.054,0,0,1,.171.171l.316.237.184.145c.171.119.356.237.566.356a12.764,12.764,0,0,0,11.618,0l.566-.356.132-.105.356-.277.145-.145a2.491,2.491,0,0,0,.263-.263l.132-.158.211-.263L40.233,32c0-.092.119-.171.158-.25l.079-.2a2.028,2.028,0,0,0,.105-.25.988.988,0,0,0,0-.211,1.528,1.528,0,0,0,0-.237c0-.066,0-.145,0-.211a3.952,3.952,0,0,0-2.2-3.622,12.75,12.75,0,0,0-11.631,0,4.044,4.044,0,0,0-2.384,3.359A1.685,1.685,0,0,0,24.361,30.627Z" transform="translate(7.726 8.125)" fill="#233a6a"/>
        <path id="Path_3901" data-name="Path 3901" d="M39.791,24.682v.224a1.317,1.317,0,0,1,0,.184.8.8,0,0,1-.092.224,1.936,1.936,0,0,1-.079.184,1.4,1.4,0,0,1-.132.224l-.092.158-.2.25-.119.132a1.5,1.5,0,0,1-.25.25l-.119.119a3.2,3.2,0,0,1-.329.263.936.936,0,0,1-.119.092l-.5.329a11.631,11.631,0,0,1-10.538,0l-.514-.329-.158-.132-.29-.224L26,26.539a1.805,1.805,0,0,1-.224-.224l-.145-.158-.171-.224-.105-.184-.132-.211-.079-.184c0-.079-.066-.145-.092-.224a.975.975,0,0,1,0-.184c0-.079,0-.158,0-.224a1,1,0,0,1,0-.2,1.159,1.159,0,0,1,0-.224h0v6.283a3.754,3.754,0,0,0,2.213,3.082,11.6,11.6,0,0,0,10.538,0,3.7,3.7,0,0,0,2.173-3.043V24.34a1.159,1.159,0,0,1,0,.211A1,1,0,0,1,39.791,24.682Z" transform="translate(7.944 7.708)" fill="url(#linear-gradient-14)"/>
        <path id="Path_3902" data-name="Path 3902" d="M25.019,25.505a1,1,0,0,0,0,.2v.224a.975.975,0,0,0,0,.184c0,.079.066.145.092.224l.079.184.132.211.105.184.171.224.145.158a1.8,1.8,0,0,0,.224.224l.145.145.29.224.158.132.514.329a11.631,11.631,0,0,0,10.538,0l.5-.329a.936.936,0,0,0,.119-.092,3.2,3.2,0,0,0,.329-.263l.119-.119a1.5,1.5,0,0,0,.25-.25l.119-.132.2-.25.092-.158a1.4,1.4,0,0,0,.132-.224,1.935,1.935,0,0,0,.079-.184.8.8,0,0,0,.092-.224,1.316,1.316,0,0,0,0-.184v-.224a1,1,0,0,0,0-.2A3.609,3.609,0,0,0,37.651,22.3a11.6,11.6,0,0,0-10.538,0,3.7,3.7,0,0,0-2.173,3.043,1.158,1.158,0,0,0,.079.158Z" transform="translate(7.911 6.674)" fill="#e9e9e9"/>
        <path id="Path_3903" data-name="Path 3903" d="M28.014,19.994a.185.185,0,0,1,0,.079.845.845,0,0,1,0,.092v.184l.066.105v.066l.092.105a.132.132,0,0,0,0,.066l.105.119.066.066.145.105h0l.237.158a5.348,5.348,0,0,0,4.834,0l.237-.158h0l.132-.105v-.066a.4.4,0,0,0,.105-.105v-.066l.079-.105v-.645a.25.25,0,0,0,0-.105h0v5.572A1.712,1.712,0,0,1,33.1,26.764a5.269,5.269,0,0,1-4.821,0,1.673,1.673,0,0,1-.263-1.423V19.994Z" transform="translate(8.867 6.271)" fill="url(#linear-gradient-15)"/>
        <path id="Path_3904" data-name="Path 3904" d="M34.757,20.363v.645l-.079.105v.066a.4.4,0,0,1-.105.105v.066l-.132.105h0l-.237.158a5.348,5.348,0,0,1-4.834,0l-.237-.158h0l-.145-.105-.066-.066-.105-.119a.132.132,0,0,1,0-.066l-.092-.105v-.066l-.066-.105v-.184A.843.843,0,0,0,28,20.547a.185.185,0,0,0,0-.092v-.092a1.633,1.633,0,0,1,1-1.515,5.387,5.387,0,0,1,4.834,0,1.712,1.712,0,0,1,.988,1.4A.25.25,0,0,1,34.757,20.363Z" transform="translate(8.881 5.797)" fill="#e9e9e9"/>
        <path id="Path_3905" data-name="Path 3905" d="M34.152,20.262v.079a.185.185,0,0,1,0,.079.566.566,0,0,1,0,.066v.158a.329.329,0,0,1,0,.092V20.8l-.079.079v.066l-.092.079-.066.066-.105.079h0a.856.856,0,0,1-.211.119,4.939,4.939,0,0,1-4.307,0,.672.672,0,0,1-.211-.119h0l-.145-.092h0a.356.356,0,0,1-.105-.092h0l-.079-.092v-.461a.171.171,0,0,1,0-.079,1.594,1.594,0,0,1,.9-1.317,5.032,5.032,0,0,1,4.307,0,1.4,1.4,0,0,1,.883,1.159.344.344,0,0,1-.685.066Z" transform="translate(9.118 5.885)" fill="#9e9e9e"/>
        <path id="Path_3906" data-name="Path 3906" d="M32.074,20.006h-.092a2.213,2.213,0,0,1-1.91,0H29.98a.619.619,0,0,1,.4-.553,2.173,2.173,0,0,1,1.9,0,.619.619,0,0,1,.4.514Z" transform="translate(9.509 6.101)" fill="#cacaca"/>
        <path id="Path_3907" data-name="Path 3907" d="M63.3.47v.9L50,10.573V9.69Z" transform="translate(15.86 0.149)" fill="#9e9e9e"/>
        <path id="Path_3908" data-name="Path 3908" d="M49.062,11.527Q52.447,9.591,55.5,7.47v.883q-3.056,2.121-6.441,4.07A115.912,115.912,0,0,1,32.65,20.168v-.883a114.6,114.6,0,0,0,16.412-7.758Z" transform="translate(10.356 2.369)" fill="#9e9e9e"/>
        <path id="Path_3909" data-name="Path 3909" d="M49.49,13.88a114.6,114.6,0,0,1-16.412,7.758l-.817.316-.962-.566.54-.474a85.986,85.986,0,0,1,13.409-9.457C47.5,10.14,49.872,8.9,52.322,7.716L68.273.05,69.235.6l-13.3,9.22Q52.876,11.931,49.49,13.88Z" transform="translate(9.928 0.016)" fill="#cacaca"/>
        <path id="Path_3910" data-name="Path 3910" d="M47.955,7.716,63.906.05,64.867.6l-13.3,9.22c-1.528,1.054-3.135,2.068-4.781,3.069L45.07,9.2C46.018,8.691,46.98,8.19,47.955,7.716Z" transform="translate(14.296 0.016)" fill="#e9e9e9" opacity="0.45"/>
        <path id="Path_3911" data-name="Path 3911" d="M35.17,21.279a6.9,6.9,0,0,1-3.78.79,6.586,6.586,0,0,1-3.267-1.014,3.174,3.174,0,0,1-1.4-1.976,2.384,2.384,0,0,1,0-.329,3.32,3.32,0,0,0,0,.9,3.174,3.174,0,0,0,1.4,1.963,6.586,6.586,0,0,0,3.267,1.014,7.021,7.021,0,0,0,3.78-.777,3.1,3.1,0,0,0,1.791-2.634v-.356A3.135,3.135,0,0,1,35.17,21.279Z" transform="translate(8.468 5.947)" fill="url(#linear-gradient-16)"/>
        <path id="Path_3912" data-name="Path 3912" d="M28.114,22.9a6.586,6.586,0,0,0,3.267,1.014,6.9,6.9,0,0,0,3.78-.79,3.135,3.135,0,0,0,1.778-2.41,9.8,9.8,0,0,0-1.106-4.189c-1.554-2.871-3.741-3.622-4.057-3.57a5.862,5.862,0,0,0-2.792,1.87,9.1,9.1,0,0,0-1.9,3.464,10.537,10.537,0,0,0-.356,1.726v.632a2.385,2.385,0,0,0,0,.329A3.174,3.174,0,0,0,28.114,22.9Z" transform="translate(8.477 4.107)" fill="url(#linear-gradient-17)"/>
        <path id="Path_3913" data-name="Path 3913" d="M33.25,19.29v.883l-6.77,6.336v-.883Z" transform="translate(8.399 6.119)" fill="#9e9e9e"/>
        <path id="Path_3914" data-name="Path 3914" d="M25.045,25.957A17.347,17.347,0,0,0,27.679,24.1v.883a15.358,15.358,0,0,1-2.634,1.857A21.614,21.614,0,0,1,22.7,28.012v-.9a22.838,22.838,0,0,0,2.345-1.159Z" transform="translate(7.2 7.644)" fill="#9e9e9e"/>
        <path id="Path_3915" data-name="Path 3915" d="M29.066,26.39v.9L2.63,38.548v-.9Z" transform="translate(0.834 8.371)" fill="#9e9e9e"/>
        <path id="Path_3916" data-name="Path 3916" d="M3.464,35.425v.9L0,34.306v-.9Z" transform="translate(0 10.597)" fill="#9e9e9e"/>
        <path id="Path_3917" data-name="Path 3917" d="M0,37.251,19.521,21.972c.29-.224.606-.448.935-.672l4.123,8.97-21.075,9Z" transform="translate(0 6.756)" fill="#cacaca"/>
        <path id="Path_3918" data-name="Path 3918" d="M16.614,22.093a23.169,23.169,0,0,1,3.2-1.5L30.76,16.64v2.147a1.739,1.739,0,0,0,1,1.4,5.269,5.269,0,0,0,4.821,0,.408.408,0,0,0,.119-.092h0l-6.77,6.349A19.428,19.428,0,0,1,27.3,28.3a25.9,25.9,0,0,1-2.345,1.159l-5.269,2.266-4.123-8.97C15.863,22.554,16.232,22.383,16.614,22.093Z" transform="translate(4.935 5.278)" fill="#cacaca"/>
        <path id="Path_3919" data-name="Path 3919" d="M16.614,22.093a23.169,23.169,0,0,1,3.2-1.5L30.76,16.64v2.147a1.739,1.739,0,0,0,1,1.4,5.269,5.269,0,0,0,4.821,0,.408.408,0,0,0,.119-.092h0l-6.77,6.349A19.428,19.428,0,0,1,27.3,28.3a25.9,25.9,0,0,1-2.345,1.159l-5.269,2.266-4.123-8.97C15.863,22.554,16.232,22.383,16.614,22.093Z" transform="translate(4.935 5.278)" fill="#e9e9e9" opacity="0.45"/>
        <path id="Path_3920" data-name="Path 3920" d="M102.821,41.014a1.487,1.487,0,0,1,0,.237c0,.105-.105.211-.158.329a1.7,1.7,0,0,1-.119.211,2.292,2.292,0,0,1-.3.329.908.908,0,0,1-.145.171,3.857,3.857,0,0,1-.632.448l-11.67,6.784a7.785,7.785,0,0,1-7.073,0L58.445,35.495a3.517,3.517,0,0,1-.645-.461l-.158-.158a3.531,3.531,0,0,1-.3-.342,1.569,1.569,0,0,1-.105-.211,1.963,1.963,0,0,1-.171-.329,1.487,1.487,0,0,1,0-.237,1.318,1.318,0,0,1,0-.316h0V49.457a2.529,2.529,0,0,0,1.488,2.068L82.629,65.54a7.771,7.771,0,0,0,7.086,0l11.657-6.77a2.437,2.437,0,0,0,1.449-2.028V40.606A1.392,1.392,0,0,1,102.821,41.014Z" transform="translate(18.097 10.607)" fill="url(#linear-gradient-18)"/>
        <path id="Path_3921" data-name="Path 3921" d="M57,36.116a1.489,1.489,0,0,0,0,.237,1.962,1.962,0,0,0,.171.329,1.568,1.568,0,0,0,.105.211,3.532,3.532,0,0,0,.3.342l.158.158a3.517,3.517,0,0,0,.645.461L82.622,51.843a7.785,7.785,0,0,0,7.073,0l11.67-6.784a3.859,3.859,0,0,0,.632-.448.91.91,0,0,0,.145-.171,2.3,2.3,0,0,0,.3-.329,1.7,1.7,0,0,0,.119-.211c0-.119.119-.224.158-.329a1.491,1.491,0,0,0,0-.237,2.331,2.331,0,0,0-1.423-2.371L77.182,26.975a7.785,7.785,0,0,0-7.073,0L58.451,33.758A2.489,2.489,0,0,0,57,35.8,1.317,1.317,0,0,0,57,36.116Z" transform="translate(18.078 8.287)" fill="#4167b4"/>
        <path id="Path_3922" data-name="Path 3922" d="M102.565,41.473a3.529,3.529,0,0,1-.3.342,1.72,1.72,0,0,0-.145.158,4.256,4.256,0,0,1-.645.448L89.8,49.2a7.785,7.785,0,0,1-7.073,0L58.465,35.216a5.071,5.071,0,0,1-.645-.461l-.158-.171a2.358,2.358,0,0,1-.3-.329s-.356-.4-.369-.435v.672s.092.158.092.171a1.568,1.568,0,0,0,.171.329,1.053,1.053,0,0,0,.105.211,3.528,3.528,0,0,0,.3.342,1.871,1.871,0,0,1,.158.171,3.951,3.951,0,0,0,.645.448l24.263,14a7.824,7.824,0,0,0,7.073,0l11.67-6.77a4.28,4.28,0,0,0,.645-.461l.145-.158a3.532,3.532,0,0,0,.3-.342,1.7,1.7,0,0,0,.119-.211c0-.105.145-.171.184-.277V40.735S102.591,41.447,102.565,41.473Z" transform="translate(18.077 10.727)" fill="#4167b4"/>
        <path id="Path_3923" data-name="Path 3923" d="M57,33.87v.672l.092.184a1.186,1.186,0,0,0,.158.316l.105.224c.079.105.184.211.29.329a2.36,2.36,0,0,1,.171.184l.171.132a3.162,3.162,0,0,0,.487.329l24.249,14a7.9,7.9,0,0,0,7.073,0l11.67-6.784a3.517,3.517,0,0,0,.645-.461l.145-.158a3.529,3.529,0,0,0,.3-.342.632.632,0,0,0,.105-.211h0c0-.105.145-.171.184-.277v-1.2s-.263.672-.29.711-.184.211-.29.329a1.869,1.869,0,0,1-.158.171l-.158.145c-.158.105-.316.224-.5.329L89.8,49.268a7.745,7.745,0,0,1-7.073,0L58.462,35.358a4.281,4.281,0,0,1-.593-.421h0l-.092-.105v-.079l-.224-.224a.935.935,0,0,1-.092-.119h0l-.382-.369A.4.4,0,0,1,57,33.87Z" transform="translate(18.08 10.743)" fill="#4167b4" opacity="0.91"/>
        <path id="Path_3924" data-name="Path 3924" d="M57,33.92v.659a1.534,1.534,0,0,1,.079.2,3.371,3.371,0,0,0,.145.316,1.317,1.317,0,0,0,.132.224,1.976,1.976,0,0,0,.263.316l.184.211.171.145a5.492,5.492,0,0,0,.5.342L82.725,50.319a7.9,7.9,0,0,0,7.073,0l11.67-6.784a3.518,3.518,0,0,0,.645-.461l.145-.158c.105-.119.224-.224.3-.329a.856.856,0,0,0,.105-.224h0c0-.105.145-.184.184-.277V40.9s-.25.632-.277.672a2.961,2.961,0,0,1-.277.316l-.171.2-.158.132a5.779,5.779,0,0,1-.514.356L89.8,49.344a7.785,7.785,0,0,1-7.073,0l-24.263-14a4.239,4.239,0,0,1-.593-.408h0l-.079-.105-.079-.079-.211-.224-.092-.119h0a3.289,3.289,0,0,0-.237-.3Z" transform="translate(18.08 10.759)" fill="#4167b4" opacity="0.82"/>
        <path id="Path_3925" data-name="Path 3925" d="M57,34v.659a1.12,1.12,0,0,0,.079.224,3.015,3.015,0,0,0,.132.3,2.135,2.135,0,0,0,.132.237,2.532,2.532,0,0,0,.25.3,1.5,1.5,0,0,0,.2.211l.171.158a5.784,5.784,0,0,0,.514.356L82.725,50.386a7.785,7.785,0,0,0,7.073,0l11.67-6.784a4.257,4.257,0,0,0,.645-.448l.145-.171a3.438,3.438,0,0,0,.3-.329.857.857,0,0,0,.105-.224h0c0-.105.145-.184.171-.29a1.317,1.317,0,0,0,0-.237v-.922s-.237.58-.263.632a3.468,3.468,0,0,1-.263.3l-.184.211-.158.145a4.084,4.084,0,0,1-.527.356L89.8,49.411a7.785,7.785,0,0,1-7.073,0L58.462,35.423A5.44,5.44,0,0,1,57.856,35h0l-.092-.105v-.079a1.8,1.8,0,0,1-.224-.224l-.092-.119-.237-.3Z" transform="translate(18.08 10.784)" fill="#4167b4" opacity="0.73"/>
        <path id="Path_3926" data-name="Path 3926" d="M57,34v.659a1.512,1.512,0,0,0,.079.224,2.864,2.864,0,0,0,.119.3l.132.25.237.29a1.7,1.7,0,0,0,.211.224l.158.158a4.306,4.306,0,0,0,.54.369l24.249,14a7.785,7.785,0,0,0,7.073,0l11.67-6.784a4.255,4.255,0,0,0,.645-.448l.145-.171a3.439,3.439,0,0,0,.3-.329,1.842,1.842,0,0,0,.119-.224h0a3.339,3.339,0,0,0,.171-.29,1.437,1.437,0,0,0,0-.237v-.909s-.237.54-.277.593a2.24,2.24,0,0,1-.224.3l-.211.224-.158.145a6.4,6.4,0,0,1-.54.369L89.8,49.49a7.785,7.785,0,0,1-7.073,0L58.462,35.5a4.438,4.438,0,0,1-.606-.421h0l-.092-.092-.079-.092a1.8,1.8,0,0,1-.224-.224l-.079-.132h0a3.655,3.655,0,0,1-.224-.3A1.317,1.317,0,0,1,57,34Z" transform="translate(18.08 10.784)" fill="#4167b4" opacity="0.64"/>
        <path id="Path_3927" data-name="Path 3927" d="M57,34.05v.659a1.829,1.829,0,0,0,.079.25,1.185,1.185,0,0,0,.105.277,1.634,1.634,0,0,0,.132.263c.066.105.145.184.224.29a1.856,1.856,0,0,0,.224.237l.158.158a5.835,5.835,0,0,0,.553.382L82.725,50.554a7.785,7.785,0,0,0,7.073,0l11.67-6.784a4.255,4.255,0,0,0,.645-.448l.145-.171a2.357,2.357,0,0,0,.3-.329c0-.079.079-.145.119-.211h0a3.342,3.342,0,0,0,.171-.29,1.592,1.592,0,0,0,0-.25v-.883s-.224.5-.263.553a1.475,1.475,0,0,1-.211.29l-.224.237a.831.831,0,0,1-.158.145,3.7,3.7,0,0,1-.553.382L89.8,49.566a7.785,7.785,0,0,1-7.073,0L58.462,35.578a3.569,3.569,0,0,1-.606-.435h0a.607.607,0,0,0-.092-.092.1.1,0,0,0-.079-.092l-.211-.224-.092-.132h0l-.224-.316A1.849,1.849,0,0,1,57,34.05Z" transform="translate(18.08 10.8)" fill="#4167b4" opacity="0.55"/>
        <path id="Path_3928" data-name="Path 3928" d="M57,34.1v.659a1.752,1.752,0,0,0,0,.25,2.374,2.374,0,0,0,.105.277,1.4,1.4,0,0,0,.145.277,1.318,1.318,0,0,0,.2.263,1.475,1.475,0,0,0,.237.263l.158.158a4.755,4.755,0,0,0,.566.4L82.726,50.631a7.785,7.785,0,0,0,7.073,0l11.67-6.784a4.256,4.256,0,0,0,.645-.448l.145-.171a2.356,2.356,0,0,0,.3-.329c0-.079.079-.145.119-.211h0c0-.105.132-.2.171-.29a.529.529,0,0,0,0-.25v-.869s-.211.448-.25.514-.132.184-.2.277-.158.171-.237.263l-.158.145a5.27,5.27,0,0,1-.566.4L89.8,49.63a7.745,7.745,0,0,1-7.073,0L58.463,35.654c-.224-.145-.435-.29-.619-.435v-.066a.6.6,0,0,1-.092-.092l-.079-.092a1.911,1.911,0,0,1-.224-.237L57.37,34.6h0l-.211-.316Z" transform="translate(18.079 10.816)" fill="#4167b4" opacity="0.45"/>
        <path id="Path_3929" data-name="Path 3929" d="M57,34.15V34.8a1.54,1.54,0,0,0,0,.263,2.265,2.265,0,0,0,.092.277l.145.29a1.515,1.515,0,0,0,.184.25,2.373,2.373,0,0,0,.25.277,1.79,1.79,0,0,0,.158.158,5,5,0,0,0,.58.408L82.726,50.707a7.785,7.785,0,0,0,7.073,0l11.67-6.784a4.253,4.253,0,0,0,.645-.448l.145-.171a2.358,2.358,0,0,0,.3-.329c0-.079.079-.145.119-.211h0c0-.105.132-.2.171-.3a.469.469,0,0,0,0-.237v-.856s-.2.408-.237.487l-.184.25-.25.277-.158.158a3.425,3.425,0,0,1-.58.4L89.8,49.759a7.785,7.785,0,0,1-7.073,0L58.463,35.717a3.688,3.688,0,0,1-.619-.435h0l-.092-.092-.079-.092a1.7,1.7,0,0,1-.211-.237.8.8,0,0,1-.092-.132h0c0-.092-.145-.211-.2-.316Z" transform="translate(18.078 10.832)" fill="#4167b4" opacity="0.36"/>
        <path id="Path_3930" data-name="Path 3930" d="M57,34.19v.659a1.055,1.055,0,0,0,0,.277,1.925,1.925,0,0,0,.066.263,3.15,3.15,0,0,0,.158.29l.158.25a2.805,2.805,0,0,0,.277.29l.158.158a4.282,4.282,0,0,0,.593.422L82.727,50.787a7.785,7.785,0,0,0,7.073,0L101.471,44a4.255,4.255,0,0,0,.645-.448l.145-.171a2.356,2.356,0,0,0,.3-.329,1.694,1.694,0,0,0,.119-.211h0a1.672,1.672,0,0,0,.158-.3,1.491,1.491,0,0,0,0-.237v-.843a2.914,2.914,0,0,1-.237.448,1.91,1.91,0,0,1-.158.25l-.263.277a.9.9,0,0,1-.158.158,4.28,4.28,0,0,1-.593.421L89.8,49.746a7.785,7.785,0,0,1-7.073,0L58.464,35.8a4.858,4.858,0,0,1-.632-.448h0l-.145-.092-.079-.092-.224-.237a.791.791,0,0,1-.079-.145h0a2.556,2.556,0,0,1-.2-.316S57,34.2,57,34.19Z" transform="translate(18.078 10.845)" fill="#4167b4" opacity="0.27"/>
        <path id="Path_3931" data-name="Path 3931" d="M57,34.24v.645a1.146,1.146,0,0,0,0,.356,1.871,1.871,0,0,0,0,.263c0,.092.105.2.158.3a1.1,1.1,0,0,0,.145.224,3.161,3.161,0,0,0,.29.316l.158.158a3.57,3.57,0,0,0,.606.435L82.728,50.863a7.785,7.785,0,0,0,7.073,0l11.67-6.784a4.255,4.255,0,0,0,.645-.448l.145-.171a2.355,2.355,0,0,0,.3-.329,1.7,1.7,0,0,0,.119-.211h0a1.67,1.67,0,0,0,.158-.3,1.779,1.779,0,0,0,0-.237,5.617,5.617,0,0,0,0-.83,3.135,3.135,0,0,1-.224.408,2.289,2.289,0,0,1-.145.237c-.079.105-.184.2-.277.3l-.145.158a4.611,4.611,0,0,1-.619.422L89.8,49.849a7.785,7.785,0,0,1-7.073,0L58.465,35.86a3.859,3.859,0,0,1-.632-.448h-.066a.355.355,0,0,0-.092-.105l-.079-.092-.224-.237-.079-.145h0l-.184-.329Z" transform="translate(18.076 10.861)" fill="#4167b4" opacity="0.18"/>
        <path id="Path_3932" data-name="Path 3932" d="M57,34.29v.632a2.635,2.635,0,0,0,0,.3,1.526,1.526,0,0,0,0,.237,1.857,1.857,0,0,0,.171.316,1.2,1.2,0,0,0,.119.224,2.252,2.252,0,0,0,.29.329,1.794,1.794,0,0,1,.158.158,3.859,3.859,0,0,0,.632.448l24.355,14a7.785,7.785,0,0,0,7.073,0l11.67-6.784a4.254,4.254,0,0,0,.645-.448l.145-.171a2.355,2.355,0,0,0,.3-.329,1.7,1.7,0,0,0,.119-.211h0a3.341,3.341,0,0,0,.158-.3,1.649,1.649,0,0,0,0-.25,5.761,5.761,0,0,0,0-.8,3.446,3.446,0,0,1-.224.369l-.132.224a3.16,3.16,0,0,1-.29.316l-.145.171a4.825,4.825,0,0,1-.632.435L89.8,49.925a7.785,7.785,0,0,1-7.073,0L58.463,35.936a4.862,4.862,0,0,1-.632-.448l-.066-.066-.092-.105-.079-.092a.988.988,0,0,1-.224-.25.316.316,0,0,1-.079-.145h0a2.636,2.636,0,0,1-.171-.329Z" transform="translate(18.079 10.876)" fill="#4167b4" opacity="0.09"/>
        <path id="Path_3933" data-name="Path 3933" d="M102.567,42.259a3.523,3.523,0,0,1-.3.342l-.145.158a4.28,4.28,0,0,1-.645.461L89.8,49.991a7.824,7.824,0,0,1-7.073,0L58.468,36a3.952,3.952,0,0,1-.645-.448,1.871,1.871,0,0,0-.158-.171,3.53,3.53,0,0,1-.3-.342,1.054,1.054,0,0,1-.105-.211,1.568,1.568,0,0,1-.171-.329s-.092-.158-.092-.171v.645a1.318,1.318,0,0,0,0,.316,1.491,1.491,0,0,0,0,.237q.143.268.277.54a3.53,3.53,0,0,0,.3.342.975.975,0,0,1,.158.171,5.029,5.029,0,0,0,.645.448L82.73,51.019a7.785,7.785,0,0,0,7.073,0l11.67-6.784a4.254,4.254,0,0,0,.645-.448l.145-.171a2.357,2.357,0,0,0,.3-.329,1.7,1.7,0,0,0,.119-.211c0-.119.119-.224.158-.329a1.487,1.487,0,0,0,0-.237,5.382,5.382,0,0,0,0-.777c0,.092-.158.211-.211.316A1.7,1.7,0,0,1,102.567,42.259Z" transform="translate(18.074 10.889)" fill="#4167b4" opacity="0"/>
        <path id="Path_3934" data-name="Path 3934" d="M84.52,42.055c4.149-2.41,4.123-6.309,0-8.72a16.57,16.57,0,0,0-15.055,0c-4.136,2.41-4.11,6.309,0,8.72h0A16.57,16.57,0,0,0,84.52,42.055Z" transform="translate(21.053 10)" fill="#ecf3ff"/>
        <path id="Path_3935" data-name="Path 3935" d="M82.987,39.4l-3.859-2.226,3.833-2.226-3.082-1.765-3.833,2.226L72.186,33.17,69.13,34.948l3.859,2.226L69.169,39.4l3.069,1.778,3.833-2.226,3.859,2.226Z" transform="translate(21.927 10.521)" fill="#23d1fd"/>
        <path id="Path_3936" data-name="Path 3936" d="M63.06,50.03V52.8l3.846,2.239V52.269Z" transform="translate(20.002 15.869)" fill="#cacaca"/>
        <path id="Path_3937" data-name="Path 3937" d="M67.315,52.2c.25-.435.474-.8.724-1.251l.408-.711L64.6,48c-.606,1.041-.935,1.633-1.541,2.634l3.873,2.279Z" transform="translate(20.002 15.225)" fill="#e9e9e9"/>
        <path id="Path_3938" data-name="Path 3938" d="M68.84,49.909,64.994,47.67l-.764.448,3.846,2.226Z" transform="translate(20.373 15.12)" fill="#cacaca"/>
        <path id="Path_3939" data-name="Path 3939" d="M68.285,49.37l-.764.435-.408.711c-.25.448-.474.817-.724,1.251l-.408.711v2.766L68.3,53.927Z" transform="translate(20.928 15.66)" fill="#9e9e9e"/>
      </g>
    </g>
  </g>
</svg>
