<svg xmlns="http://www.w3.org/2000/svg" xmlns:xlink="http://www.w3.org/1999/xlink" width="813.976" height="569.752" viewBox="0 0 813.976 569.752">
  <defs>
    <linearGradient id="linear-gradient" x1="0.5" y1="1" x2="0.5" gradientUnits="objectBoundingBox">
      <stop offset="0" stop-color="gray" stop-opacity="0.251"/>
      <stop offset="0.54" stop-color="gray" stop-opacity="0.122"/>
      <stop offset="1" stop-color="gray" stop-opacity="0.102"/>
    </linearGradient>
  </defs>
  <g id="drone_and_Clouds" data-name="drone and Clouds" transform="translate(-2270.948 -3749)">
    <g id="undraw_to_do_xvvc" transform="translate(2271 3749)">
      <path id="Path_4651" data-name="Path 4651" d="M841.074,363.79A190.434,190.434,0,0,1,620.5,551.709H318.776a258.642,258.642,0,0,1-35.166,2.4c-114.626,0-211.7-75.2-244.54-178.961a256.3,256.3,0,0,1-11.921-77.5c0-141.643,114.825-256.46,256.46-256.46,114.072,0,210.731,74.459,244.042,177.469a189.568,189.568,0,0,1,123.137-45.19C755.867,173.47,841.074,258.677,841.074,363.79Z" transform="translate(-27.15 -41.19)" fill="#3346d1" opacity="0.1"/>
      <path id="Path_4652" data-name="Path 4652" d="M772.825,613.244a190.612,190.612,0,0,1-147.468,37.972H323.635a258.641,258.641,0,0,1-35.166,2.4c-114.626,0-211.7-75.2-244.54-178.961C68.489,422.164,131.6,384.81,205.6,384.81c72.107,0,133.878,35.478,159.709,85.868a214.416,214.416,0,0,1,38.5-3.46c74.736,0,138.368,38.114,162.394,91.438a210.015,210.015,0,0,1,61.387-9.029C688.541,549.627,742.113,574.974,772.825,613.244Z" transform="translate(-32.009 -140.697)" fill="#3346d1" opacity="0.1"/>
      <path id="Path_4655" data-name="Path 4655" d="M921.805,284.666a5.355,5.355,0,0,1-.966-2.984c0-6.472,13.2-11.722,29.482-11.722s29.482,5.25,29.482,11.722a5.558,5.558,0,0,1-1.222,3.332c18.13,2.018,30.349,5.811,30.349,10.166,0,6.472-27.038,11.722-60.385,11.722s-60.385-5.25-60.385-11.722C888.16,290.591,901.871,286.584,921.805,284.666Z" transform="translate(-276.484 -107.438)" fill="#3346d1" opacity="0.1"/>
      <path id="Path_4656" data-name="Path 4656" d="M775.26,110.749a4.425,4.425,0,0,1-.789-2.437c0-5.285,10.77-9.562,24.048-9.562s24.055,4.263,24.055,9.562a4.525,4.525,0,0,1-.987,2.714c14.784,1.655,24.751,4.746,24.751,8.3,0,5.278-22.023,9.562-49.26,9.562s-49.267-4.263-49.267-9.562C747.81,115.558,759,112.312,775.26,110.749Z" transform="translate(-235.841 -57.858)" fill="#3346d1" opacity="0.1"/>
      <path id="Path_4657" data-name="Path 4657" d="M320.292,171.189a5.321,5.321,0,0,1-1.591-2.7c-1.421-6.323,10.329-14.315,26.221-17.853s29.923-1.293,31.329,5.03a5.569,5.569,0,0,1-.462,3.517c18.13-1.968,30.882-.924,31.827,3.325,1.421,6.316-23.842,17.32-56.393,24.566s-60.08,8.014-61.487,1.691C288.735,184.268,301.274,177.405,320.292,171.189Z" transform="translate(-103.175 -72.399)" fill="#3346d1" opacity="0.1"/>
      <path id="Path_4658" data-name="Path 4658" d="M216.359,168.848c-1.655-.959-3.893-.043-5.03,1.5a12.022,12.022,0,0,0-1.741,5.42c-.632,4.2-1.094,9.022,1.741,12.191A39.644,39.644,0,0,0,178.65,161.58" transform="translate(-71.022 -76.053)" fill="none" stroke="#3346d1" stroke-miterlimit="10" stroke-width="3" opacity="0.1"/>
      <path id="Path_4659" data-name="Path 4659" d="M424.885,263.146a2.652,2.652,0,0,0-3.232.966,7.7,7.7,0,0,0-1.122,3.481c-.4,2.707-.71,5.8,1.122,7.815A25.475,25.475,0,0,0,400.66,258.45" transform="translate(-135.312 -104.105)" fill="none" stroke="#3346d1" stroke-miterlimit="10" stroke-width="3" opacity="0.1"/>
      <path id="Path_4660" data-name="Path 4660" d="M755.385,203.869a2.661,2.661,0,0,0-3.232.966,7.692,7.692,0,0,0-1.123,3.488c-.4,2.7-.71,5.8,1.123,7.815A25.49,25.49,0,0,0,731.16,199.18" transform="translate(-231.019 -86.941)" fill="none" stroke="#3346d1" stroke-miterlimit="10" stroke-width="3" opacity="0.1"/>
      <path id="Path_4661" data-name="Path 4661" d="M226.132,804.622a32.467,32.467,0,0,1-.7,6.809c-.088.421-.184.877-.281,1.237-2.492,9.994-9.52,17.3-17.909,17.768h-.877c-8.871,0-16.373-7.651-18.848-18.19-.07-.281-.132-.562-.193-.878a32.467,32.467,0,0,1-.7-6.809c0-14.276,8.836-25.841,19.743-25.841S226.132,790.372,226.132,804.622Z" transform="translate(-139.315 -264.611)" fill="#3f3d56"/>
      <path id="Path_4663" data-name="Path 4663" d="M261.643,745.256a39.959,39.959,0,0,0-4.3-18.084l-23.217,7.221,20.383-11.986a40.126,40.126,0,0,0-30.149-17.181,40.061,40.061,0,0,0-3.133-4.141l-33.343,10.38,27.35-16.084a40.126,40.126,0,0,0-63.176,21.4L180.62,749.66l-30.983-22.41a40.135,40.135,0,0,0,35.914,70.81,40.292,40.292,0,0,0,25.692.711,40.17,40.17,0,0,0,48.8-39.187c0-.878,0-1.755-.088-2.633A40.039,40.039,0,0,0,261.643,745.256Z" transform="translate(-132.709 -253.382)" fill="#3346d1"/>
      <path id="Path_4664" data-name="Path 4664" d="M260.942,760.573a106.962,106.962,0,0,0-37.151-.474c-13.943,2.308-28.192,7.379-41.828,3.677-8-2.176-14.917-7.213-22.735-10.012a43.153,43.153,0,0,0-23.472-1.4A40.152,40.152,0,0,0,185.5,805.937a40.291,40.291,0,0,0,25.692.711,40.17,40.17,0,0,0,48.8-39.187c0-.878,0-1.755-.088-2.632A39.66,39.66,0,0,0,260.942,760.573Z" transform="translate(-132.701 -261.258)" opacity="0.1"/>
      <path id="Path_4665" data-name="Path 4665" d="M1022.116,748.436l35.349-20.8a85.254,85.254,0,0,0-18.073-21.67l-66.685,20.8,52.252-30.72A84.949,84.949,0,0,0,899.2,770.592c0,46.913,38.036,48.542,84.949,48.542s84.949-1.63,84.949-48.542a84.648,84.648,0,0,0-7.29-34.465Z" transform="translate(-255.337 -251.895)" fill="#3346d1"/>
      <path id="Path_4666" data-name="Path 4666" d="M1031.064,802.4c-3.606-3.909-8.088-6.935-12.526-9.838-6.423-4.256-13.063-8.608-20.622-10.055-6.648-1.274-13.505-.2-20.258-.589A47.346,47.346,0,0,1,946.617,767.7c-4.828-4.993-8.625-11.122-14.433-14.935-6.258-4.109-14.2-4.993-21.619-3.97a57.269,57.269,0,0,0-6.4,1.309,84.711,84.711,0,0,0-5.019,28.822c0,46.913,38.036,48.542,84.949,48.542,22.763,0,43.437-.381,58.693-6.137l-2.548-4.767C1037.591,811.583,1034.886,806.555,1031.064,802.4Z" transform="translate(-255.331 -260.259)" opacity="0.1"/>
    </g>
    <g id="undraw_Follow_me_drone_kn76" transform="translate(2530.548 3953.805)">
      <g id="Group_4635" data-name="Group 4635" transform="translate(0 0)">
        <path id="Path_4689" data-name="Path 4689" d="M988.649,213.425a135.627,135.627,0,0,0-19.388,1.2h0a4.656,4.656,0,1,0-9.312,0h0a135.63,135.63,0,0,0-19.388-1.2c-14.355,0-25.987,1.6-25.987,3.586s11.633,3.586,25.987,3.586a135.625,135.625,0,0,0,19.388-1.2h0a4.876,4.876,0,0,0,.3,1.684,3.213,3.213,0,0,0-.31,5.17,8.684,8.684,0,0,0-5.1,4.824,7.81,7.81,0,0,0-4.46-1.666l-48.3-2.221a18.715,18.715,0,0,0-15.137-7.792h-30.43a18.715,18.715,0,0,0-15.219,7.883L795.4,229.391a7.81,7.81,0,0,0-4.178,1.447,8.7,8.7,0,0,0-4.469-4.406,3.2,3.2,0,0,0,1.411-2.667,3.168,3.168,0,0,0-2.139-3.013,4.906,4.906,0,0,0,.2-1.365h0a135.627,135.627,0,0,0,19.388,1.2c14.354,0,25.987-1.6,25.987-3.586s-11.633-3.586-25.987-3.586a135.627,135.627,0,0,0-19.388,1.2h0a4.724,4.724,0,0,0-4.651-4.788h0a4.724,4.724,0,0,0-4.651,4.788h0a135.624,135.624,0,0,0-19.388-1.2c-14.355,0-25.987,1.6-25.987,3.586s11.633,3.586,25.987,3.586a135.624,135.624,0,0,0,19.388-1.2h0a4.878,4.878,0,0,0,.3,1.684,3.222,3.222,0,0,0-.191,5.27,8.8,8.8,0,0,0-5.543,8.192v5.9a8.693,8.693,0,0,0,8.574,8.811h3.413a8.475,8.475,0,0,0,6.872-3.559,7.837,7.837,0,0,0,5.2,2.194l45,1.293a19.29,19.29,0,0,0,5.58,5.844c-4.305,4.5-21.109,24.449-18.405,59.612,0,0,2.731,5.179,9.694,0,0,0-4.46-39.141,20.517-55.307a6.217,6.217,0,0,0,5.853,4.278h3.186a17.14,17.14,0,0,0-10.559,15.948,16.685,16.685,0,1,0,33.351,0,17.14,17.14,0,0,0-10.559-15.856H882.4a6.217,6.217,0,0,0,5.853-4.278c24.986,16.111,20.526,55.252,20.526,55.252,6.981,5.179,9.694,0,9.694,0,3.1-40.26-19.388-60.6-19.388-60.6h-.41a19.35,19.35,0,0,0,4.214-4.788l47.333-1.365a7.856,7.856,0,0,0,5.461-2.412,8.493,8.493,0,0,0,7.036,3.777h3.413a8.693,8.693,0,0,0,8.575-8.811v-5.907a8.82,8.82,0,0,0-5.079-8.037,3.2,3.2,0,0,0-.546-5.78,4.9,4.9,0,0,0,.2-1.365h0a135.626,135.626,0,0,0,19.388,1.2c14.354,0,25.988-1.6,25.988-3.586S1003.012,213.425,988.649,213.425Z" transform="translate(-731.55 -209.83)" fill="url(#linear-gradient)"/>
        <circle id="Ellipse_379" data-name="Ellipse 379" cx="16.166" cy="16.166" r="16.166" transform="translate(124.066 52.685)" fill="#3346d1"/>
        <circle id="Ellipse_380" data-name="Ellipse 380" cx="10.905" cy="10.905" r="10.905" transform="translate(129.328 57.946)" fill="#3346d1"/>
        <circle id="Ellipse_381" data-name="Ellipse 381" cx="10.905" cy="10.905" r="10.905" transform="translate(129.328 57.946)" fill="#f5f5f5" opacity="0.2"/>
        <circle id="Ellipse_382" data-name="Ellipse 382" cx="7.145" cy="7.145" r="7.145" transform="translate(133.087 61.706)" fill="#3346d1"/>
        <circle id="Ellipse_383" data-name="Ellipse 383" cx="7.145" cy="7.145" r="7.145" transform="translate(133.087 61.706)" opacity="0.25"/>
        <path id="Path_4690" data-name="Path 4690" d="M856.048,259s-21.846,19.179-18.8,57.145c0,0,2.631,4.888,9.4,0,0,0-5.643-48.125,31.959-57.145Z" transform="translate(-741.011 -214.243)" fill="#3346d1"/>
        <path id="Path_4691" data-name="Path 4691" d="M911.055,259s21.846,19.179,18.8,57.145c0,0-2.631,4.888-9.4,0,0,0,5.644-48.125-31.959-57.145Z" transform="translate(-745.636 -214.243)" fill="#3346d1"/>
        <rect id="Rectangle_2225" data-name="Rectangle 2225" width="66.175" height="36.656" rx="16.95" transform="translate(105.834 12.079)" fill="#3346d1"/>
        <path id="Path_4692" data-name="Path 4692" d="M853.887,252.15,802.258,250.7a7.746,7.746,0,0,1-7.528-7.737v-1.957a7.746,7.746,0,0,1,7.4-7.737l51.63-2.312a7.746,7.746,0,0,1,8.092,7.737v5.744a7.746,7.746,0,0,1-7.965,7.71Z" transform="translate(-737.221 -211.726)" fill="#3346d1"/>
        <path id="Path_4693" data-name="Path 4693" d="M910.295,252.15l51.629-1.447a7.746,7.746,0,0,0,7.528-7.737v-1.957a7.746,7.746,0,0,0-7.4-7.737l-51.63-2.312a7.746,7.746,0,0,0-8.092,7.737v5.744a7.746,7.746,0,0,0,7.965,7.71Z" transform="translate(-746.878 -211.726)" fill="#3346d1"/>
        <path id="Path_4694" data-name="Path 4694" d="M853.887,252.15,802.258,250.7a7.746,7.746,0,0,1-7.528-7.737v-1.957a7.746,7.746,0,0,1,7.4-7.737l51.63-2.312a7.746,7.746,0,0,1,8.092,7.737v5.744a7.746,7.746,0,0,1-7.965,7.71Z" transform="translate(-737.221 -211.726)" fill="#f5f5f5" opacity="0.2"/>
        <path id="Path_4695" data-name="Path 4695" d="M910.295,252.15l51.629-1.447a7.746,7.746,0,0,0,7.528-7.737v-1.957a7.746,7.746,0,0,0-7.4-7.737l-51.63-2.312a7.746,7.746,0,0,0-8.092,7.737v5.744a7.746,7.746,0,0,0,7.965,7.71Z" transform="translate(-746.878 -211.726)" fill="#f5f5f5" opacity="0.2"/>
        <rect id="Rectangle_2226" data-name="Rectangle 2226" width="19.925" height="22.183" rx="9.21" transform="translate(41.725 18.096)" fill="#3346d1"/>
        <rect id="Rectangle_2227" data-name="Rectangle 2227" width="19.925" height="22.183" rx="9.21" transform="translate(218.814 18.096)" fill="#3346d1"/>
        <rect id="Rectangle_2228" data-name="Rectangle 2228" width="12.033" height="6.017" rx="2.78" transform="translate(45.858 13.207)" fill="#3346d1"/>
        <rect id="Rectangle_2229" data-name="Rectangle 2229" width="9.021" height="13.535" rx="4.17" transform="translate(46.987 3.049)" fill="#3346d1"/>
        <ellipse id="Ellipse_384" data-name="Ellipse 384" cx="25.186" cy="3.386" rx="25.186" ry="3.386" transform="translate(3.004 6.435)" fill="#3346d1"/>
        <ellipse id="Ellipse_385" data-name="Ellipse 385" cx="25.186" cy="3.386" rx="25.186" ry="3.386" transform="translate(49.627 6.435)" fill="#3346d1"/>
        <rect id="Rectangle_2230" data-name="Rectangle 2230" width="12.033" height="6.017" rx="2.78" transform="translate(223.329 13.207)" fill="#3346d1"/>
        <rect id="Rectangle_2231" data-name="Rectangle 2231" width="9.021" height="13.535" rx="4.17" transform="translate(224.457 3.049)" fill="#3346d1"/>
        <ellipse id="Ellipse_386" data-name="Ellipse 386" cx="25.186" cy="3.386" rx="25.186" ry="3.386" transform="translate(180.465 6.435)" fill="#3346d1"/>
        <ellipse id="Ellipse_387" data-name="Ellipse 387" cx="25.186" cy="3.386" rx="25.186" ry="3.386" transform="translate(227.088 6.435)" fill="#3346d1"/>
        <ellipse id="Ellipse_388" data-name="Ellipse 388" cx="25.186" cy="3.386" rx="25.186" ry="3.386" transform="translate(3.004 6.435)" fill="#f5f5f5" opacity="0.2"/>
        <ellipse id="Ellipse_389" data-name="Ellipse 389" cx="25.186" cy="3.386" rx="25.186" ry="3.386" transform="translate(49.627 6.435)" fill="#f5f5f5" opacity="0.2"/>
        <ellipse id="Ellipse_390" data-name="Ellipse 390" cx="25.186" cy="3.386" rx="25.186" ry="3.386" transform="translate(180.465 6.435)" fill="#f5f5f5" opacity="0.2"/>
        <ellipse id="Ellipse_391" data-name="Ellipse 391" cx="25.186" cy="3.386" rx="25.186" ry="3.386" transform="translate(227.088 6.435)" fill="#f5f5f5" opacity="0.2"/>
        <rect id="Rectangle_2232" data-name="Rectangle 2232" width="30.074" height="12.033" rx="5.56" transform="translate(125.195 41.78)" fill="#3346d1"/>
        <rect id="Rectangle_2233" data-name="Rectangle 2233" width="30.074" height="12.033" rx="5.56" transform="translate(125.195 41.78)" fill="#f5f5f5" opacity="0.2"/>
      </g>
      <ellipse id="Ellipse_392" data-name="Ellipse 392" cx="142.908" cy="18.205" rx="142.908" ry="18.205" transform="translate(8.602 328.537)" fill="#3346d1" opacity="0.1"/>
    </g>
  </g>
</svg>
