<svg xmlns="http://www.w3.org/2000/svg" xmlns:xlink="http://www.w3.org/1999/xlink" width="147.182" height="294.418" viewBox="0 0 147.182 294.418">
  <defs>
    <linearGradient id="linear-gradient" x1="1.091" y1="0.446" x2="0.234" y2="0.51" gradientUnits="objectBoundingBox">
      <stop offset="0.01"/>
      <stop offset="0.13" stop-opacity="0.69"/>
      <stop offset="1" stop-opacity="0"/>
    </linearGradient>
    <linearGradient id="linear-gradient-2" x1="1.053" y1="0.494" x2="-0.334" y2="0.508" xlink:href="#linear-gradient"/>
    <linearGradient id="linear-gradient-3" x1="-0.265" y1="0.55" x2="2.803" y2="0.309" xlink:href="#linear-gradient"/>
    <linearGradient id="linear-gradient-4" x1="0.244" y1="0.844" x2="1.246" y2="-0.204" xlink:href="#linear-gradient"/>
  </defs>
  <g id="Girl_Flying_drone" data-name="Girl Flying drone" transform="translate(-1780 -26.339)">
    <path id="Path_4613" data-name="Path 4613" d="M240.537,110.87a9.567,9.567,0,0,1,6.936-2.99,14.216,14.216,0,0,1-2.347,7.01,10.466,10.466,0,0,0-1.315,2.661,2.84,2.84,0,0,0,.6,2.765c.493.478,1.211.7,1.495,1.286a1.779,1.779,0,0,1-.508,2.123,5.2,5.2,0,0,1-2.138.987l-3.886,1.091a4.634,4.634,0,0,1-2.99.164C230.478,123.456,238.37,113.127,240.537,110.87Z" transform="translate(1635.584 -38.3)" fill="#f3bd8f"/>
    <path id="Path_4614" data-name="Path 4614" d="M229.207,125.385a15.067,15.067,0,0,0,6.368-2.706,38.656,38.656,0,0,0,8.236-7.369,29.148,29.148,0,0,1,8.386,10.6,2.242,2.242,0,0,1-.344,2.99c-5.605,6.472-12.915,12.422-21.48,12.735a18.819,18.819,0,0,1-12.735-4.38c-3.528-2.99-9.9-13.229-4.873-17.4,2.661-2.212,4.813.6,6.8,2.167A13.274,13.274,0,0,0,229.207,125.385Z" transform="translate(1624.044 -34.623)" fill="#3346d1"/>
    <path id="Path_4618" data-name="Path 4618" d="M17.483,18.433a47.26,47.26,0,0,1-.568,6.966,72.72,72.72,0,0,1-3.587,11A131.2,131.2,0,0,0,8.843,53.993L.129,96.848a3.348,3.348,0,0,0,0,1.839A2.989,2.989,0,0,0,1.175,99.9a17,17,0,0,0,4.679,2.646,2.661,2.661,0,0,0,1.689.194,2.99,2.99,0,0,0,1.495-1.629,81.3,81.3,0,0,0,7.683-18.535C25.689,51.407,35.3,32.588,37.079,17.207c.3-2.5,2.99-4.753,1.674-6.891A9.747,9.747,0,0,0,35.48,6.923C32.087,4.651,24.389-2.046,19.875.615,15.884,2.812,17.617,14.427,17.483,18.433Z" transform="matrix(0.848, -0.53, 0.53, 0.848, 1799.412, 206.49)" fill="#f3bd8f"/>
    <path id="Path_4619" data-name="Path 4619" d="M68.847,8.455a3.737,3.737,0,0,1-3.827,3.3c-20.688,3.139-42.317,3.6-61.2,12.6A7.1,7.1,0,0,0,.685,26.676c-1.749,2.72.523,6.442-.478,9.507,11.674.359,23.3-1.495,34.828-3.378l42.81-6.936c2.72-.448,5.635-.987,7.564-2.99a13.154,13.154,0,0,0,2.78-5.979L91.537,4.315c.673-2.481.778-1.053-.328-3.325-1.495-3.214-2.131,2.444-5.673,2.25C75.013,2.657,71.343.234,68.847,8.455Z" transform="translate(1780 275.874) rotate(-74)" fill="#f3bd8f"/>
    <path id="Path_4622" data-name="Path 4622" d="M217.665,101.57c.433,4.245.9,8.774,3.617,12.063,1.121,1.36,2.571,2.436,3.573,3.886a8.057,8.057,0,0,1,1.42,4.619c-7.25-.329-14.35,2.99-21.585,2.332a34.38,34.38,0,0,1,.523-12.033c1.241-5.516,3.886-10.837,3.632-16.442-.075-1.854-.523-4.141.643-5.785.972-1.36,3.229-2.078,4.484-.732a15.86,15.86,0,0,1,2.392,5.112,32.121,32.121,0,0,1,1.3,6.981Z" transform="translate(1620.818 -47.76)" fill="#3e3e54"/>
    <path id="Path_4623" data-name="Path 4623" d="M219.744,114.645c12.8,7.474,17.937,34.993,19.985,41.764a99.687,99.687,0,0,1,3.752,31.614c-.1,4.694-.448,9.552-2.511,13.767-2.84,5.8-8.64,9.731-14.813,11.584s-12.75,1.868-19.178,1.495c-4.155-.224-8.61-.7-11.764-3.408-4.3-3.692-4.738-10.075-4.8-15.755q-.4-33.692.673-67.429a34.17,34.17,0,0,1,1.345-10.015,11.689,11.689,0,0,1,6.472-7.384C204.617,108.755,214.422,111.506,219.744,114.645Z" transform="translate(1613.851 -37.187)" fill="#3346d1"/>
    <path id="Path_4624" data-name="Path 4624" d="M219.744,114.645c12.8,7.474,17.937,34.993,19.985,41.764a99.687,99.687,0,0,1,3.752,31.614c-.1,4.694-.448,9.552-2.511,13.767-2.84,5.8-8.64,9.731-14.813,11.584s-12.75,1.868-19.178,1.495c-4.155-.224-8.61-.7-11.764-3.408-4.3-3.692-4.738-10.075-4.8-15.755q-.4-33.692.673-67.429a34.17,34.17,0,0,1,1.345-10.015,11.689,11.689,0,0,1,6.472-7.384C204.617,108.755,214.422,111.506,219.744,114.645Z" transform="translate(1613.851 -37.187)" fill="url(#linear-gradient)"/>
    <path id="Path_4625" data-name="Path 4625" d="M222.5,110.911a6.173,6.173,0,0,1-1.375,4.26,5.411,5.411,0,0,1-4.23,1.136,30.3,30.3,0,0,0-4.484-.4,2.451,2.451,0,0,0-2.75,2.661c0,2.078.882,4.066.867,6.144s-1.6,4.484-3.632,4.036a4.036,4.036,0,0,1-2.317-1.854c-2.885-4.2-3.064-9.7-5.262-14.32-1.286-2.706-3.259-5.082-4.2-7.937a13.064,13.064,0,0,1,3.976-13.543c3.782-3.274,12.511-5.725,16.592-1.629C220.81,94.618,222.768,103.93,222.5,110.911Z" transform="translate(1615.969 -48.475)" fill="#f3bd8f"/>
    <path id="Path_4626" data-name="Path 4626" d="M219.362,84a11.032,11.032,0,0,1,2.8,1.495,13.976,13.976,0,0,1,4.126,6.951l-10.643,5.7a1.794,1.794,0,0,1-1.076.3c-.762-.135-1.121-1.2-1.883-1.241a8.565,8.565,0,0,1,.852,1.973l-4.155,2.99a4.485,4.485,0,0,0-1.211,1.076,4.619,4.619,0,0,0-.538,2.735,122.8,122.8,0,0,0,3.632,23.617,11.958,11.958,0,0,1-5.157,1.495,73.242,73.242,0,0,0-19.776,5.979,24.663,24.663,0,0,0-.972-6.338,17.684,17.684,0,0,1-1.166-5.157,14.948,14.948,0,0,1,1.809-5.71c1.166-2.571,2.152-5.217,3.139-7.862a22.421,22.421,0,0,0,1.495-5.516A36.443,36.443,0,0,0,190,99.183a9.955,9.955,0,0,1,1.345-7.04c2.138-2.87,6.218-3.662,9.133-5.5a21.719,21.719,0,0,1,11.824-3.9A18.953,18.953,0,0,1,219.362,84Z" transform="translate(1610.825 -50.739)" fill="#3e3e54"/>
    <path id="Path_4627" data-name="Path 4627" d="M219.5,167.805c2.99,2.99,16.607,6.069,21.45,5.979,12.526,0,38.625-15.516,38.177-16.637l-7.668-18.819c-6.472,4.245-13.244,8.341-20.822,9.88s-16.173.09-21.54-5.471c-3.827-3.976-5.575-9.477-8.67-14.036s-8.819-8.4-13.916-6.308c-6.712,2.75-8.251,13.8-5.845,19.671C204.52,151.587,212.383,160.645,219.5,167.805Z" transform="translate(1618.447 -31.408)" fill="#3346d1"/>
    <path id="Path_4628" data-name="Path 4628" d="M186.52,219.157c-.493,1.495-1.046,2.99-1.614,4.484-1.614,4.081-3.2,9.537.284,12.212a8.131,8.131,0,0,0,4.126,1.375c4.9.553,9.865-.389,14.8-.284,10.777.209,20.807,5.306,30.135,10.7a20.925,20.925,0,0,0,6.413,2.81,6.711,6.711,0,0,0,6.413-1.928c1.495-1.868,1.495-4.484,1.345-6.936L246.1,196.751c-.284-5.486,1.495-22.571-5.037-24.111-4.155-.987-10.583,1.046-14.948,1.33-5.247.359-10.463.508-15.785.493a27.79,27.79,0,0,1-7.773-.882c-1.495-.478-6.4-3.184-8.057-2.81-5.067,1.2-2.9,17.848-3.064,21.764A95.666,95.666,0,0,1,186.52,219.157Z" transform="translate(1610.289 -7.2)" fill="#3e3e54"/>
    <path id="Path_4629" data-name="Path 4629" d="M186.52,219.157c-.493,1.495-1.046,2.99-1.614,4.484-1.614,4.081-3.2,9.537.284,12.212a8.131,8.131,0,0,0,4.126,1.375c4.9.553,9.865-.389,14.8-.284,10.777.209,20.807,5.306,30.135,10.7a20.925,20.925,0,0,0,6.413,2.81,6.711,6.711,0,0,0,6.413-1.928c1.495-1.868,1.495-4.484,1.345-6.936L246.1,196.751c-.284-5.486,1.495-22.571-5.037-24.111-4.155-.987-10.583,1.046-14.948,1.33-5.247.359-10.463.508-15.785.493a27.79,27.79,0,0,1-7.773-.882c-1.495-.478-6.4-3.184-8.057-2.81-5.067,1.2-2.9,17.848-3.064,21.764A95.666,95.666,0,0,1,186.52,219.157Z" transform="translate(1610.289 -7.2)" fill="url(#linear-gradient-2)"/>
    <path id="Path_4630" data-name="Path 4630" d="M4.207.516A5.157,5.157,0,0,0,.948,1.846,5.561,5.561,0,0,0,.066,5.807,240.445,240.445,0,0,0,3.639,38.692c.239,1.345.688,2.99,1.988,3.348,1.9.628,3.348-1.7,4.006-3.587l8.43-24.41a4.484,4.484,0,0,0,.344-2.451c-.329-1.36-1.824-2.063-2.721-3.154-1.719-2.138-.568-5.8-2.72-7.549C11.053-.665,6.389.232,4.207.516Z" transform="translate(1800.491 293.032) rotate(-74)" fill="#3346d1"/>
    <path id="Path_4631" data-name="Path 4631" d="M1.2,6.2A5.172,5.172,0,0,0,0,9.521a5.546,5.546,0,0,0,2.347,3.3,238.528,238.528,0,0,0,26.8,19.432c1.166.718,2.631,1.495,3.812.777,1.749-1,.987-3.632,0-5.381L20.478,5.037a4.364,4.364,0,0,0-1.495-1.9c-1.241-.673-2.765,0-4.17-.1C12.063,2.885,10.12-.419,7.339.045,4.9.329,2.451,4.394,1.2,6.2Z" transform="matrix(0.848, -0.53, 0.53, 0.848, 1842.664, 292.502)" fill="#3346d1"/>
    <path id="Path_4632" data-name="Path 4632" d="M4.207.516A5.157,5.157,0,0,0,.948,1.846,5.561,5.561,0,0,0,.066,5.807,240.445,240.445,0,0,0,3.639,38.692c.239,1.345.688,2.99,1.988,3.348,1.9.628,3.348-1.7,4.006-3.587l8.43-24.41a4.484,4.484,0,0,0,.344-2.451c-.329-1.36-1.824-2.063-2.721-3.154-1.719-2.138-.568-5.8-2.72-7.549C11.053-.665,6.389.232,4.207.516Z" transform="translate(1800.491 293.032) rotate(-74)" fill="url(#linear-gradient-3)"/>
    <path id="Path_4633" data-name="Path 4633" d="M1.2,6.2A5.172,5.172,0,0,0,0,9.521a5.546,5.546,0,0,0,2.347,3.3,238.528,238.528,0,0,0,26.8,19.432c1.166.718,2.631,1.495,3.812.777,1.749-1,.987-3.632,0-5.381L20.478,5.037a4.364,4.364,0,0,0-1.495-1.9c-1.241-.673-2.765,0-4.17-.1C12.063,2.885,10.12-.419,7.339.045,4.9.329,2.451,4.394,1.2,6.2Z" transform="matrix(0.848, -0.53, 0.53, 0.848, 1842.664, 292.502)" fill="url(#linear-gradient-4)"/>
    <path id="Path_4638" data-name="Path 4638" d="M251.69,73.991c3.466.452,7.254,1.421,9.17,4.305a8.953,8.953,0,0,1,1.313,3.81c.646,5.618-2.648,10.871-5.834,15.542a13.5,13.5,0,0,1-4.972,4.994,12.549,12.549,0,0,1-3.552.818,56.893,56.893,0,0,1-27.187-3.595,2.841,2.841,0,0,1-2.153-2.928,18.6,18.6,0,0,1,.108-8.008,22.084,22.084,0,0,1,1.959-4.305c2.5-4.542,4.628-11.6,10.763-11.6a157.6,157.6,0,0,1,20.385.969Z" transform="translate(1686.717 -59.127) rotate(16)" fill="#3346d1"/>
    <path id="Path_4639" data-name="Path 4639" d="M244.647,76.192a9.923,9.923,0,0,1,7.233,3.4,7.06,7.06,0,0,1,1.012,2.992c.517,4.434-2.153,8.61-4.585,12.227a10.44,10.44,0,0,1-3.918,3.939,9.473,9.473,0,0,1-2.8.646,44.816,44.816,0,0,1-21.4-2.82,3.1,3.1,0,0,1-1.119-.667,2.928,2.928,0,0,1-.6-1.636,15.175,15.175,0,0,1,0-6.307,16.531,16.531,0,0,1,1.55-3.38c1.959-3.595,3.638-9.148,8.481-9.148a128.985,128.985,0,0,1,16.144.753Z" transform="translate(1689.788 -57.908) rotate(16)" fill="#23d1fd"/>
    <path id="Path_4640" data-name="Path 4640" d="M223.126,103.446l11-55.386-12.765,55.386S220.22,104.565,223.126,103.446Z" transform="translate(1715.373 -80.813) rotate(16)" fill="#23d1fd"/>
    <path id="Path_4621" data-name="Path 4621" d="M252.765,132.309c.314-.643,1.031-1.375,1.57-.942a1.211,1.211,0,0,1,.344.807l.478,3.229a1.181,1.181,0,0,0,.194.6c.374.433,1.076.149,1.495-.179a39.644,39.644,0,0,0,7.294-6.487c.419-.478,1.016-1.016,1.614-.762a1.36,1.36,0,0,1,.628.777,10.9,10.9,0,0,1,.463,5.755,16.232,16.232,0,0,1-2.287,6.726,9.6,9.6,0,0,1-5.575,4.215c-1.839.463-3.857.269-5.546,1.136-1.016.523-1.958,1.42-3.094,1.3-1.405-.149-2.138-1.764-2.272-3.169C247.682,140.679,250.806,136.285,252.765,132.309Z" transform="translate(1642.415 -28.094)" fill="#f3bd8f"/>
  </g>
</svg>
