<svg xmlns="http://www.w3.org/2000/svg" width="100.64" height="35.437" viewBox="0 0 100.64 35.437">
  <g id="Group_4561" data-name="Group 4561" transform="translate(-350 -260.654)">
    <path id="Path_1" data-name="Path 1" d="M1.33-25.346H7.013L12.988-17v-8.346h6.787V-3.685H14.06L8.117-12v8.314H1.33ZM5.195-6.283v-15l10.717,15h.844V-22.748h-.844v15l-10.717-15H4.35V-6.283ZM25.946-25.346H38.709v5.683H32.863v2.4h5.748v5.391H32.863v2.5h6.073v5.683H25.946ZM36.533-6.283v-.779H30.038v-7.112h6.17v-.779h-6.17v-7.015h6.495v-.779H29.193V-6.283ZM61.636-17.1a8.535,8.535,0,0,1-.779,3.816,6.813,6.813,0,0,1-2.127,2.549A9.126,9.126,0,0,1,55.579-9.3a15.83,15.83,0,0,1-3.881.455v5.164H44.781V-25.346H51.7a15.83,15.83,0,0,1,3.881.455,9.126,9.126,0,0,1,3.15,1.429,6.813,6.813,0,0,1,2.127,2.549A8.535,8.535,0,0,1,61.636-17.1Zm-3.15,0a5.908,5.908,0,0,0-.5-2.533,4.592,4.592,0,0,0-1.413-1.754,6.337,6.337,0,0,0-2.16-1.023,10.278,10.278,0,0,0-2.712-.341h-3.67V-6.283h.844v-5.164H51.7a10.278,10.278,0,0,0,2.712-.341,6.337,6.337,0,0,0,2.16-1.023,4.592,4.592,0,0,0,1.413-1.754A5.908,5.908,0,0,0,58.486-17.1Zm-.909,0a5.053,5.053,0,0,1-.487,2.338,3.974,3.974,0,0,1-1.3,1.494,5.475,5.475,0,0,1-1.867.8,9.867,9.867,0,0,1-2.225.244H48.873v-9.742H51.7a9.867,9.867,0,0,1,2.225.244,5.475,5.475,0,0,1,1.867.8,3.974,3.974,0,0,1,1.3,1.494A5.053,5.053,0,0,1,57.576-17.1Zm-5.878,2.4h.292a2.612,2.612,0,0,0,1.965-.633,2.469,2.469,0,0,0,.6-1.77,2.469,2.469,0,0,0-.6-1.77,2.612,2.612,0,0,0-1.965-.633H51.7Zm19.29-10.652h5.2L84.4-3.685h-6.82l-.714-1.948h-6.56l-.714,1.948h-6.82Zm4.059,14.938-1.461-3.8-1.461,3.8ZM67.611-6.283l.617-1.624H78.945l.617,1.624h.909L74.2-22.748H72.97L66.7-6.283Zm5.975-15.685L78.653-8.686H68.521Zm15.2-3.377h7.209V-9.368h5.975v5.683H88.785ZM100.151-6.283v-.779H92.877V-22.748h-.844V-6.283Z" transform="translate(348.67 286)" fill="#354bce"/>
    <path id="Path_2" data-name="Path 2" d="M5.1-8.664v4.8h.337q1.257,0,1.634-.668a3.434,3.434,0,0,0,.371-1.681,4.655,4.655,0,0,0-.159-1.2,1.7,1.7,0,0,0-.582-.92,2.454,2.454,0,0,0-1.469-.324Zm0,7H.82v-2.2h.721v-4.8H.82v-2.2H5.227a13.321,13.321,0,0,1,2.462.185A4.812,4.812,0,0,1,9.5-9.921a4,4,0,0,1,1.323,1.575,4.582,4.582,0,0,1,.364,1.019,5.028,5.028,0,0,1,.126,1.138,4.685,4.685,0,0,1-.51,2.184A3.924,3.924,0,0,1,9.522-2.5a4.133,4.133,0,0,1-1.654.682A17.359,17.359,0,0,1,5.1-1.663Zm12.358,0H12.285V-3.681h.873V-6.063h-.873V-8.081h3.984v1.608a2.68,2.68,0,0,1,.695-1.039,2.231,2.231,0,0,1,.913-.562,5.091,5.091,0,0,1,1.3-.126v2.826q-.112-.007-.278-.007a4.2,4.2,0,0,0-1.515.205,1.322,1.322,0,0,0-.7.556,2.035,2.035,0,0,0-.2.94h.973Zm5.549-3.229q0,1.535,1.1,1.535,1.165,0,1.165-1.548A1.839,1.839,0,0,0,24.987-6a.964.964,0,0,0-.821-.39,1.037,1.037,0,0,0-.84.384A1.715,1.715,0,0,0,23.008-4.892ZM19.64-4.905a2.975,2.975,0,0,1,1.191-2.389,4.934,4.934,0,0,1,3.216-.973,5.456,5.456,0,0,1,3.315.94,2.906,2.906,0,0,1,1.277,2.448A2.99,2.99,0,0,1,27.422-2.45a5,5,0,0,1-3.216.973,5.215,5.215,0,0,1-3.362-.973A3.014,3.014,0,0,1,19.64-4.905ZM34.631-1.663H29.549V-3.681h.827V-6.063h-.827V-8.081h4.156v.814A4.253,4.253,0,0,1,36.332-8.2a2.384,2.384,0,0,1,1.853.682,3.216,3.216,0,0,1,.615,2.19v1.648h.761v2.018H35.472V-4.515a3.064,3.064,0,0,0-.159-1.231.7.7,0,0,0-.655-.291,1.751,1.751,0,0,0-.953.337v2.018h.926Zm9.036-3.712H45.54q.013-.2.013-.225a1.38,1.38,0,0,0-.265-.867.847.847,0,0,0-.7-.337.769.769,0,0,0-.688.371,1.7,1.7,0,0,0-.238.926A1.207,1.207,0,0,0,43.667-5.375Zm2.118,1.681,2.746.337a2.543,2.543,0,0,1-.516.771,3.186,3.186,0,0,1-.807.592,4.783,4.783,0,0,1-2.3.516,5.21,5.21,0,0,1-3.375-.933,2.987,2.987,0,0,1-1.132-2.429,3.12,3.12,0,0,1,1.118-2.448,4.357,4.357,0,0,1,3-.979,4.564,4.564,0,0,1,2.965.926,3.6,3.6,0,0,1,1.2,2.8H43.628q.02,1.562,1.165,1.562A1.029,1.029,0,0,0,45.785-3.694Zm11.66-5.155v1.727h.695A2.424,2.424,0,0,0,59.2-7.294a.69.69,0,0,0,.318-.668.877.877,0,0,0-.172-.549.729.729,0,0,0-.443-.278,4.66,4.66,0,0,0-.9-.06Zm.926,7.186h-5.38v-2.2h.893v-4.8h-.893v-2.2h5.645a7.886,7.886,0,0,1,2.845.377A2.825,2.825,0,0,1,62.8-9.444,2.635,2.635,0,0,1,63.228-8a2.538,2.538,0,0,1-.5,1.615,2.828,2.828,0,0,1-1.33.94,8.187,8.187,0,0,1-2.515.285H57.445v1.29h.926ZM66.62-4.892q0,1.535,1.1,1.535,1.165,0,1.165-1.548A1.839,1.839,0,0,0,68.6-6a.964.964,0,0,0-.821-.39,1.037,1.037,0,0,0-.84.384A1.715,1.715,0,0,0,66.62-4.892Zm-3.368-.013a2.975,2.975,0,0,1,1.191-2.389,4.934,4.934,0,0,1,3.216-.973,5.456,5.456,0,0,1,3.315.94,2.906,2.906,0,0,1,1.277,2.448A2.99,2.99,0,0,1,71.033-2.45a5,5,0,0,1-3.216.973,5.215,5.215,0,0,1-3.362-.973A3.014,3.014,0,0,1,63.252-4.905ZM78.309-1.663H73.135V-3.681h.873V-6.063h-.873V-8.081h3.984v1.608a2.68,2.68,0,0,1,.695-1.039,2.231,2.231,0,0,1,.913-.562,5.091,5.091,0,0,1,1.3-.126v2.826q-.112-.007-.278-.007a4.2,4.2,0,0,0-1.515.205,1.322,1.322,0,0,0-.7.556,2.035,2.035,0,0,0-.2.94h.973Zm7.706-2.343v1.972a3.209,3.209,0,0,1-.94.384,4.849,4.849,0,0,1-1.244.172,3.072,3.072,0,0,1-1.284-.245A1.9,1.9,0,0,1,81.72-2.4a2.418,2.418,0,0,1-.225-.447A2.171,2.171,0,0,1,81.39-3.3q-.046-.437-.046-1.687V-6.063h-.821V-8.081h.821v-.986l3.328-1.582v2.567h1.343v2.018H84.672v1.244a1.937,1.937,0,0,0,.112.814.458.458,0,0,0,.45.205A1.974,1.974,0,0,0,86.015-4.005Zm6.005.7V-4.475a1.957,1.957,0,0,0-.94-.238.984.984,0,0,0-.695.238.82.82,0,0,0-.258.622.826.826,0,0,0,.265.635.889.889,0,0,0,.622.251A1.467,1.467,0,0,0,92.02-3.3ZM89.526-6.288l-2.607-.265a2.492,2.492,0,0,1,1.39-1.33A7.792,7.792,0,0,1,91.1-8.267q.682,0,1.221.043a8.115,8.115,0,0,1,.963.129,2.939,2.939,0,0,1,1.3.51,1.963,1.963,0,0,1,.589.754,3.625,3.625,0,0,1,.172,1.3v1.853h.821v2.018H92.02V-2.1a4.2,4.2,0,0,1-2.3.556,3.049,3.049,0,0,1-2.045-.6,1.8,1.8,0,0,1-.695-1.409,1.722,1.722,0,0,1,.854-1.476,3.859,3.859,0,0,1,2.21-.576,4.984,4.984,0,0,1,1.979.324v-.192a2.767,2.767,0,0,0-.086-.834.85.85,0,0,0-.41-.43,1.641,1.641,0,0,0-.768-.172A1.411,1.411,0,0,0,89.526-6.288ZM101.46-1.663h-4.6V-3.681h.682V-8.849h-.682v-2.018h4.01v7.186h.589Z" transform="translate(349.18 297.568)" fill="#03cbff"/>
  </g>
</svg>
