<svg xmlns="http://www.w3.org/2000/svg" width="92.281" height="108.365" viewBox="0 0 92.281 108.365"><defs><style>.a{fill:#ff816c;}.b{fill:#ef3e35;}.c{fill:#fff;}.d{fill:#e1ebf0;}.e{fill:#b4d2d7;}.f{fill:#6fa5aa;}</style></defs><g transform="translate(-0.5 0)"><path class="a" d="M87.907,72.365a54.672,54.672,0,0,1-13.094,20.4c-6.575,6.421-15.185,11.522-25.591,15.162a7.83,7.83,0,0,1-2.487.439h-.093a7.938,7.938,0,0,1-1.526-.15,8.268,8.268,0,0,1-1.049-.286c-10.418-3.634-19.039-8.733-25.62-15.154A54.568,54.568,0,0,1,5.354,72.38C.065,58.028.366,42.217.608,29.511l0-.2c.049-1.049.08-2.151.1-3.368A11.485,11.485,0,0,1,11.525,14.7c12.459-.7,22.1-4.759,30.333-12.786l.072-.066a6.942,6.942,0,0,1,9.424,0l.07.066C59.661,9.938,69.3,14,81.759,14.7A11.485,11.485,0,0,1,92.574,25.948c.017,1.225.049,2.326.1,3.368l0,.083C92.915,42.129,93.214,57.971,87.907,72.365Zm0,0" transform="translate(0 0)"/><path class="b" d="M260.121,72.368a54.673,54.673,0,0,1-13.094,20.4c-6.575,6.421-15.185,11.522-25.591,15.162a7.83,7.83,0,0,1-2.487.439V0a6.952,6.952,0,0,1,4.619,1.844l.07.066C231.875,9.941,241.514,14,253.973,14.7a11.485,11.485,0,0,1,10.815,11.251c.017,1.225.049,2.326.1,3.368l0,.083C265.129,42.131,265.429,57.974,260.121,72.368Zm0,0" transform="translate(-172.214 -0.003)"/><path class="c" d="M144.909,155.4A27.041,27.041,0,0,1,118,182.413h-.1a27.007,27.007,0,1,1,0-54.015h.1A27.041,27.041,0,0,1,144.909,155.4Zm0,0" transform="translate(-71.262 -101.222)"/><path class="d" d="M245.861,155.4a27.041,27.041,0,0,1-26.912,27.008V128.4A27.041,27.041,0,0,1,245.861,155.4Zm0,0" transform="translate(-172.214 -101.222)"/><path class="e" d="M189.2,224.759a3.18,3.18,0,0,1-4.5,4.5l-5.147-5.148-5.148,5.148a3.179,3.179,0,0,1-4.5-4.5l5.146-5.148-5.146-5.149a3.179,3.179,0,1,1,4.5-4.5l5.148,5.149,5.147-5.149a3.18,3.18,0,0,1,4.5,4.5l-5.149,5.149Zm0,0" transform="translate(-132.824 -164.792)"/><path class="f" d="M228.6,224.759a3.18,3.18,0,0,1-4.5,4.5l-5.147-5.148v-8.992l5.147-5.149a3.18,3.18,0,0,1,4.5,4.5l-5.149,5.149Zm0,0" transform="translate(-172.217 -164.792)"/></g></svg>