<svg xmlns="http://www.w3.org/2000/svg" width="139.687" height="113.079" viewBox="0 0 139.687 113.079">
  <g id="ss_drone" data-name="ss drone" transform="translate(111.76 116.231) rotate(-149)">
    <g id="OBJECTS" transform="translate(-0.007 0)">
      <ellipse id="Ellipse_370" data-name="Ellipse 370" cx="4.364" cy="9.648" rx="4.364" ry="9.648" transform="translate(6.127)" fill="#1745a8"/>
      <path id="Path_3715" data-name="Path 3715" d="M203.854,9.647c0,5.327-1.957,9.647-4.364,9.647s-4.37-4.321-4.37-9.647S197.077,0,199.49,0,203.854,4.321,203.854,9.647Z" transform="translate(-74.679 0)" fill="#1745a8"/>
      <path id="Path_3716" data-name="Path 3716" d="M105.342,29.629h0a2.759,2.759,0,0,0-2.759-2.759H81.732a2.759,2.759,0,0,0-2.759,2.759h0a2.759,2.759,0,0,1-2.759,2.753H60.783L60.74,48.5h62.712V32.456l-15.369-.037a2.753,2.753,0,0,1-2.741-2.79Z" transform="translate(-23.244 -10.285)" fill="#1745a8"/>
      <path id="Path_3717" data-name="Path 3717" d="M135.173,24.461,133.8,19.245a7.475,7.475,0,0,0-7.24-5.555h-5.37a4.321,4.321,0,0,0-4.24,4.321,4.247,4.247,0,0,1-4.247,4.173H99.793a4.253,4.253,0,0,0-4.247,4.247v3.913a4.135,4.135,0,0,1-.111.957,4.253,4.253,0,0,1-4.129,3.29H44.112a4.265,4.265,0,0,1-4.136-3.29,4.136,4.136,0,0,1-.111-.957V26.411a4.247,4.247,0,0,0-4.24-4.247H22.743A4.321,4.321,0,0,1,18.5,17.844,4.24,4.24,0,0,0,14.249,13.7H8.886a7.475,7.475,0,0,0-7.24,5.555L.269,24.461a8.024,8.024,0,0,0,7.753,10.11c0,1.907,44.657,24.881,59.669,24.881s59.669-21.079,59.669-24.881a8.024,8.024,0,0,0,7.814-10.11Z" transform="translate(0.007 -5.24)" fill="#3346d1"/>
      <path id="Path_3718" data-name="Path 3718" d="M46.632,41.13v5.864a1.376,1.376,0,0,1-2.08,1.284l-8.876-5.864a1.525,1.525,0,0,1,.7-2.784h8.882A1.438,1.438,0,0,1,46.632,41.13Z" transform="translate(-13.395 -15.169)" fill="#1745a8"/>
      <path id="Path_3719" data-name="Path 3719" d="M.28,28.445l1.376-5.222A7.475,7.475,0,0,1,8.9,17.668H14.26a4.247,4.247,0,0,1,4.265,4.142,4.321,4.321,0,0,0,4.247,4.321H35.635a4.24,4.24,0,0,1,4.24,4.24v3.913a4.062,4.062,0,0,0,.111.957,4.259,4.259,0,0,0,4.136,3.315H91.317a4.247,4.247,0,0,0,4.129-3.29,4.061,4.061,0,0,0,.111-.957V30.39a4.247,4.247,0,0,1,4.247-4.24h12.882a4.247,4.247,0,0,0,4.247-4.173,4.321,4.321,0,0,1,4.241-4.32h5.37a7.475,7.475,0,0,1,7.24,5.555l1.4,5.234h0a7.865,7.865,0,0,0,.272-1.944,8.1,8.1,0,0,0-.278-2.08L133.8,19.205a7.475,7.475,0,0,0-7.24-5.555h-5.37a4.321,4.321,0,0,0-4.24,4.321,4.247,4.247,0,0,1-4.247,4.173H99.8a4.253,4.253,0,0,0-4.247,4.247V30.3a4.135,4.135,0,0,1-.111.957,4.253,4.253,0,0,1-4.129,3.29H44.122a4.265,4.265,0,0,1-4.136-3.29,4.135,4.135,0,0,1-.111-.957V26.4a4.247,4.247,0,0,0-4.24-4.247H22.753a4.321,4.321,0,0,1-4.247-4.321,4.24,4.24,0,0,0-4.247-4.148H8.9a7.475,7.475,0,0,0-7.24,5.555L.28,24.446a8.024,8.024,0,0,0,0,4.043.4.4,0,0,1,0-.043Z" transform="translate(-0.003 -5.225)" fill="#23d1fd"/>
      <path id="Path_3720" data-name="Path 3720" d="M127.38,37.371c0,3.8-44.658,24.881-59.669,24.881S8.024,39.278,8.024,37.371a8.024,8.024,0,0,1-7.771-6.1A8.024,8.024,0,0,0,8.024,41.3c0,1.907,44.657,24.881,59.669,24.881S127.362,45.1,127.362,41.3a8.055,8.055,0,0,0,8.024-8.024,8.161,8.161,0,0,0-.265-2.012A8.024,8.024,0,0,1,127.38,37.371Z" transform="translate(0.005 -11.965)" fill="#1c64c7"/>
      <path id="Path_3721" data-name="Path 3721" d="M111.608,62.427H98.572a1.358,1.358,0,0,1-1.352-1.352h0a1.352,1.352,0,0,1,1.352-1.346h13.036a1.352,1.352,0,0,1,1.352,1.346h0A1.358,1.358,0,0,1,111.608,62.427Z" transform="translate(-37.207 -22.862)" fill="#f4f4ed"/>
      <path id="Path_3722" data-name="Path 3722" d="M110.465,69.493h-7a1.352,1.352,0,0,1-1.346-1.327h0a1.352,1.352,0,0,1,1.346-1.346h7a1.352,1.352,0,0,1,1.346,1.346h0A1.352,1.352,0,0,1,110.465,69.493Z" transform="translate(-39.083 -25.576)" fill="#f4f4ed"/>
      <path id="Path_3723" data-name="Path 3723" d="M109.234,76.52h-1.895A1.352,1.352,0,0,1,106,75.162h0a1.358,1.358,0,0,1,1.352-1.352h1.895a1.358,1.358,0,0,1,1.339,1.352h0a1.352,1.352,0,0,1-1.352,1.358Z" transform="translate(-40.568 -28.251)" fill="#f4f4ed"/>
      <path id="Path_3724" data-name="Path 3724" d="M46.941,41.505v4.79a1.234,1.234,0,0,1-1.852,1.037l-7.87-4.753a1.234,1.234,0,0,1,.617-2.259h7.888A1.234,1.234,0,0,1,46.941,41.505Z" transform="translate(-14.032 -15.433)" fill="#23d1fd"/>
      <path id="Path_3725" data-name="Path 3725" d="M38.182,41.066h7.87a1.235,1.235,0,0,1,.876.383,1.234,1.234,0,0,0-1.2-1.179H37.848a1.234,1.234,0,0,0-.883,2.037A1.235,1.235,0,0,1,38.182,41.066Z" transform="translate(-14.031 -15.414)" fill="#fcf0ac"/>
      <path id="Path_3726" data-name="Path 3726" d="M165.858,41.13v5.864a1.376,1.376,0,0,0,2.08,1.284l8.876-5.864a1.526,1.526,0,0,0-.71-2.784h-8.876A1.438,1.438,0,0,0,165.858,41.13Z" transform="translate(-63.477 -15.169)" fill="#1745a8"/>
      <path id="Path_3727" data-name="Path 3727" d="M166.39,41.505v4.79a1.234,1.234,0,0,0,1.852,1.037l7.87-4.753a1.235,1.235,0,0,0-.617-2.259h-7.888A1.235,1.235,0,0,0,166.39,41.505Z" transform="translate(-63.683 -15.433)" fill="#23d1fd"/>
      <path id="Path_3728" data-name="Path 3728" d="M175.152,41.066h-7.87a1.234,1.234,0,0,0-.883.383,1.234,1.234,0,0,1,1.234-1.179h7.87a1.234,1.234,0,0,1,.889,2.037,1.234,1.234,0,0,0-1.241-1.241Z" transform="translate(-63.686 -15.414)" fill="#fcf0ac"/>
    </g>
  </g>
</svg>
