<svg xmlns="http://www.w3.org/2000/svg" width="17.832" height="23.08" viewBox="0 0 17.832 23.08"><defs><style>.a{fill:#3346d1;}</style></defs><g transform="translate(0 0)"><path class="a" d="M66,51.159h-.851V48.63h.34a.365.365,0,1,0,0-.73H62.184a.365.365,0,1,0,0,.73h.34v2.529h-.851a.976.976,0,0,0-.973.973v5.715a.972.972,0,0,0,.657.924v.1a1.07,1.07,0,0,0,2.14,0V58.82h.754v.049a1.07,1.07,0,0,0,2.14,0v-.1a.972.972,0,0,0,.657-.924V52.156A1.061,1.061,0,0,0,66,51.159ZM63.254,48.63h1.192v2.529H63.254ZM62.4,59.306a.413.413,0,1,1,.413-.413A.41.41,0,0,1,62.4,59.306Zm.243-5.788a.34.34,0,1,1,0-.681h2.432a.332.332,0,0,1,.34.34.353.353,0,0,1-.365.34ZM65.3,59.306a.413.413,0,1,1,.413-.413A.426.426,0,0,1,65.3,59.306Z" transform="translate(-49.216 -36.858)"/><circle class="a" cx="2.383" cy="2.383" r="2.383" transform="translate(3.872)"/><path class="a" d="M25.111,32.283l-.292-2.724.049.024a.994.994,0,0,0,.511-1.921l-.778-.195-.17-1.484a.362.362,0,0,0-.316-.316l-1.532-.195c-.389-.608-.73-.973-1.313-.973H18.2c-.73,0-1.094.584-1.629,1.484-.024.049-.073.1-.1.146l-1.605-.195a.425.425,0,0,0-.292.1.334.334,0,0,0-.1.292l.195,1.848-.827.657a.975.975,0,0,0-.146,1.386.991.991,0,0,0,.778.365,1.091,1.091,0,0,0,.462-.122l.243,2.165a.362.362,0,0,0,.316.316l1.946.243-.973,7.661a1.166,1.166,0,0,0,1,1.289h.146a1.152,1.152,0,0,0,1.143-1l1.046-8.172h.024l1.021,8.172a1.134,1.134,0,0,0,1.143,1h.146a1.152,1.152,0,0,0,1-1.289l-1.094-8.512,2.748.34h.073a.437.437,0,0,0,.219-.1A1.09,1.09,0,0,0,25.111,32.283Zm-6.177.219-.608-5.594,2.31-.8.608,5.594Zm-3.721-5.788,2.408.292.608,5.594-2.408-.292Zm6.737,4.913-.608-5.594,2.408.292.608,5.594Z" transform="translate(-13.481 -19.149)"/></g></svg>