<svg xmlns="http://www.w3.org/2000/svg" xmlns:xlink="http://www.w3.org/1999/xlink" width="244.253" height="181.809" viewBox="0 0 244.253 181.809">
  <defs>
    <linearGradient id="linear-gradient" x1="0.064" y1="0.391" x2="0.697" y2="0.661" gradientUnits="objectBoundingBox">
      <stop offset="0.01"/>
      <stop offset="0.12" stop-opacity="0.749"/>
      <stop offset="1" stop-opacity="0"/>
    </linearGradient>
    <linearGradient id="linear-gradient-2" x1="0.577" y1="1.099" x2="0.407" y2="0.086" xlink:href="#linear-gradient"/>
    <linearGradient id="linear-gradient-3" x1="0.321" y1="1.057" x2="0.582" y2="0.316" xlink:href="#linear-gradient"/>
    <linearGradient id="linear-gradient-4" x1="0.624" y1="-0.69" x2="0.405" y2="1.412" xlink:href="#linear-gradient"/>
    <linearGradient id="linear-gradient-5" x1="0.297" y1="-0.591" x2="0.832" y2="2.285" xlink:href="#linear-gradient"/>
    <linearGradient id="linear-gradient-6" x1="0.498" y1="1.471" x2="0.502" y2="-0.617" xlink:href="#linear-gradient"/>
    <linearGradient id="linear-gradient-7" x1="0.482" y1="1.326" x2="0.516" y2="-0.132" xlink:href="#linear-gradient"/>
  </defs>
  <g id="web_developer" transform="translate(0.002 -15.4)">
    <path id="Path_4429" data-name="Path 4429" d="M244.379,232.8a25.2,25.2,0,0,1-3.839,13.268c-3.287,4.864-8.625,7.875-13.8,10.707l-14.659,8.067c-6.424,3.539-13.2,7.162-20.519,7.264-5.182.078-10.2-1.631-15.181-3.065-23.278-6.718-47.8-7.66-71.863-5.962-12.326.87-24.592,2.4-36.8,4.241-9.771,1.452-21.5,6.28-30.308.564-9.6-6.238-15.487-16.339-20.909-26.145-4.72-8.511-9.507-17.232-11.066-26.835-2.4-14.839,3.347-30.08,12.338-42.136a96.657,96.657,0,0,1,8.835-10.2v54.48a5.4,5.4,0,0,0,5.368,5.4H243.4A42.088,42.088,0,0,1,244.379,232.8Z" transform="translate(-4.89 -74.899)" fill="#3346d1" opacity="0.18"/>
    <path id="Path_4431" data-name="Path 4431" d="M171.461,216.6a8.769,8.769,0,0,0,1.961,1.9,9.165,9.165,0,0,0,3.6,1.068l19.146,2.885a1.109,1.109,0,0,1,.534.18,1.092,1.092,0,0,1,.282.864,33.691,33.691,0,0,1-1.434,10.593,1.464,1.464,0,0,1-.39.744,1.535,1.535,0,0,1-.876.264,173.93,173.93,0,0,1-19.374.2,13.2,13.2,0,0,1-3.227-.354,11.665,11.665,0,0,1-4.625-3c-2.909-2.705-14.683-13.58-15.4-15.055a40.3,40.3,0,0,1-2.279-6.55c-.6-2.159,3.785-2.429,3.695-4.673a14.5,14.5,0,0,1,.552-4.594,7.845,7.845,0,0,1,1.919-3.551c.66-.6-.36-4.666.552-4.714,1.056,3.6,5.83,10.8,7.905,13.879a116.167,116.167,0,0,0,7.456,9.921Z" transform="translate(-62.693 -86.997)" fill="#3346d1"/>
    <path id="Path_4432" data-name="Path 4432" d="M171.461,216.6a8.769,8.769,0,0,0,1.961,1.9,9.165,9.165,0,0,0,3.6,1.068l19.146,2.885a1.109,1.109,0,0,1,.534.18,1.092,1.092,0,0,1,.282.864,33.691,33.691,0,0,1-1.434,10.593,1.464,1.464,0,0,1-.39.744,1.535,1.535,0,0,1-.876.264,173.93,173.93,0,0,1-19.374.2,13.2,13.2,0,0,1-3.227-.354,11.665,11.665,0,0,1-4.625-3c-2.909-2.705-14.683-13.58-15.4-15.055a40.3,40.3,0,0,1-2.279-6.55c-.6-2.159,3.785-2.429,3.695-4.673a14.5,14.5,0,0,1,.552-4.594,7.845,7.845,0,0,1,1.919-3.551c.66-.6-.36-4.666.552-4.714,1.056,3.6,5.83,10.8,7.905,13.879a116.167,116.167,0,0,0,7.456,9.921Z" transform="translate(-62.693 -86.997)" fill="url(#linear-gradient)"/>
    <path id="Path_4433" data-name="Path 4433" d="M94.18,179.617a35.11,35.11,0,0,0-3.6,3.719,44.925,44.925,0,0,0-6.058,10.994c-4.373,10.281-8.181,21.275-7.048,32.389A4.2,4.2,0,0,0,78,228.627a3.713,3.713,0,0,0,2.057,1.326,22.206,22.206,0,0,0,6.6.72c8.643.078,17.3.156,25.936-.264a7.4,7.4,0,0,0,3.863-.924,6.262,6.262,0,0,0,1.883-2.357c2.321-4.367,3-9.417,4.8-14.011,2.4-6,9-11.45,7.606-17.772C124.794,168.5,96.9,177.139,94.18,179.617Z" transform="translate(-33.858 -80.4)" fill="#3346d1"/>
    <path id="Path_4434" data-name="Path 4434" d="M94.18,179.617a35.11,35.11,0,0,0-3.6,3.719,44.925,44.925,0,0,0-6.058,10.994c-4.373,10.281-8.181,21.275-7.048,32.389A4.2,4.2,0,0,0,78,228.627a3.713,3.713,0,0,0,2.057,1.326,22.206,22.206,0,0,0,6.6.72c8.643.078,17.3.156,25.936-.264a7.4,7.4,0,0,0,3.863-.924,6.262,6.262,0,0,0,1.883-2.357c2.321-4.367,3-9.417,4.8-14.011,2.4-6,9-11.45,7.606-17.772C124.794,168.5,96.9,177.139,94.18,179.617Z" transform="translate(-33.858 -80.4)" fill="url(#linear-gradient-2)"/>
    <path id="Path_4435" data-name="Path 4435" d="M151.514,135.936c-1.014,4.924-2.075,9.981-4.8,14.221a11.013,11.013,0,0,1-4.157,4.091,5.756,5.756,0,0,1-5.632-.078c-.822-.534-1.721-1.374-2.615-.978a2.143,2.143,0,0,0-.948,1.8,18.114,18.114,0,0,0,.072,5.188,4.385,4.385,0,0,1,.084,1.476,2.435,2.435,0,0,1-1.949,1.8,4.648,4.648,0,0,1-2.717-.426,8.781,8.781,0,0,1-5.062-6.49,21.028,21.028,0,0,1-.18-2.879c-.114-4.271-.792-8.523-.654-12.788s1.2-8.7,4.1-11.852a18.666,18.666,0,0,1,5.854-4.055c3.269-1.559,6.916-2.657,10.491-2.087a9.969,9.969,0,0,1,6.94,4.631C152.21,130.382,152.216,132.523,151.514,135.936Z" transform="translate(-52.133 -58.954)" fill="#ffdad2"/>
    <path id="Path_4436" data-name="Path 4436" d="M156.135,116.727a9.927,9.927,0,0,0-5.248-9.993,26.364,26.364,0,0,0-5.074-1.583c-4.019-1.08-7.875-2.867-12-3.251s-8.859,1.062-10.695,4.8c-.336.684-.666,1.512-1.4,1.691a3.077,3.077,0,0,1-1.2-.108c-2.753-.486-5.23,1.865-6.472,4.367-2,4.049-2.105,8.769-1.667,13.262.4,4.157,1.464,8.649,4.8,11.18.33.252.816.48,1.134.21a.948.948,0,0,0,.258-.558,18.233,18.233,0,0,0,.372-4.8,11.836,11.836,0,0,1,.054-3.653,2.829,2.829,0,0,1,2.537-2.267,2.678,2.678,0,0,1,2.327,2.159,7.966,7.966,0,0,1-.126,3.383c.18.45.81-.09.918-.558.828-3.767,1.014-7.983,3.629-10.8a4.636,4.636,0,0,1,1.128,1.961,3,3,0,0,1,3.089-.768,7.341,7.341,0,0,1,2.063,1.35C140.929,127.728,154.8,126.252,156.135,116.727Z" transform="translate(-47.823 -50.596)" fill="#3f3d56"/>
    <path id="Path_4437" data-name="Path 4437" d="M106.478,191.379a8.259,8.259,0,0,0-3.059,6.52c-.06,2.483,2.567,18.24,5.044,22.715,1.919,3.479,5.92,12.56,12,15.067,1.8.744,28.4.432,40.745-.906-.078-2.921-.222-5.842-.414-8.763a1.662,1.662,0,0,0-.33-1.074c-.312-.324-.756-2.441-1.2-2.441-7.2.03-14.455,2.231-21.653,2.4a12.671,12.671,0,0,1-3.125-.186,9,9,0,0,1-2.4-.984c-5.554-3.143-8.625-9.315-10.8-15.319-1.661-4.63-3-9.423-5.4-13.748-.852-1.541-1.613-3.041-3.293-3.719A6.292,6.292,0,0,0,106.478,191.379Z" transform="translate(-44.321 -86.02)" fill="#3346d1"/>
    <path id="Path_4438" data-name="Path 4438" d="M106.478,191.379a8.259,8.259,0,0,0-3.059,6.52c-.06,2.483,2.567,18.24,5.044,22.715,1.919,3.479,5.92,12.56,12,15.067,1.8.744,28.4.432,40.745-.906-.078-2.921-.222-5.842-.414-8.763a1.662,1.662,0,0,0-.33-1.074c-.312-.324-.756-2.441-1.2-2.441-7.2.03-14.455,2.231-21.653,2.4a12.671,12.671,0,0,1-3.125-.186,9,9,0,0,1-2.4-.984c-5.554-3.143-8.625-9.315-10.8-15.319-1.661-4.63-3-9.423-5.4-13.748-.852-1.541-1.613-3.041-3.293-3.719A6.292,6.292,0,0,0,106.478,191.379Z" transform="translate(-44.321 -86.02)" fill="url(#linear-gradient-3)"/>
    <path id="Path_4439" data-name="Path 4439" d="M192.573,242.949c3.737-.354,7.887.48,10.257,3.389a1.8,1.8,0,0,1,.468.96,1.608,1.608,0,0,1-.288.906c-1.4,2.321-4.433,2.873-6.982,3.791a18.126,18.126,0,0,0-3.773,1.871A6,6,0,0,1,190,254.981c-1.8.27-3.293-1.338-4.109-2.945-.936-1.8-2.4-5.494-.6-7.2C186.76,243.489,190.725,243.117,192.573,242.949Z" transform="translate(-76.745 -107.036)" fill="#ffdad2"/>
    <path id="Path_4440" data-name="Path 4440" d="M238.27,239.886a5.117,5.117,0,0,1,1.673,1.53,2.2,2.2,0,0,1,.156,2.177,3.029,3.029,0,0,1-1.122,1.008c-3.317,1.973-7.384,2.327-10.743,4.2a5.836,5.836,0,0,1-2.315,1.008,3.2,3.2,0,0,1-2.567-1.2,8.158,8.158,0,0,1-1.386-2.561C218.039,235.73,232.62,236.288,238.27,239.886Z" transform="translate(-91.499 -104.897)" fill="#ffdad2"/>
    <path id="Path_4441" data-name="Path 4441" d="M86.23,221h15.541v12.764a4.5,4.5,0,0,1-4.5,4.5H90.729a4.5,4.5,0,0,1-4.5-4.5Z" transform="translate(-34.51 -90.617)" fill="#fff"/>
    <path id="Path_4442" data-name="Path 4442" d="M110.39,226.16H115.1a3.749,3.749,0,0,1,3.749,3.749v1.553a3.749,3.749,0,0,1-3.749,3.749H110.39Z" transform="translate(-44.178 -92.682)" fill="none" stroke="#fff" stroke-miterlimit="10" stroke-width="3.3"/>
    <rect id="Rectangle_2183" data-name="Rectangle 2183" width="217.189" height="6.664" rx="3.332" transform="translate(27.063 147.369)" fill="#3346d1"/>
    <rect id="Rectangle_2184" data-name="Rectangle 2184" width="118.995" height="41.273" transform="translate(83.222 154.135)" fill="#3346d1"/>
    <rect id="Rectangle_2185" data-name="Rectangle 2185" width="46.743" height="41.273" transform="translate(37.289 154.135)" fill="#3346d1"/>
    <rect id="Rectangle_2186" data-name="Rectangle 2186" width="118.215" height="41.273" transform="translate(84.008 154.135)" opacity="0.5" fill="url(#linear-gradient-4)"/>
    <rect id="Rectangle_2187" data-name="Rectangle 2187" width="46.743" height="41.273" transform="translate(37.289 154.135)" opacity="0.5" fill="url(#linear-gradient-5)"/>
    <rect id="Rectangle_2188" data-name="Rectangle 2188" width="84.86" height="7.821" rx="3.911" transform="translate(198.559 147.255) rotate(180)" fill="#3346d1"/>
    <rect id="Rectangle_2189" data-name="Rectangle 2189" width="84.86" height="7.821" rx="3.911" transform="translate(198.559 147.255) rotate(180)" fill="url(#linear-gradient-6)"/>
    <path id="Path_4444" data-name="Path 4444" d="M245.51,232.376h59.123l15.595-39.545a3.479,3.479,0,0,0-3.233-4.75H270.6a11.2,11.2,0,0,0-10.4,7.09Z" transform="translate(-101.186 -85.108)" fill="#3346d1"/>
    <path id="Path_4445" data-name="Path 4445" d="M250.52,233.926h56.154l14.809-37.566a3.3,3.3,0,0,0-3.071-4.511H274.35a10.635,10.635,0,0,0-9.9,6.73Z" transform="translate(-103.191 -86.617)" fill="#3346d1"/>
    <path id="Path_4446" data-name="Path 4446" d="M250.52,233.926h56.154l14.809-37.566a3.3,3.3,0,0,0-3.071-4.511H274.35a10.635,10.635,0,0,0-9.9,6.73Z" transform="translate(-103.191 -86.617)" opacity="0.5" fill="url(#linear-gradient-7)"/>
    <rect id="Rectangle_2190" data-name="Rectangle 2190" width="83.133" height="4.678" transform="translate(127.77 90.562)" fill="#75dffc" opacity="0.51"/>
    <rect id="Rectangle_2191" data-name="Rectangle 2191" width="59.099" height="4.678" transform="translate(127.77 82.554)" fill="#fff"/>
    <rect id="Rectangle_2192" data-name="Rectangle 2192" width="39.563" height="4.678" transform="translate(194.948 82.554)" fill="#fff"/>
    <rect id="Rectangle_2193" data-name="Rectangle 2193" width="60.826" height="4.157" transform="translate(173.547 52.936)" fill="#fff"/>
    <rect id="Rectangle_2194" data-name="Rectangle 2194" width="65.073" height="4.157" transform="translate(160.807 60.32)" fill="#75dffc" opacity="0.51"/>
    <rect id="Rectangle_2195" data-name="Rectangle 2195" width="40.007" height="4.157" transform="translate(128.897 52.936)" fill="#fff"/>
    <rect id="Rectangle_2196" data-name="Rectangle 2196" width="87.925" height="4.157" transform="translate(146.448 67.481)" fill="#fff"/>
    <rect id="Rectangle_2197" data-name="Rectangle 2197" width="12.908" height="4.157" transform="translate(128.897 67.481)" fill="#75dffc" opacity="0.51"/>
    <rect id="Rectangle_2198" data-name="Rectangle 2198" width="58.037" height="4.157" transform="translate(176.336 74.865)" fill="#75dffc" opacity="0.51"/>
    <rect id="Rectangle_2199" data-name="Rectangle 2199" width="40.007" height="4.157" transform="translate(128.897 74.865)" fill="#fff"/>
    <rect id="Rectangle_2200" data-name="Rectangle 2200" width="25.726" height="4.157" transform="translate(128.897 60.146)" fill="#fff"/>
    <rect id="Rectangle_2201" data-name="Rectangle 2201" width="60.826" height="4.157" transform="translate(151.3 38.943)" fill="#fff"/>
    <rect id="Rectangle_2202" data-name="Rectangle 2202" width="65.073" height="4.157" transform="translate(138.56 46.326)" fill="#75dffc" opacity="0.51"/>
    <rect id="Rectangle_2203" data-name="Rectangle 2203" width="40.007" height="4.157" transform="translate(106.657 38.943)" fill="#fff"/>
    <rect id="Rectangle_2204" data-name="Rectangle 2204" width="60.826" height="4.157" transform="translate(150.76 30.335)" fill="#fff"/>
    <rect id="Rectangle_2205" data-name="Rectangle 2205" width="40.007" height="4.157" transform="translate(106.117 22.526)" fill="#75dffc"/>
    <rect id="Rectangle_2206" data-name="Rectangle 2206" width="40.007" height="4.157" transform="translate(106.117 15.4)" fill="#fff"/>
    <rect id="Rectangle_2207" data-name="Rectangle 2207" width="25.726" height="4.157" transform="translate(106.657 46.152)" fill="#fff"/>
  </g>
</svg>
