<svg xmlns="http://www.w3.org/2000/svg" width="92.281" height="108.365" viewBox="0 0 92.281 108.365"><defs><style>.a{fill:#00dd80;}.b{fill:#00aa63;}.c{fill:#fff;}.d{fill:#e1ebf0;}.e{fill:#b4d2d7;}.f{fill:#6fa5aa;}</style></defs><g transform="translate(-0.5 0)"><path class="a" d="M87.907,72.365a54.671,54.671,0,0,1-13.094,20.4c-6.575,6.421-15.185,11.522-25.591,15.162a7.83,7.83,0,0,1-2.487.439h-.093a7.94,7.94,0,0,1-1.526-.15,8.266,8.266,0,0,1-1.049-.286c-10.418-3.634-19.039-8.733-25.62-15.154A54.568,54.568,0,0,1,5.354,72.38C.065,58.028.366,42.217.608,29.511l0-.2c.049-1.049.08-2.151.1-3.368A11.485,11.485,0,0,1,11.525,14.7c12.459-.7,22.1-4.759,30.333-12.786l.072-.066a6.942,6.942,0,0,1,9.424,0l.07.066C59.661,9.938,69.3,14,81.759,14.7A11.485,11.485,0,0,1,92.573,25.948c.017,1.225.049,2.326.1,3.368l0,.083C92.915,42.128,93.214,57.971,87.907,72.365Zm0,0" transform="translate(0)"/><path class="b" d="M260.121,72.368a54.671,54.671,0,0,1-13.094,20.4c-6.575,6.421-15.185,11.522-25.591,15.162a7.829,7.829,0,0,1-2.487.439V0a6.952,6.952,0,0,1,4.619,1.844l.07.066C231.875,9.941,241.514,14,253.973,14.7a11.485,11.485,0,0,1,10.815,11.251c.017,1.225.049,2.326.1,3.368l0,.083C265.129,42.131,265.429,57.974,260.121,72.368Zm0,0" transform="translate(-172.214 -0.003)"/><path class="c" d="M144.909,155.4A27.041,27.041,0,0,1,118,182.412h-.1a27.007,27.007,0,1,1,0-54.014h.1A27.041,27.041,0,0,1,144.909,155.4Zm0,0" transform="translate(-71.262 -101.222)"/><path class="d" d="M245.861,155.4a27.04,27.04,0,0,1-26.912,27.008V128.4A27.041,27.041,0,0,1,245.861,155.4Zm0,0" transform="translate(-172.214 -101.222)"/><path class="e" d="M180.05,217.408l-12.163,12.165-2.628,2.628a3.183,3.183,0,0,1-4.5,0l-5.651-5.653a3.179,3.179,0,0,1,4.5-4.5l3.4,3.4,12.544-12.544a3.179,3.179,0,0,1,4.5,4.5Zm0,0" transform="translate(-121.152 -167.114)"/><path class="f" d="M231.112,217.408l-12.163,12.165v-8.994l7.667-7.666a3.179,3.179,0,0,1,4.5,4.5Zm0,0" transform="translate(-172.214 -167.114)"/></g></svg>